<ttFont>
    <TTGlyph name=".notdef" xMin="120" yMin="0" xMax="480" yMax="582">
      <contour>
        <pt x="170" y="536" on="1"/>
        <pt x="170" y="46" on="1"/>
        <pt x="430" y="46" on="1"/>
        <pt x="430" y="536" on="1"/>
      </contour>
      <contour>
        <pt x="120" y="0" on="1"/>
        <pt x="120" y="582" on="1"/>
        <pt x="480" y="582" on="1"/>
        <pt x="480" y="0" on="1"/>
      </contour>
    </TTGlyph>
    <TTGlyph name="A" xMin="28" yMin="0" xMax="512" yMax="643">
      <contour>
        <pt x="87" y="0" on="1"/>
        <pt x="37" y="0" on="1"/>
        <pt x="24" y="0" on="0"/>
        <pt x="28" y="14" on="1"/>
        <pt x="215" y="629" on="1"/>
        <pt x="219" y="643" on="0"/>
        <pt x="234" y="643" on="1"/>
        <pt x="306" y="643" on="1"/>
        <pt x="321" y="643" on="0"/>
        <pt x="325" y="629" on="1"/>
        <pt x="512" y="14" on="1"/>
        <pt x="516" y="0" on="0"/>
        <pt x="503" y="0" on="1"/>
        <pt x="452" y="0" on="1"/>
        <pt x="441" y="0" on="0"/>
        <pt x="438" y="14" on="1"/>
        <pt x="391" y="160" on="1"/>
        <pt x="149" y="160" on="1"/>
        <pt x="102" y="14" on="1"/>
        <pt x="98" y="0" on="0"/>
      </contour>
      <contour>
        <pt x="268" y="568" on="1"/>
        <pt x="165" y="222" on="1"/>
        <pt x="375" y="222" on="1"/>
        <pt x="272" y="568" on="1"/>
      </contour>
    </TTGlyph>
    <TTGlyph name="AE" xMin="4" yMin="0" xMax="716" yMax="643">
      <contour>
        <pt x="63" y="0" on="1"/>
        <pt x="12" y="0" on="1"/>
        <pt x="-4" y="0" on="0"/>
        <pt x="4" y="15" on="1"/>
        <pt x="324" y="629" on="1"/>
        <pt x="332" y="643" on="0"/>
        <pt x="347" y="643" on="1"/>
        <pt x="703" y="643" on="1"/>
        <pt x="716" y="643" on="0"/>
        <pt x="716" y="629" on="1"/>
        <pt x="716" y="593" on="1"/>
        <pt x="716" y="579" on="0"/>
        <pt x="703" y="579" on="1"/>
        <pt x="458" y="579" on="1"/>
        <pt x="447" y="579" on="0"/>
        <pt x="447" y="570" on="1"/>
        <pt x="447" y="368" on="1"/>
        <pt x="447" y="359" on="0"/>
        <pt x="458" y="359" on="1"/>
        <pt x="671" y="359" on="1"/>
        <pt x="686" y="359" on="0"/>
        <pt x="686" y="345" on="1"/>
        <pt x="686" y="309" on="1"/>
        <pt x="686" y="295" on="0"/>
        <pt x="671" y="295" on="1"/>
        <pt x="458" y="295" on="1"/>
        <pt x="447" y="295" on="0"/>
        <pt x="447" y="286" on="1"/>
        <pt x="447" y="73" on="1"/>
        <pt x="447" y="64" on="0"/>
        <pt x="458" y="64" on="1"/>
        <pt x="703" y="64" on="1"/>
        <pt x="716" y="64" on="0"/>
        <pt x="716" y="50" on="1"/>
        <pt x="716" y="14" on="1"/>
        <pt x="716" y="0" on="0"/>
        <pt x="703" y="0" on="1"/>
        <pt x="388" y="0" on="1"/>
        <pt x="375" y="0" on="0"/>
        <pt x="375" y="14" on="1"/>
        <pt x="375" y="161" on="1"/>
        <pt x="159" y="161" on="1"/>
        <pt x="81" y="14" on="1"/>
        <pt x="75" y="0" on="0"/>
      </contour>
      <contour>
        <pt x="375" y="226" on="1"/>
        <pt x="375" y="570" on="1"/>
        <pt x="371" y="570" on="1"/>
        <pt x="189" y="226" on="1"/>
      </contour>
    </TTGlyph>
    <TTGlyph name="AEacute" xMin="4" yMin="0" xMax="716" yMax="836">
      <contour>
        <pt x="486" y="836" on="1"/>
        <pt x="546" y="836" on="1"/>
        <pt x="553" y="836" on="0"/>
        <pt x="557" y="828" on="0"/>
        <pt x="553" y="822" on="1"/>
        <pt x="466" y="717" on="1"/>
        <pt x="456" y="707" on="0"/>
        <pt x="446" y="707" on="1"/>
        <pt x="413" y="707" on="1"/>
        <pt x="399" y="707" on="0"/>
        <pt x="407" y="721" on="1"/>
        <pt x="465" y="823" on="1"/>
        <pt x="471" y="836" on="0"/>
      </contour>
      <contour>
        <pt x="63" y="0" on="1"/>
        <pt x="12" y="0" on="1"/>
        <pt x="-4" y="0" on="0"/>
        <pt x="4" y="15" on="1"/>
        <pt x="324" y="629" on="1"/>
        <pt x="332" y="643" on="0"/>
        <pt x="347" y="643" on="1"/>
        <pt x="703" y="643" on="1"/>
        <pt x="716" y="643" on="0"/>
        <pt x="716" y="629" on="1"/>
        <pt x="716" y="593" on="1"/>
        <pt x="716" y="579" on="0"/>
        <pt x="703" y="579" on="1"/>
        <pt x="458" y="579" on="1"/>
        <pt x="447" y="579" on="0"/>
        <pt x="447" y="570" on="1"/>
        <pt x="447" y="368" on="1"/>
        <pt x="447" y="359" on="0"/>
        <pt x="458" y="359" on="1"/>
        <pt x="671" y="359" on="1"/>
        <pt x="686" y="359" on="0"/>
        <pt x="686" y="345" on="1"/>
        <pt x="686" y="309" on="1"/>
        <pt x="686" y="295" on="0"/>
        <pt x="671" y="295" on="1"/>
        <pt x="458" y="295" on="1"/>
        <pt x="447" y="295" on="0"/>
        <pt x="447" y="286" on="1"/>
        <pt x="447" y="73" on="1"/>
        <pt x="447" y="64" on="0"/>
        <pt x="458" y="64" on="1"/>
        <pt x="703" y="64" on="1"/>
        <pt x="716" y="64" on="0"/>
        <pt x="716" y="50" on="1"/>
        <pt x="716" y="14" on="1"/>
        <pt x="716" y="0" on="0"/>
        <pt x="703" y="0" on="1"/>
        <pt x="388" y="0" on="1"/>
        <pt x="375" y="0" on="0"/>
        <pt x="375" y="14" on="1"/>
        <pt x="375" y="161" on="1"/>
        <pt x="159" y="161" on="1"/>
        <pt x="81" y="14" on="1"/>
        <pt x="75" y="0" on="0"/>
      </contour>
      <contour>
        <pt x="375" y="226" on="1"/>
        <pt x="375" y="570" on="1"/>
        <pt x="371" y="570" on="1"/>
        <pt x="189" y="226" on="1"/>
      </contour>
    </TTGlyph>
    <TTGlyph name="Aacute" xMin="28" yMin="0" xMax="512" yMax="836">
      <contour>
        <pt x="328" y="836" on="1"/>
        <pt x="388" y="836" on="1"/>
        <pt x="395" y="836" on="0"/>
        <pt x="399" y="828" on="0"/>
        <pt x="395" y="822" on="1"/>
        <pt x="308" y="717" on="1"/>
        <pt x="298" y="707" on="0"/>
        <pt x="288" y="707" on="1"/>
        <pt x="255" y="707" on="1"/>
        <pt x="241" y="707" on="0"/>
        <pt x="249" y="721" on="1"/>
        <pt x="307" y="823" on="1"/>
        <pt x="313" y="836" on="0"/>
      </contour>
      <contour>
        <pt x="87" y="0" on="1"/>
        <pt x="37" y="0" on="1"/>
        <pt x="24" y="0" on="0"/>
        <pt x="28" y="14" on="1"/>
        <pt x="215" y="629" on="1"/>
        <pt x="219" y="643" on="0"/>
        <pt x="234" y="643" on="1"/>
        <pt x="306" y="643" on="1"/>
        <pt x="321" y="643" on="0"/>
        <pt x="325" y="629" on="1"/>
        <pt x="512" y="14" on="1"/>
        <pt x="516" y="0" on="0"/>
        <pt x="503" y="0" on="1"/>
        <pt x="452" y="0" on="1"/>
        <pt x="441" y="0" on="0"/>
        <pt x="438" y="14" on="1"/>
        <pt x="391" y="160" on="1"/>
        <pt x="149" y="160" on="1"/>
        <pt x="102" y="14" on="1"/>
        <pt x="98" y="0" on="0"/>
      </contour>
      <contour>
        <pt x="268" y="568" on="1"/>
        <pt x="165" y="222" on="1"/>
        <pt x="375" y="222" on="1"/>
        <pt x="272" y="568" on="1"/>
      </contour>
    </TTGlyph>
    <TTGlyph name="Abreve" xMin="28" yMin="0" xMax="512" yMax="836">
      <contour>
        <pt x="165" y="825" on="1"/>
        <pt x="165" y="836" on="0"/>
        <pt x="176" y="836" on="1"/>
        <pt x="203" y="836" on="1"/>
        <pt x="214" y="836" on="0"/>
        <pt x="214" y="825" on="1"/>
        <pt x="214" y="815" on="1"/>
        <pt x="214" y="778" on="0"/>
        <pt x="238" y="747" on="0"/>
        <pt x="267" y="747" on="1"/>
        <pt x="272" y="747" on="1"/>
        <pt x="302" y="747" on="0"/>
        <pt x="327" y="778" on="0"/>
        <pt x="327" y="815" on="1"/>
        <pt x="327" y="825" on="1"/>
        <pt x="327" y="835" on="0"/>
        <pt x="337" y="835" on="1"/>
        <pt x="363" y="835" on="1"/>
        <pt x="374" y="835" on="0"/>
        <pt x="374" y="825" on="1"/>
        <pt x="374" y="813" on="1"/>
        <pt x="374" y="707" on="0"/>
        <pt x="278" y="707" on="1"/>
        <pt x="260" y="707" on="1"/>
        <pt x="165" y="707" on="0"/>
        <pt x="165" y="813" on="1"/>
      </contour>
      <contour>
        <pt x="87" y="0" on="1"/>
        <pt x="37" y="0" on="1"/>
        <pt x="24" y="0" on="0"/>
        <pt x="28" y="14" on="1"/>
        <pt x="215" y="629" on="1"/>
        <pt x="219" y="643" on="0"/>
        <pt x="234" y="643" on="1"/>
        <pt x="306" y="643" on="1"/>
        <pt x="321" y="643" on="0"/>
        <pt x="325" y="629" on="1"/>
        <pt x="512" y="14" on="1"/>
        <pt x="516" y="0" on="0"/>
        <pt x="503" y="0" on="1"/>
        <pt x="452" y="0" on="1"/>
        <pt x="441" y="0" on="0"/>
        <pt x="438" y="14" on="1"/>
        <pt x="391" y="160" on="1"/>
        <pt x="149" y="160" on="1"/>
        <pt x="102" y="14" on="1"/>
        <pt x="98" y="0" on="0"/>
      </contour>
      <contour>
        <pt x="268" y="568" on="1"/>
        <pt x="165" y="222" on="1"/>
        <pt x="375" y="222" on="1"/>
        <pt x="272" y="568" on="1"/>
      </contour>
    </TTGlyph>
    <TTGlyph name="Acircumflex" xMin="28" yMin="0" xMax="512" yMax="836">
      <contour>
        <pt x="365" y="707" on="1"/>
        <pt x="331" y="707" on="1"/>
        <pt x="321" y="707" on="0"/>
        <pt x="317" y="715" on="1"/>
        <pt x="270" y="803" on="1"/>
        <pt x="222" y="715" on="1"/>
        <pt x="219" y="707" on="0"/>
        <pt x="209" y="707" on="1"/>
        <pt x="175" y="707" on="1"/>
        <pt x="162" y="707" on="0"/>
        <pt x="169" y="719" on="1"/>
        <pt x="232" y="826" on="1"/>
        <pt x="239" y="836" on="0"/>
        <pt x="253" y="836" on="1"/>
        <pt x="287" y="836" on="1"/>
        <pt x="300" y="836" on="0"/>
        <pt x="307" y="826" on="1"/>
        <pt x="371" y="719" on="1"/>
        <pt x="378" y="707" on="0"/>
      </contour>
      <contour>
        <pt x="87" y="0" on="1"/>
        <pt x="37" y="0" on="1"/>
        <pt x="24" y="0" on="0"/>
        <pt x="28" y="14" on="1"/>
        <pt x="215" y="629" on="1"/>
        <pt x="219" y="643" on="0"/>
        <pt x="234" y="643" on="1"/>
        <pt x="306" y="643" on="1"/>
        <pt x="321" y="643" on="0"/>
        <pt x="325" y="629" on="1"/>
        <pt x="512" y="14" on="1"/>
        <pt x="516" y="0" on="0"/>
        <pt x="503" y="0" on="1"/>
        <pt x="452" y="0" on="1"/>
        <pt x="441" y="0" on="0"/>
        <pt x="438" y="14" on="1"/>
        <pt x="391" y="160" on="1"/>
        <pt x="149" y="160" on="1"/>
        <pt x="102" y="14" on="1"/>
        <pt x="98" y="0" on="0"/>
      </contour>
      <contour>
        <pt x="268" y="568" on="1"/>
        <pt x="165" y="222" on="1"/>
        <pt x="375" y="222" on="1"/>
        <pt x="272" y="568" on="1"/>
      </contour>
    </TTGlyph>
    <TTGlyph name="Adieresis" xMin="28" yMin="0" xMax="512" yMax="836">
      <contour>
        <pt x="150" y="721" on="1"/>
        <pt x="150" y="822" on="1"/>
        <pt x="150" y="836" on="0"/>
        <pt x="163" y="836" on="1"/>
        <pt x="206" y="836" on="1"/>
        <pt x="218" y="836" on="0"/>
        <pt x="218" y="823" on="1"/>
        <pt x="218" y="721" on="1"/>
        <pt x="218" y="707" on="0"/>
        <pt x="206" y="707" on="1"/>
        <pt x="163" y="707" on="1"/>
        <pt x="150" y="707" on="0"/>
      </contour>
      <contour>
        <pt x="321" y="721" on="1"/>
        <pt x="321" y="822" on="1"/>
        <pt x="321" y="836" on="0"/>
        <pt x="334" y="836" on="1"/>
        <pt x="377" y="836" on="1"/>
        <pt x="389" y="836" on="0"/>
        <pt x="389" y="823" on="1"/>
        <pt x="389" y="721" on="1"/>
        <pt x="389" y="707" on="0"/>
        <pt x="377" y="707" on="1"/>
        <pt x="334" y="707" on="1"/>
        <pt x="321" y="707" on="0"/>
      </contour>
      <contour>
        <pt x="87" y="0" on="1"/>
        <pt x="37" y="0" on="1"/>
        <pt x="24" y="0" on="0"/>
        <pt x="28" y="14" on="1"/>
        <pt x="215" y="629" on="1"/>
        <pt x="219" y="643" on="0"/>
        <pt x="234" y="643" on="1"/>
        <pt x="306" y="643" on="1"/>
        <pt x="321" y="643" on="0"/>
        <pt x="325" y="629" on="1"/>
        <pt x="512" y="14" on="1"/>
        <pt x="516" y="0" on="0"/>
        <pt x="503" y="0" on="1"/>
        <pt x="452" y="0" on="1"/>
        <pt x="441" y="0" on="0"/>
        <pt x="438" y="14" on="1"/>
        <pt x="391" y="160" on="1"/>
        <pt x="149" y="160" on="1"/>
        <pt x="102" y="14" on="1"/>
        <pt x="98" y="0" on="0"/>
      </contour>
      <contour>
        <pt x="268" y="568" on="1"/>
        <pt x="165" y="222" on="1"/>
        <pt x="375" y="222" on="1"/>
        <pt x="272" y="568" on="1"/>
      </contour>
    </TTGlyph>
    <TTGlyph name="Agrave" xMin="28" yMin="0" xMax="512" yMax="836">
      <contour>
        <pt x="283" y="707" on="1"/>
        <pt x="250" y="707" on="1"/>
        <pt x="238" y="707" on="0"/>
        <pt x="230" y="717" on="1"/>
        <pt x="143" y="822" on="1"/>
        <pt x="139" y="828" on="0"/>
        <pt x="143" y="836" on="0"/>
        <pt x="150" y="836" on="1"/>
        <pt x="210" y="836" on="1"/>
        <pt x="225" y="836" on="0"/>
        <pt x="231" y="823" on="1"/>
        <pt x="289" y="721" on="1"/>
        <pt x="297" y="707" on="0"/>
      </contour>
      <contour>
        <pt x="87" y="0" on="1"/>
        <pt x="37" y="0" on="1"/>
        <pt x="24" y="0" on="0"/>
        <pt x="28" y="14" on="1"/>
        <pt x="215" y="629" on="1"/>
        <pt x="219" y="643" on="0"/>
        <pt x="234" y="643" on="1"/>
        <pt x="306" y="643" on="1"/>
        <pt x="321" y="643" on="0"/>
        <pt x="325" y="629" on="1"/>
        <pt x="512" y="14" on="1"/>
        <pt x="516" y="0" on="0"/>
        <pt x="503" y="0" on="1"/>
        <pt x="452" y="0" on="1"/>
        <pt x="441" y="0" on="0"/>
        <pt x="438" y="14" on="1"/>
        <pt x="391" y="160" on="1"/>
        <pt x="149" y="160" on="1"/>
        <pt x="102" y="14" on="1"/>
        <pt x="98" y="0" on="0"/>
      </contour>
      <contour>
        <pt x="268" y="568" on="1"/>
        <pt x="165" y="222" on="1"/>
        <pt x="375" y="222" on="1"/>
        <pt x="272" y="568" on="1"/>
      </contour>
    </TTGlyph>
    <TTGlyph name="Amacron" xMin="28" yMin="0" xMax="512" yMax="800">
      <contour>
        <pt x="370" y="746" on="1"/>
        <pt x="169" y="746" on="1"/>
        <pt x="155" y="746" on="0"/>
        <pt x="155" y="760" on="1"/>
        <pt x="155" y="786" on="1"/>
        <pt x="155" y="800" on="0"/>
        <pt x="169" y="800" on="1"/>
        <pt x="370" y="800" on="1"/>
        <pt x="384" y="800" on="0"/>
        <pt x="384" y="786" on="1"/>
        <pt x="384" y="760" on="1"/>
        <pt x="384" y="746" on="0"/>
      </contour>
      <contour>
        <pt x="87" y="0" on="1"/>
        <pt x="37" y="0" on="1"/>
        <pt x="24" y="0" on="0"/>
        <pt x="28" y="14" on="1"/>
        <pt x="215" y="629" on="1"/>
        <pt x="219" y="643" on="0"/>
        <pt x="234" y="643" on="1"/>
        <pt x="306" y="643" on="1"/>
        <pt x="321" y="643" on="0"/>
        <pt x="325" y="629" on="1"/>
        <pt x="512" y="14" on="1"/>
        <pt x="516" y="0" on="0"/>
        <pt x="503" y="0" on="1"/>
        <pt x="452" y="0" on="1"/>
        <pt x="441" y="0" on="0"/>
        <pt x="438" y="14" on="1"/>
        <pt x="391" y="160" on="1"/>
        <pt x="149" y="160" on="1"/>
        <pt x="102" y="14" on="1"/>
        <pt x="98" y="0" on="0"/>
      </contour>
      <contour>
        <pt x="268" y="568" on="1"/>
        <pt x="165" y="222" on="1"/>
        <pt x="375" y="222" on="1"/>
        <pt x="272" y="568" on="1"/>
      </contour>
    </TTGlyph>
    <TTGlyph name="Aogonek" xMin="28" yMin="-111" xMax="512" yMax="643">
      <contour>
        <pt x="503" y="0" on="1"/>
        <pt x="465" y="0" on="1"/>
        <pt x="417" y="-67" on="1"/>
        <pt x="456" y="-67" on="1"/>
        <pt x="472" y="-67" on="0"/>
        <pt x="482" y="-73" on="0"/>
        <pt x="482" y="-81" on="1"/>
        <pt x="482" y="-94" on="0"/>
        <pt x="432" y="-111" on="0"/>
        <pt x="378" y="-111" on="0"/>
        <pt x="363" y="-83" on="0"/>
        <pt x="375" y="-67" on="1"/>
        <pt x="436" y="19" on="1"/>
        <pt x="391" y="160" on="1"/>
        <pt x="149" y="160" on="1"/>
        <pt x="102" y="14" on="1"/>
        <pt x="98" y="0" on="0"/>
        <pt x="87" y="0" on="1"/>
        <pt x="37" y="0" on="1"/>
        <pt x="24" y="0" on="0"/>
        <pt x="28" y="14" on="1"/>
        <pt x="215" y="629" on="1"/>
        <pt x="219" y="643" on="0"/>
        <pt x="234" y="643" on="1"/>
        <pt x="306" y="643" on="1"/>
        <pt x="321" y="643" on="0"/>
        <pt x="325" y="629" on="1"/>
        <pt x="512" y="14" on="1"/>
        <pt x="516" y="0" on="0"/>
      </contour>
      <contour>
        <pt x="165" y="222" on="1"/>
        <pt x="375" y="222" on="1"/>
        <pt x="272" y="568" on="1"/>
        <pt x="268" y="568" on="1"/>
      </contour>
    </TTGlyph>
    <TTGlyph name="Aring" xMin="28" yMin="0" xMax="512" yMax="872">
      <contour>
        <pt x="284" y="697" on="1"/>
        <pt x="253" y="697" on="1"/>
        <pt x="187" y="697" on="0"/>
        <pt x="187" y="765" on="1"/>
        <pt x="187" y="806" on="1"/>
        <pt x="187" y="872" on="0"/>
        <pt x="253" y="872" on="1"/>
        <pt x="284" y="872" on="1"/>
        <pt x="316" y="872" on="0"/>
        <pt x="351" y="837" on="0"/>
        <pt x="351" y="806" on="1"/>
        <pt x="351" y="765" on="1"/>
        <pt x="351" y="733" on="0"/>
        <pt x="316" y="697" on="0"/>
      </contour>
      <contour>
        <pt x="262" y="730" on="1"/>
        <pt x="274" y="730" on="1"/>
        <pt x="314" y="730" on="0"/>
        <pt x="314" y="773" on="1"/>
        <pt x="314" y="796" on="1"/>
        <pt x="314" y="839" on="0"/>
        <pt x="275" y="839" on="1"/>
        <pt x="262" y="839" on="1"/>
        <pt x="222" y="839" on="0"/>
        <pt x="222" y="796" on="1"/>
        <pt x="222" y="773" on="1"/>
        <pt x="222" y="730" on="0"/>
      </contour>
      <contour>
        <pt x="87" y="0" on="1"/>
        <pt x="37" y="0" on="1"/>
        <pt x="24" y="0" on="0"/>
        <pt x="28" y="14" on="1"/>
        <pt x="215" y="629" on="1"/>
        <pt x="219" y="643" on="0"/>
        <pt x="234" y="643" on="1"/>
        <pt x="306" y="643" on="1"/>
        <pt x="321" y="643" on="0"/>
        <pt x="325" y="629" on="1"/>
        <pt x="512" y="14" on="1"/>
        <pt x="516" y="0" on="0"/>
        <pt x="503" y="0" on="1"/>
        <pt x="452" y="0" on="1"/>
        <pt x="441" y="0" on="0"/>
        <pt x="438" y="14" on="1"/>
        <pt x="391" y="160" on="1"/>
        <pt x="149" y="160" on="1"/>
        <pt x="102" y="14" on="1"/>
        <pt x="98" y="0" on="0"/>
      </contour>
      <contour>
        <pt x="268" y="568" on="1"/>
        <pt x="165" y="222" on="1"/>
        <pt x="375" y="222" on="1"/>
        <pt x="272" y="568" on="1"/>
      </contour>
    </TTGlyph>
    <TTGlyph name="Atilde" xMin="28" yMin="0" xMax="512" yMax="832">
      <contour>
        <pt x="216" y="702" on="1"/>
        <pt x="160" y="702" on="0"/>
        <pt x="160" y="779" on="1"/>
        <pt x="160" y="818" on="1"/>
        <pt x="160" y="828" on="0"/>
        <pt x="169" y="828" on="1"/>
        <pt x="190" y="828" on="1"/>
        <pt x="199" y="828" on="0"/>
        <pt x="199" y="818" on="1"/>
        <pt x="199" y="792" on="1"/>
        <pt x="199" y="763" on="0"/>
        <pt x="209" y="743" on="0"/>
        <pt x="234" y="743" on="0"/>
        <pt x="247" y="759" on="0"/>
        <pt x="272" y="814" on="0"/>
        <pt x="296" y="832" on="0"/>
        <pt x="324" y="832" on="1"/>
        <pt x="381" y="832" on="0"/>
        <pt x="381" y="754" on="1"/>
        <pt x="381" y="715" on="1"/>
        <pt x="381" y="704" on="0"/>
        <pt x="372" y="704" on="1"/>
        <pt x="350" y="704" on="1"/>
        <pt x="341" y="704" on="0"/>
        <pt x="341" y="715" on="1"/>
        <pt x="341" y="742" on="1"/>
        <pt x="341" y="771" on="0"/>
        <pt x="331" y="790" on="0"/>
        <pt x="305" y="790" on="0"/>
        <pt x="295" y="778" on="0"/>
        <pt x="290" y="766" on="1"/>
        <pt x="269" y="721" on="0"/>
        <pt x="244" y="702" on="0"/>
      </contour>
      <contour>
        <pt x="87" y="0" on="1"/>
        <pt x="37" y="0" on="1"/>
        <pt x="24" y="0" on="0"/>
        <pt x="28" y="14" on="1"/>
        <pt x="215" y="629" on="1"/>
        <pt x="219" y="643" on="0"/>
        <pt x="234" y="643" on="1"/>
        <pt x="306" y="643" on="1"/>
        <pt x="321" y="643" on="0"/>
        <pt x="325" y="629" on="1"/>
        <pt x="512" y="14" on="1"/>
        <pt x="516" y="0" on="0"/>
        <pt x="503" y="0" on="1"/>
        <pt x="452" y="0" on="1"/>
        <pt x="441" y="0" on="0"/>
        <pt x="438" y="14" on="1"/>
        <pt x="391" y="160" on="1"/>
        <pt x="149" y="160" on="1"/>
        <pt x="102" y="14" on="1"/>
        <pt x="98" y="0" on="0"/>
      </contour>
      <contour>
        <pt x="268" y="568" on="1"/>
        <pt x="165" y="222" on="1"/>
        <pt x="375" y="222" on="1"/>
        <pt x="272" y="568" on="1"/>
      </contour>
    </TTGlyph>
    <TTGlyph name="B" xMin="79" yMin="0" xMax="483" yMax="643">
      <contour>
        <pt x="162" y="62" on="1"/>
        <pt x="326" y="62" on="1"/>
        <pt x="412" y="62" on="0"/>
        <pt x="412" y="147" on="1"/>
        <pt x="412" y="212" on="1"/>
        <pt x="412" y="297" on="0"/>
        <pt x="320" y="297" on="1"/>
        <pt x="162" y="297" on="1"/>
        <pt x="152" y="297" on="0"/>
        <pt x="152" y="288" on="1"/>
        <pt x="152" y="72" on="1"/>
        <pt x="152" y="62" on="0"/>
      </contour>
      <contour>
        <pt x="162" y="358" on="1"/>
        <pt x="316" y="358" on="1"/>
        <pt x="404" y="358" on="0"/>
        <pt x="404" y="443" on="1"/>
        <pt x="404" y="496" on="1"/>
        <pt x="404" y="581" on="0"/>
        <pt x="319" y="581" on="1"/>
        <pt x="162" y="581" on="1"/>
        <pt x="152" y="581" on="0"/>
        <pt x="152" y="571" on="1"/>
        <pt x="152" y="367" on="1"/>
        <pt x="152" y="358" on="0"/>
      </contour>
      <contour>
        <pt x="79" y="14" on="1"/>
        <pt x="79" y="629" on="1"/>
        <pt x="79" y="643" on="0"/>
        <pt x="93" y="643" on="1"/>
        <pt x="328" y="643" on="1"/>
        <pt x="397" y="643" on="0"/>
        <pt x="475" y="566" on="0"/>
        <pt x="475" y="497" on="1"/>
        <pt x="475" y="442" on="1"/>
        <pt x="475" y="353" on="0"/>
        <pt x="391" y="327" on="1"/>
        <pt x="429" y="324" on="0"/>
        <pt x="483" y="263" on="0"/>
        <pt x="483" y="213" on="1"/>
        <pt x="483" y="146" on="1"/>
        <pt x="483" y="77" on="0"/>
        <pt x="404" y="0" on="0"/>
        <pt x="335" y="0" on="1"/>
        <pt x="93" y="0" on="1"/>
        <pt x="79" y="0" on="0"/>
      </contour>
    </TTGlyph>
    <TTGlyph name="C" xMin="69" yMin="0" xMax="485" yMax="643">
      <contour>
        <pt x="337" y="0" on="1"/>
        <pt x="217" y="0" on="1"/>
        <pt x="148" y="0" on="0"/>
        <pt x="69" y="78" on="0"/>
        <pt x="69" y="148" on="1"/>
        <pt x="69" y="495" on="1"/>
        <pt x="69" y="565" on="0"/>
        <pt x="148" y="643" on="0"/>
        <pt x="217" y="643" on="1"/>
        <pt x="337" y="643" on="1"/>
        <pt x="406" y="643" on="0"/>
        <pt x="485" y="565" on="0"/>
        <pt x="485" y="495" on="1"/>
        <pt x="485" y="446" on="1"/>
        <pt x="485" y="432" on="0"/>
        <pt x="471" y="432" on="1"/>
        <pt x="426" y="432" on="1"/>
        <pt x="412" y="432" on="0"/>
        <pt x="412" y="446" on="1"/>
        <pt x="412" y="492" on="1"/>
        <pt x="412" y="579" on="0"/>
        <pt x="328" y="579" on="1"/>
        <pt x="225" y="579" on="1"/>
        <pt x="142" y="579" on="0"/>
        <pt x="142" y="492" on="1"/>
        <pt x="142" y="151" on="1"/>
        <pt x="142" y="64" on="0"/>
        <pt x="225" y="64" on="1"/>
        <pt x="328" y="64" on="1"/>
        <pt x="412" y="64" on="0"/>
        <pt x="412" y="151" on="1"/>
        <pt x="412" y="197" on="1"/>
        <pt x="412" y="211" on="0"/>
        <pt x="426" y="211" on="1"/>
        <pt x="471" y="211" on="1"/>
        <pt x="485" y="211" on="0"/>
        <pt x="485" y="197" on="1"/>
        <pt x="485" y="148" on="1"/>
        <pt x="485" y="78" on="0"/>
        <pt x="406" y="0" on="0"/>
      </contour>
    </TTGlyph>
    <TTGlyph name="Cacute" xMin="69" yMin="0" xMax="485" yMax="836">
      <contour>
        <pt x="337" y="0" on="1"/>
        <pt x="217" y="0" on="1"/>
        <pt x="148" y="0" on="0"/>
        <pt x="69" y="78" on="0"/>
        <pt x="69" y="148" on="1"/>
        <pt x="69" y="495" on="1"/>
        <pt x="69" y="565" on="0"/>
        <pt x="148" y="643" on="0"/>
        <pt x="217" y="643" on="1"/>
        <pt x="337" y="643" on="1"/>
        <pt x="406" y="643" on="0"/>
        <pt x="485" y="565" on="0"/>
        <pt x="485" y="495" on="1"/>
        <pt x="485" y="446" on="1"/>
        <pt x="485" y="432" on="0"/>
        <pt x="471" y="432" on="1"/>
        <pt x="426" y="432" on="1"/>
        <pt x="412" y="432" on="0"/>
        <pt x="412" y="446" on="1"/>
        <pt x="412" y="492" on="1"/>
        <pt x="412" y="579" on="0"/>
        <pt x="328" y="579" on="1"/>
        <pt x="225" y="579" on="1"/>
        <pt x="142" y="579" on="0"/>
        <pt x="142" y="492" on="1"/>
        <pt x="142" y="151" on="1"/>
        <pt x="142" y="64" on="0"/>
        <pt x="225" y="64" on="1"/>
        <pt x="328" y="64" on="1"/>
        <pt x="412" y="64" on="0"/>
        <pt x="412" y="151" on="1"/>
        <pt x="412" y="197" on="1"/>
        <pt x="412" y="211" on="0"/>
        <pt x="426" y="211" on="1"/>
        <pt x="471" y="211" on="1"/>
        <pt x="485" y="211" on="0"/>
        <pt x="485" y="197" on="1"/>
        <pt x="485" y="148" on="1"/>
        <pt x="485" y="78" on="0"/>
        <pt x="406" y="0" on="0"/>
      </contour>
      <contour>
        <pt x="323" y="836" on="1"/>
        <pt x="383" y="836" on="1"/>
        <pt x="390" y="836" on="0"/>
        <pt x="394" y="828" on="0"/>
        <pt x="390" y="822" on="1"/>
        <pt x="303" y="717" on="1"/>
        <pt x="295" y="707" on="0"/>
        <pt x="283" y="707" on="1"/>
        <pt x="250" y="707" on="1"/>
        <pt x="236" y="707" on="0"/>
        <pt x="244" y="721" on="1"/>
        <pt x="301" y="823" on="1"/>
        <pt x="308" y="836" on="0"/>
      </contour>
    </TTGlyph>
    <TTGlyph name="Ccaron" xMin="69" yMin="0" xMax="485" yMax="836">
      <contour>
        <pt x="337" y="0" on="1"/>
        <pt x="217" y="0" on="1"/>
        <pt x="148" y="0" on="0"/>
        <pt x="69" y="78" on="0"/>
        <pt x="69" y="148" on="1"/>
        <pt x="69" y="495" on="1"/>
        <pt x="69" y="565" on="0"/>
        <pt x="148" y="643" on="0"/>
        <pt x="217" y="643" on="1"/>
        <pt x="337" y="643" on="1"/>
        <pt x="406" y="643" on="0"/>
        <pt x="485" y="565" on="0"/>
        <pt x="485" y="495" on="1"/>
        <pt x="485" y="446" on="1"/>
        <pt x="485" y="432" on="0"/>
        <pt x="471" y="432" on="1"/>
        <pt x="426" y="432" on="1"/>
        <pt x="412" y="432" on="0"/>
        <pt x="412" y="446" on="1"/>
        <pt x="412" y="492" on="1"/>
        <pt x="412" y="579" on="0"/>
        <pt x="328" y="579" on="1"/>
        <pt x="225" y="579" on="1"/>
        <pt x="142" y="579" on="0"/>
        <pt x="142" y="492" on="1"/>
        <pt x="142" y="151" on="1"/>
        <pt x="142" y="64" on="0"/>
        <pt x="225" y="64" on="1"/>
        <pt x="328" y="64" on="1"/>
        <pt x="412" y="64" on="0"/>
        <pt x="412" y="151" on="1"/>
        <pt x="412" y="197" on="1"/>
        <pt x="412" y="211" on="0"/>
        <pt x="426" y="211" on="1"/>
        <pt x="471" y="211" on="1"/>
        <pt x="485" y="211" on="0"/>
        <pt x="485" y="197" on="1"/>
        <pt x="485" y="148" on="1"/>
        <pt x="485" y="78" on="0"/>
        <pt x="406" y="0" on="0"/>
      </contour>
      <contour>
        <pt x="295" y="707" on="1"/>
        <pt x="262" y="707" on="1"/>
        <pt x="248" y="707" on="0"/>
        <pt x="241" y="717" on="1"/>
        <pt x="178" y="824" on="1"/>
        <pt x="171" y="836" on="0"/>
        <pt x="184" y="836" on="1"/>
        <pt x="217" y="836" on="1"/>
        <pt x="228" y="836" on="0"/>
        <pt x="231" y="828" on="1"/>
        <pt x="279" y="740" on="1"/>
        <pt x="326" y="828" on="1"/>
        <pt x="330" y="836" on="0"/>
        <pt x="340" y="836" on="1"/>
        <pt x="374" y="836" on="1"/>
        <pt x="386" y="836" on="0"/>
        <pt x="379" y="824" on="1"/>
        <pt x="316" y="717" on="1"/>
        <pt x="309" y="707" on="0"/>
      </contour>
    </TTGlyph>
    <TTGlyph name="Ccedilla" xMin="69" yMin="-192" xMax="485" yMax="643">
      <contour>
        <pt x="471" y="432" on="1"/>
        <pt x="426" y="432" on="1"/>
        <pt x="412" y="432" on="0"/>
        <pt x="412" y="446" on="1"/>
        <pt x="412" y="492" on="1"/>
        <pt x="412" y="579" on="0"/>
        <pt x="328" y="579" on="1"/>
        <pt x="225" y="579" on="1"/>
        <pt x="142" y="579" on="0"/>
        <pt x="142" y="492" on="1"/>
        <pt x="142" y="151" on="1"/>
        <pt x="142" y="64" on="0"/>
        <pt x="225" y="64" on="1"/>
        <pt x="328" y="64" on="1"/>
        <pt x="412" y="64" on="0"/>
        <pt x="412" y="151" on="1"/>
        <pt x="412" y="197" on="1"/>
        <pt x="412" y="211" on="0"/>
        <pt x="426" y="211" on="1"/>
        <pt x="471" y="211" on="1"/>
        <pt x="485" y="211" on="0"/>
        <pt x="485" y="197" on="1"/>
        <pt x="485" y="148" on="1"/>
        <pt x="485" y="78" on="0"/>
        <pt x="406" y="0" on="0"/>
        <pt x="337" y="0" on="1"/>
        <pt x="323" y="0" on="1"/>
        <pt x="279" y="-46" on="1"/>
        <pt x="279" y="-50" on="1"/>
        <pt x="356" y="-50" on="0"/>
        <pt x="356" y="-115" on="1"/>
        <pt x="356" y="-128" on="1"/>
        <pt x="356" y="-192" on="0"/>
        <pt x="270" y="-192" on="1"/>
        <pt x="239" y="-192" on="1"/>
        <pt x="226" y="-192" on="0"/>
        <pt x="226" y="-179" on="1"/>
        <pt x="226" y="-165" on="1"/>
        <pt x="226" y="-152" on="0"/>
        <pt x="239" y="-152" on="1"/>
        <pt x="263" y="-152" on="1"/>
        <pt x="292" y="-152" on="0"/>
        <pt x="314" y="-139" on="0"/>
        <pt x="314" y="-123" on="1"/>
        <pt x="314" y="-120" on="1"/>
        <pt x="314" y="-102" on="0"/>
        <pt x="293" y="-90" on="0"/>
        <pt x="263" y="-90" on="1"/>
        <pt x="247" y="-90" on="1"/>
        <pt x="229" y="-90" on="0"/>
        <pt x="218" y="-60" on="0"/>
        <pt x="230" y="-46" on="1"/>
        <pt x="270" y="0" on="1"/>
        <pt x="217" y="0" on="1"/>
        <pt x="148" y="0" on="0"/>
        <pt x="69" y="78" on="0"/>
        <pt x="69" y="148" on="1"/>
        <pt x="69" y="495" on="1"/>
        <pt x="69" y="565" on="0"/>
        <pt x="148" y="643" on="0"/>
        <pt x="217" y="643" on="1"/>
        <pt x="337" y="643" on="1"/>
        <pt x="406" y="643" on="0"/>
        <pt x="485" y="565" on="0"/>
        <pt x="485" y="495" on="1"/>
        <pt x="485" y="446" on="1"/>
        <pt x="485" y="432" on="0"/>
      </contour>
    </TTGlyph>
    <TTGlyph name="Cdotaccent" xMin="69" yMin="0" xMax="485" yMax="836">
      <contour>
        <pt x="337" y="0" on="1"/>
        <pt x="217" y="0" on="1"/>
        <pt x="148" y="0" on="0"/>
        <pt x="69" y="78" on="0"/>
        <pt x="69" y="148" on="1"/>
        <pt x="69" y="495" on="1"/>
        <pt x="69" y="565" on="0"/>
        <pt x="148" y="643" on="0"/>
        <pt x="217" y="643" on="1"/>
        <pt x="337" y="643" on="1"/>
        <pt x="406" y="643" on="0"/>
        <pt x="485" y="565" on="0"/>
        <pt x="485" y="495" on="1"/>
        <pt x="485" y="446" on="1"/>
        <pt x="485" y="432" on="0"/>
        <pt x="471" y="432" on="1"/>
        <pt x="426" y="432" on="1"/>
        <pt x="412" y="432" on="0"/>
        <pt x="412" y="446" on="1"/>
        <pt x="412" y="492" on="1"/>
        <pt x="412" y="579" on="0"/>
        <pt x="328" y="579" on="1"/>
        <pt x="225" y="579" on="1"/>
        <pt x="142" y="579" on="0"/>
        <pt x="142" y="492" on="1"/>
        <pt x="142" y="151" on="1"/>
        <pt x="142" y="64" on="0"/>
        <pt x="225" y="64" on="1"/>
        <pt x="328" y="64" on="1"/>
        <pt x="412" y="64" on="0"/>
        <pt x="412" y="151" on="1"/>
        <pt x="412" y="197" on="1"/>
        <pt x="412" y="211" on="0"/>
        <pt x="426" y="211" on="1"/>
        <pt x="471" y="211" on="1"/>
        <pt x="485" y="211" on="0"/>
        <pt x="485" y="197" on="1"/>
        <pt x="485" y="148" on="1"/>
        <pt x="485" y="78" on="0"/>
        <pt x="406" y="0" on="0"/>
      </contour>
      <contour>
        <pt x="241" y="725" on="1"/>
        <pt x="241" y="822" on="1"/>
        <pt x="241" y="836" on="0"/>
        <pt x="254" y="836" on="1"/>
        <pt x="300" y="836" on="1"/>
        <pt x="313" y="836" on="0"/>
        <pt x="313" y="822" on="1"/>
        <pt x="313" y="725" on="1"/>
        <pt x="313" y="711" on="0"/>
        <pt x="300" y="711" on="1"/>
        <pt x="254" y="711" on="1"/>
        <pt x="241" y="711" on="0"/>
      </contour>
    </TTGlyph>
    <TTGlyph name="D" xMin="79" yMin="0" xMax="487" yMax="643">
      <contour>
        <pt x="162" y="64" on="1"/>
        <pt x="330" y="64" on="1"/>
        <pt x="414" y="64" on="0"/>
        <pt x="414" y="151" on="1"/>
        <pt x="414" y="492" on="1"/>
        <pt x="414" y="579" on="0"/>
        <pt x="330" y="579" on="1"/>
        <pt x="162" y="579" on="1"/>
        <pt x="152" y="579" on="0"/>
        <pt x="152" y="570" on="1"/>
        <pt x="152" y="73" on="1"/>
        <pt x="152" y="64" on="0"/>
      </contour>
      <contour>
        <pt x="79" y="14" on="1"/>
        <pt x="79" y="629" on="1"/>
        <pt x="79" y="643" on="0"/>
        <pt x="93" y="643" on="1"/>
        <pt x="339" y="643" on="1"/>
        <pt x="408" y="643" on="0"/>
        <pt x="487" y="564" on="0"/>
        <pt x="487" y="495" on="1"/>
        <pt x="487" y="148" on="1"/>
        <pt x="487" y="79" on="0"/>
        <pt x="408" y="0" on="0"/>
        <pt x="339" y="0" on="1"/>
        <pt x="93" y="0" on="1"/>
        <pt x="79" y="0" on="0"/>
      </contour>
    </TTGlyph>
    <TTGlyph name="Dcaron" xMin="79" yMin="0" xMax="487" yMax="836">
      <contour>
        <pt x="258" y="707" on="1"/>
        <pt x="244" y="707" on="0"/>
        <pt x="237" y="717" on="1"/>
        <pt x="174" y="824" on="1"/>
        <pt x="167" y="836" on="0"/>
        <pt x="180" y="836" on="1"/>
        <pt x="213" y="836" on="1"/>
        <pt x="223" y="836" on="0"/>
        <pt x="227" y="828" on="1"/>
        <pt x="274" y="740" on="1"/>
        <pt x="322" y="828" on="1"/>
        <pt x="326" y="836" on="0"/>
        <pt x="336" y="836" on="1"/>
        <pt x="370" y="836" on="1"/>
        <pt x="382" y="836" on="0"/>
        <pt x="375" y="824" on="1"/>
        <pt x="312" y="717" on="1"/>
        <pt x="305" y="707" on="0"/>
        <pt x="292" y="707" on="1"/>
      </contour>
      <contour>
        <pt x="162" y="64" on="1"/>
        <pt x="330" y="64" on="1"/>
        <pt x="414" y="64" on="0"/>
        <pt x="414" y="151" on="1"/>
        <pt x="414" y="492" on="1"/>
        <pt x="414" y="579" on="0"/>
        <pt x="330" y="579" on="1"/>
        <pt x="162" y="579" on="1"/>
        <pt x="152" y="579" on="0"/>
        <pt x="152" y="570" on="1"/>
        <pt x="152" y="73" on="1"/>
        <pt x="152" y="64" on="0"/>
      </contour>
      <contour>
        <pt x="79" y="14" on="1"/>
        <pt x="79" y="629" on="1"/>
        <pt x="79" y="643" on="0"/>
        <pt x="93" y="643" on="1"/>
        <pt x="339" y="643" on="1"/>
        <pt x="408" y="643" on="0"/>
        <pt x="487" y="564" on="0"/>
        <pt x="487" y="495" on="1"/>
        <pt x="487" y="148" on="1"/>
        <pt x="487" y="79" on="0"/>
        <pt x="408" y="0" on="0"/>
        <pt x="339" y="0" on="1"/>
        <pt x="93" y="0" on="1"/>
        <pt x="79" y="0" on="0"/>
      </contour>
    </TTGlyph>
    <TTGlyph name="Dcroat" xMin="24" yMin="0" xMax="493" yMax="643">
      <contour>
        <pt x="168" y="64" on="1"/>
        <pt x="336" y="64" on="1"/>
        <pt x="420" y="64" on="0"/>
        <pt x="420" y="151" on="1"/>
        <pt x="420" y="492" on="1"/>
        <pt x="420" y="579" on="0"/>
        <pt x="336" y="579" on="1"/>
        <pt x="168" y="579" on="1"/>
        <pt x="158" y="579" on="0"/>
        <pt x="158" y="570" on="1"/>
        <pt x="158" y="405" on="1"/>
        <pt x="158" y="395" on="0"/>
        <pt x="168" y="395" on="1"/>
        <pt x="294" y="395" on="1"/>
        <pt x="308" y="395" on="0"/>
        <pt x="308" y="382" on="1"/>
        <pt x="308" y="352" on="1"/>
        <pt x="308" y="339" on="0"/>
        <pt x="294" y="339" on="1"/>
        <pt x="168" y="339" on="1"/>
        <pt x="158" y="339" on="0"/>
        <pt x="158" y="329" on="1"/>
        <pt x="158" y="73" on="1"/>
        <pt x="158" y="64" on="0"/>
      </contour>
      <contour>
        <pt x="345" y="0" on="1"/>
        <pt x="99" y="0" on="1"/>
        <pt x="85" y="0" on="0"/>
        <pt x="85" y="14" on="1"/>
        <pt x="85" y="329" on="1"/>
        <pt x="85" y="339" on="0"/>
        <pt x="75" y="339" on="1"/>
        <pt x="38" y="339" on="1"/>
        <pt x="24" y="339" on="0"/>
        <pt x="24" y="352" on="1"/>
        <pt x="24" y="382" on="1"/>
        <pt x="24" y="395" on="0"/>
        <pt x="38" y="395" on="1"/>
        <pt x="75" y="395" on="1"/>
        <pt x="85" y="395" on="0"/>
        <pt x="85" y="405" on="1"/>
        <pt x="85" y="629" on="1"/>
        <pt x="85" y="643" on="0"/>
        <pt x="99" y="643" on="1"/>
        <pt x="345" y="643" on="1"/>
        <pt x="414" y="643" on="0"/>
        <pt x="493" y="565" on="0"/>
        <pt x="493" y="495" on="1"/>
        <pt x="493" y="148" on="1"/>
        <pt x="493" y="78" on="0"/>
        <pt x="414" y="0" on="0"/>
      </contour>
    </TTGlyph>
    <TTGlyph name="E" xMin="79" yMin="0" xMax="421" yMax="643">
      <contour>
        <pt x="407" y="0" on="1"/>
        <pt x="93" y="0" on="1"/>
        <pt x="79" y="0" on="0"/>
        <pt x="79" y="14" on="1"/>
        <pt x="79" y="629" on="1"/>
        <pt x="79" y="643" on="0"/>
        <pt x="93" y="643" on="1"/>
        <pt x="407" y="643" on="1"/>
        <pt x="421" y="643" on="0"/>
        <pt x="421" y="629" on="1"/>
        <pt x="421" y="593" on="1"/>
        <pt x="421" y="579" on="0"/>
        <pt x="407" y="579" on="1"/>
        <pt x="162" y="579" on="1"/>
        <pt x="152" y="579" on="0"/>
        <pt x="152" y="570" on="1"/>
        <pt x="152" y="368" on="1"/>
        <pt x="152" y="359" on="0"/>
        <pt x="162" y="359" on="1"/>
        <pt x="376" y="359" on="1"/>
        <pt x="390" y="359" on="0"/>
        <pt x="390" y="345" on="1"/>
        <pt x="390" y="309" on="1"/>
        <pt x="390" y="295" on="0"/>
        <pt x="376" y="295" on="1"/>
        <pt x="162" y="295" on="1"/>
        <pt x="152" y="295" on="0"/>
        <pt x="152" y="286" on="1"/>
        <pt x="152" y="73" on="1"/>
        <pt x="152" y="64" on="0"/>
        <pt x="162" y="64" on="1"/>
        <pt x="407" y="64" on="1"/>
        <pt x="421" y="64" on="0"/>
        <pt x="421" y="50" on="1"/>
        <pt x="421" y="14" on="1"/>
        <pt x="421" y="0" on="0"/>
      </contour>
    </TTGlyph>
    <TTGlyph name="Eacute" xMin="79" yMin="0" xMax="421" yMax="836">
      <contour>
        <pt x="297" y="836" on="1"/>
        <pt x="357" y="836" on="1"/>
        <pt x="364" y="836" on="0"/>
        <pt x="368" y="828" on="0"/>
        <pt x="364" y="822" on="1"/>
        <pt x="276" y="717" on="1"/>
        <pt x="268" y="707" on="0"/>
        <pt x="257" y="707" on="1"/>
        <pt x="224" y="707" on="1"/>
        <pt x="210" y="707" on="0"/>
        <pt x="218" y="721" on="1"/>
        <pt x="275" y="823" on="1"/>
        <pt x="282" y="836" on="0"/>
      </contour>
      <contour>
        <pt x="407" y="0" on="1"/>
        <pt x="93" y="0" on="1"/>
        <pt x="79" y="0" on="0"/>
        <pt x="79" y="14" on="1"/>
        <pt x="79" y="629" on="1"/>
        <pt x="79" y="643" on="0"/>
        <pt x="93" y="643" on="1"/>
        <pt x="407" y="643" on="1"/>
        <pt x="421" y="643" on="0"/>
        <pt x="421" y="629" on="1"/>
        <pt x="421" y="593" on="1"/>
        <pt x="421" y="579" on="0"/>
        <pt x="407" y="579" on="1"/>
        <pt x="162" y="579" on="1"/>
        <pt x="152" y="579" on="0"/>
        <pt x="152" y="570" on="1"/>
        <pt x="152" y="368" on="1"/>
        <pt x="152" y="359" on="0"/>
        <pt x="162" y="359" on="1"/>
        <pt x="376" y="359" on="1"/>
        <pt x="390" y="359" on="0"/>
        <pt x="390" y="345" on="1"/>
        <pt x="390" y="309" on="1"/>
        <pt x="390" y="295" on="0"/>
        <pt x="376" y="295" on="1"/>
        <pt x="162" y="295" on="1"/>
        <pt x="152" y="295" on="0"/>
        <pt x="152" y="286" on="1"/>
        <pt x="152" y="73" on="1"/>
        <pt x="152" y="64" on="0"/>
        <pt x="162" y="64" on="1"/>
        <pt x="407" y="64" on="1"/>
        <pt x="421" y="64" on="0"/>
        <pt x="421" y="50" on="1"/>
        <pt x="421" y="14" on="1"/>
        <pt x="421" y="0" on="0"/>
      </contour>
    </TTGlyph>
    <TTGlyph name="Ebreve" xMin="79" yMin="0" xMax="421" yMax="836">
      <contour>
        <pt x="141" y="825" on="1"/>
        <pt x="141" y="836" on="0"/>
        <pt x="152" y="836" on="1"/>
        <pt x="180" y="836" on="1"/>
        <pt x="190" y="836" on="0"/>
        <pt x="190" y="825" on="1"/>
        <pt x="190" y="815" on="1"/>
        <pt x="190" y="778" on="0"/>
        <pt x="214" y="747" on="0"/>
        <pt x="243" y="747" on="1"/>
        <pt x="248" y="747" on="1"/>
        <pt x="278" y="747" on="0"/>
        <pt x="303" y="778" on="0"/>
        <pt x="303" y="815" on="1"/>
        <pt x="303" y="825" on="1"/>
        <pt x="303" y="835" on="0"/>
        <pt x="313" y="835" on="1"/>
        <pt x="339" y="835" on="1"/>
        <pt x="350" y="835" on="0"/>
        <pt x="350" y="825" on="1"/>
        <pt x="350" y="813" on="1"/>
        <pt x="350" y="707" on="0"/>
        <pt x="254" y="707" on="1"/>
        <pt x="237" y="707" on="1"/>
        <pt x="141" y="707" on="0"/>
        <pt x="141" y="813" on="1"/>
      </contour>
      <contour>
        <pt x="407" y="0" on="1"/>
        <pt x="93" y="0" on="1"/>
        <pt x="79" y="0" on="0"/>
        <pt x="79" y="14" on="1"/>
        <pt x="79" y="629" on="1"/>
        <pt x="79" y="643" on="0"/>
        <pt x="93" y="643" on="1"/>
        <pt x="407" y="643" on="1"/>
        <pt x="421" y="643" on="0"/>
        <pt x="421" y="629" on="1"/>
        <pt x="421" y="593" on="1"/>
        <pt x="421" y="579" on="0"/>
        <pt x="407" y="579" on="1"/>
        <pt x="162" y="579" on="1"/>
        <pt x="152" y="579" on="0"/>
        <pt x="152" y="570" on="1"/>
        <pt x="152" y="368" on="1"/>
        <pt x="152" y="359" on="0"/>
        <pt x="162" y="359" on="1"/>
        <pt x="376" y="359" on="1"/>
        <pt x="390" y="359" on="0"/>
        <pt x="390" y="345" on="1"/>
        <pt x="390" y="309" on="1"/>
        <pt x="390" y="295" on="0"/>
        <pt x="376" y="295" on="1"/>
        <pt x="162" y="295" on="1"/>
        <pt x="152" y="295" on="0"/>
        <pt x="152" y="286" on="1"/>
        <pt x="152" y="73" on="1"/>
        <pt x="152" y="64" on="0"/>
        <pt x="162" y="64" on="1"/>
        <pt x="407" y="64" on="1"/>
        <pt x="421" y="64" on="0"/>
        <pt x="421" y="50" on="1"/>
        <pt x="421" y="14" on="1"/>
        <pt x="421" y="0" on="0"/>
      </contour>
    </TTGlyph>
    <TTGlyph name="Ecaron" xMin="79" yMin="0" xMax="421" yMax="836">
      <contour>
        <pt x="235" y="707" on="1"/>
        <pt x="222" y="707" on="0"/>
        <pt x="215" y="717" on="1"/>
        <pt x="152" y="824" on="1"/>
        <pt x="145" y="836" on="0"/>
        <pt x="158" y="836" on="1"/>
        <pt x="191" y="836" on="1"/>
        <pt x="201" y="836" on="0"/>
        <pt x="205" y="828" on="1"/>
        <pt x="253" y="740" on="1"/>
        <pt x="300" y="828" on="1"/>
        <pt x="304" y="836" on="0"/>
        <pt x="314" y="836" on="1"/>
        <pt x="348" y="836" on="1"/>
        <pt x="360" y="836" on="0"/>
        <pt x="353" y="824" on="1"/>
        <pt x="290" y="717" on="1"/>
        <pt x="283" y="707" on="0"/>
        <pt x="270" y="707" on="1"/>
      </contour>
      <contour>
        <pt x="407" y="0" on="1"/>
        <pt x="93" y="0" on="1"/>
        <pt x="79" y="0" on="0"/>
        <pt x="79" y="14" on="1"/>
        <pt x="79" y="629" on="1"/>
        <pt x="79" y="643" on="0"/>
        <pt x="93" y="643" on="1"/>
        <pt x="407" y="643" on="1"/>
        <pt x="421" y="643" on="0"/>
        <pt x="421" y="629" on="1"/>
        <pt x="421" y="593" on="1"/>
        <pt x="421" y="579" on="0"/>
        <pt x="407" y="579" on="1"/>
        <pt x="162" y="579" on="1"/>
        <pt x="152" y="579" on="0"/>
        <pt x="152" y="570" on="1"/>
        <pt x="152" y="368" on="1"/>
        <pt x="152" y="359" on="0"/>
        <pt x="162" y="359" on="1"/>
        <pt x="376" y="359" on="1"/>
        <pt x="390" y="359" on="0"/>
        <pt x="390" y="345" on="1"/>
        <pt x="390" y="309" on="1"/>
        <pt x="390" y="295" on="0"/>
        <pt x="376" y="295" on="1"/>
        <pt x="162" y="295" on="1"/>
        <pt x="152" y="295" on="0"/>
        <pt x="152" y="286" on="1"/>
        <pt x="152" y="73" on="1"/>
        <pt x="152" y="64" on="0"/>
        <pt x="162" y="64" on="1"/>
        <pt x="407" y="64" on="1"/>
        <pt x="421" y="64" on="0"/>
        <pt x="421" y="50" on="1"/>
        <pt x="421" y="14" on="1"/>
        <pt x="421" y="0" on="0"/>
      </contour>
    </TTGlyph>
    <TTGlyph name="Ecircumflex" xMin="79" yMin="0" xMax="421" yMax="836">
      <contour>
        <pt x="345" y="707" on="1"/>
        <pt x="310" y="707" on="1"/>
        <pt x="300" y="707" on="0"/>
        <pt x="297" y="715" on="1"/>
        <pt x="249" y="803" on="1"/>
        <pt x="202" y="715" on="1"/>
        <pt x="198" y="707" on="0"/>
        <pt x="188" y="707" on="1"/>
        <pt x="154" y="707" on="1"/>
        <pt x="141" y="707" on="0"/>
        <pt x="148" y="719" on="1"/>
        <pt x="212" y="826" on="1"/>
        <pt x="219" y="836" on="0"/>
        <pt x="232" y="836" on="1"/>
        <pt x="266" y="836" on="1"/>
        <pt x="280" y="836" on="0"/>
        <pt x="287" y="826" on="1"/>
        <pt x="350" y="719" on="1"/>
        <pt x="357" y="707" on="0"/>
      </contour>
      <contour>
        <pt x="407" y="0" on="1"/>
        <pt x="93" y="0" on="1"/>
        <pt x="79" y="0" on="0"/>
        <pt x="79" y="14" on="1"/>
        <pt x="79" y="629" on="1"/>
        <pt x="79" y="643" on="0"/>
        <pt x="93" y="643" on="1"/>
        <pt x="407" y="643" on="1"/>
        <pt x="421" y="643" on="0"/>
        <pt x="421" y="629" on="1"/>
        <pt x="421" y="593" on="1"/>
        <pt x="421" y="579" on="0"/>
        <pt x="407" y="579" on="1"/>
        <pt x="162" y="579" on="1"/>
        <pt x="152" y="579" on="0"/>
        <pt x="152" y="570" on="1"/>
        <pt x="152" y="368" on="1"/>
        <pt x="152" y="359" on="0"/>
        <pt x="162" y="359" on="1"/>
        <pt x="376" y="359" on="1"/>
        <pt x="390" y="359" on="0"/>
        <pt x="390" y="345" on="1"/>
        <pt x="390" y="309" on="1"/>
        <pt x="390" y="295" on="0"/>
        <pt x="376" y="295" on="1"/>
        <pt x="162" y="295" on="1"/>
        <pt x="152" y="295" on="0"/>
        <pt x="152" y="286" on="1"/>
        <pt x="152" y="73" on="1"/>
        <pt x="152" y="64" on="0"/>
        <pt x="162" y="64" on="1"/>
        <pt x="407" y="64" on="1"/>
        <pt x="421" y="64" on="0"/>
        <pt x="421" y="50" on="1"/>
        <pt x="421" y="14" on="1"/>
        <pt x="421" y="0" on="0"/>
      </contour>
    </TTGlyph>
    <TTGlyph name="Edieresis" xMin="79" yMin="0" xMax="421" yMax="836">
      <contour>
        <pt x="130" y="721" on="1"/>
        <pt x="130" y="822" on="1"/>
        <pt x="130" y="836" on="0"/>
        <pt x="143" y="836" on="1"/>
        <pt x="186" y="836" on="1"/>
        <pt x="199" y="836" on="0"/>
        <pt x="199" y="823" on="1"/>
        <pt x="199" y="721" on="1"/>
        <pt x="199" y="707" on="0"/>
        <pt x="186" y="707" on="1"/>
        <pt x="143" y="707" on="1"/>
        <pt x="130" y="707" on="0"/>
      </contour>
      <contour>
        <pt x="301" y="721" on="1"/>
        <pt x="301" y="822" on="1"/>
        <pt x="301" y="836" on="0"/>
        <pt x="314" y="836" on="1"/>
        <pt x="357" y="836" on="1"/>
        <pt x="370" y="836" on="0"/>
        <pt x="370" y="823" on="1"/>
        <pt x="370" y="721" on="1"/>
        <pt x="370" y="707" on="0"/>
        <pt x="357" y="707" on="1"/>
        <pt x="314" y="707" on="1"/>
        <pt x="301" y="707" on="0"/>
      </contour>
      <contour>
        <pt x="407" y="0" on="1"/>
        <pt x="93" y="0" on="1"/>
        <pt x="79" y="0" on="0"/>
        <pt x="79" y="14" on="1"/>
        <pt x="79" y="629" on="1"/>
        <pt x="79" y="643" on="0"/>
        <pt x="93" y="643" on="1"/>
        <pt x="407" y="643" on="1"/>
        <pt x="421" y="643" on="0"/>
        <pt x="421" y="629" on="1"/>
        <pt x="421" y="593" on="1"/>
        <pt x="421" y="579" on="0"/>
        <pt x="407" y="579" on="1"/>
        <pt x="162" y="579" on="1"/>
        <pt x="152" y="579" on="0"/>
        <pt x="152" y="570" on="1"/>
        <pt x="152" y="368" on="1"/>
        <pt x="152" y="359" on="0"/>
        <pt x="162" y="359" on="1"/>
        <pt x="376" y="359" on="1"/>
        <pt x="390" y="359" on="0"/>
        <pt x="390" y="345" on="1"/>
        <pt x="390" y="309" on="1"/>
        <pt x="390" y="295" on="0"/>
        <pt x="376" y="295" on="1"/>
        <pt x="162" y="295" on="1"/>
        <pt x="152" y="295" on="0"/>
        <pt x="152" y="286" on="1"/>
        <pt x="152" y="73" on="1"/>
        <pt x="152" y="64" on="0"/>
        <pt x="162" y="64" on="1"/>
        <pt x="407" y="64" on="1"/>
        <pt x="421" y="64" on="0"/>
        <pt x="421" y="50" on="1"/>
        <pt x="421" y="14" on="1"/>
        <pt x="421" y="0" on="0"/>
      </contour>
    </TTGlyph>
    <TTGlyph name="Edotaccent" xMin="79" yMin="0" xMax="421" yMax="836">
      <contour>
        <pt x="213" y="725" on="1"/>
        <pt x="213" y="822" on="1"/>
        <pt x="213" y="836" on="0"/>
        <pt x="227" y="836" on="1"/>
        <pt x="273" y="836" on="1"/>
        <pt x="286" y="836" on="0"/>
        <pt x="286" y="822" on="1"/>
        <pt x="286" y="725" on="1"/>
        <pt x="286" y="711" on="0"/>
        <pt x="273" y="711" on="1"/>
        <pt x="227" y="711" on="1"/>
        <pt x="213" y="711" on="0"/>
      </contour>
      <contour>
        <pt x="407" y="0" on="1"/>
        <pt x="93" y="0" on="1"/>
        <pt x="79" y="0" on="0"/>
        <pt x="79" y="14" on="1"/>
        <pt x="79" y="629" on="1"/>
        <pt x="79" y="643" on="0"/>
        <pt x="93" y="643" on="1"/>
        <pt x="407" y="643" on="1"/>
        <pt x="421" y="643" on="0"/>
        <pt x="421" y="629" on="1"/>
        <pt x="421" y="593" on="1"/>
        <pt x="421" y="579" on="0"/>
        <pt x="407" y="579" on="1"/>
        <pt x="162" y="579" on="1"/>
        <pt x="152" y="579" on="0"/>
        <pt x="152" y="570" on="1"/>
        <pt x="152" y="368" on="1"/>
        <pt x="152" y="359" on="0"/>
        <pt x="162" y="359" on="1"/>
        <pt x="376" y="359" on="1"/>
        <pt x="390" y="359" on="0"/>
        <pt x="390" y="345" on="1"/>
        <pt x="390" y="309" on="1"/>
        <pt x="390" y="295" on="0"/>
        <pt x="376" y="295" on="1"/>
        <pt x="162" y="295" on="1"/>
        <pt x="152" y="295" on="0"/>
        <pt x="152" y="286" on="1"/>
        <pt x="152" y="73" on="1"/>
        <pt x="152" y="64" on="0"/>
        <pt x="162" y="64" on="1"/>
        <pt x="407" y="64" on="1"/>
        <pt x="421" y="64" on="0"/>
        <pt x="421" y="50" on="1"/>
        <pt x="421" y="14" on="1"/>
        <pt x="421" y="0" on="0"/>
      </contour>
    </TTGlyph>
    <TTGlyph name="Egrave" xMin="79" yMin="0" xMax="421" yMax="836">
      <contour>
        <pt x="273" y="707" on="1"/>
        <pt x="240" y="707" on="1"/>
        <pt x="228" y="707" on="0"/>
        <pt x="220" y="717" on="1"/>
        <pt x="133" y="822" on="1"/>
        <pt x="129" y="828" on="0"/>
        <pt x="133" y="836" on="0"/>
        <pt x="140" y="836" on="1"/>
        <pt x="200" y="836" on="1"/>
        <pt x="215" y="836" on="0"/>
        <pt x="221" y="823" on="1"/>
        <pt x="279" y="721" on="1"/>
        <pt x="287" y="707" on="0"/>
      </contour>
      <contour>
        <pt x="407" y="0" on="1"/>
        <pt x="93" y="0" on="1"/>
        <pt x="79" y="0" on="0"/>
        <pt x="79" y="14" on="1"/>
        <pt x="79" y="629" on="1"/>
        <pt x="79" y="643" on="0"/>
        <pt x="93" y="643" on="1"/>
        <pt x="407" y="643" on="1"/>
        <pt x="421" y="643" on="0"/>
        <pt x="421" y="629" on="1"/>
        <pt x="421" y="593" on="1"/>
        <pt x="421" y="579" on="0"/>
        <pt x="407" y="579" on="1"/>
        <pt x="162" y="579" on="1"/>
        <pt x="152" y="579" on="0"/>
        <pt x="152" y="570" on="1"/>
        <pt x="152" y="368" on="1"/>
        <pt x="152" y="359" on="0"/>
        <pt x="162" y="359" on="1"/>
        <pt x="376" y="359" on="1"/>
        <pt x="390" y="359" on="0"/>
        <pt x="390" y="345" on="1"/>
        <pt x="390" y="309" on="1"/>
        <pt x="390" y="295" on="0"/>
        <pt x="376" y="295" on="1"/>
        <pt x="162" y="295" on="1"/>
        <pt x="152" y="295" on="0"/>
        <pt x="152" y="286" on="1"/>
        <pt x="152" y="73" on="1"/>
        <pt x="152" y="64" on="0"/>
        <pt x="162" y="64" on="1"/>
        <pt x="407" y="64" on="1"/>
        <pt x="421" y="64" on="0"/>
        <pt x="421" y="50" on="1"/>
        <pt x="421" y="14" on="1"/>
        <pt x="421" y="0" on="0"/>
      </contour>
    </TTGlyph>
    <TTGlyph name="Emacron" xMin="79" yMin="0" xMax="421" yMax="800">
      <contour>
        <pt x="350" y="746" on="1"/>
        <pt x="149" y="746" on="1"/>
        <pt x="135" y="746" on="0"/>
        <pt x="135" y="760" on="1"/>
        <pt x="135" y="786" on="1"/>
        <pt x="135" y="800" on="0"/>
        <pt x="149" y="800" on="1"/>
        <pt x="350" y="800" on="1"/>
        <pt x="364" y="800" on="0"/>
        <pt x="364" y="786" on="1"/>
        <pt x="364" y="760" on="1"/>
        <pt x="364" y="746" on="0"/>
      </contour>
      <contour>
        <pt x="407" y="0" on="1"/>
        <pt x="93" y="0" on="1"/>
        <pt x="79" y="0" on="0"/>
        <pt x="79" y="14" on="1"/>
        <pt x="79" y="629" on="1"/>
        <pt x="79" y="643" on="0"/>
        <pt x="93" y="643" on="1"/>
        <pt x="407" y="643" on="1"/>
        <pt x="421" y="643" on="0"/>
        <pt x="421" y="629" on="1"/>
        <pt x="421" y="593" on="1"/>
        <pt x="421" y="579" on="0"/>
        <pt x="407" y="579" on="1"/>
        <pt x="162" y="579" on="1"/>
        <pt x="152" y="579" on="0"/>
        <pt x="152" y="570" on="1"/>
        <pt x="152" y="368" on="1"/>
        <pt x="152" y="359" on="0"/>
        <pt x="162" y="359" on="1"/>
        <pt x="376" y="359" on="1"/>
        <pt x="390" y="359" on="0"/>
        <pt x="390" y="345" on="1"/>
        <pt x="390" y="309" on="1"/>
        <pt x="390" y="295" on="0"/>
        <pt x="376" y="295" on="1"/>
        <pt x="162" y="295" on="1"/>
        <pt x="152" y="295" on="0"/>
        <pt x="152" y="286" on="1"/>
        <pt x="152" y="73" on="1"/>
        <pt x="152" y="64" on="0"/>
        <pt x="162" y="64" on="1"/>
        <pt x="407" y="64" on="1"/>
        <pt x="421" y="64" on="0"/>
        <pt x="421" y="50" on="1"/>
        <pt x="421" y="14" on="1"/>
        <pt x="421" y="0" on="0"/>
      </contour>
    </TTGlyph>
    <TTGlyph name="Eng" xMin="83" yMin="-150" xMax="506" yMax="643">
      <contour>
        <pt x="358" y="-150" on="1"/>
        <pt x="317" y="-150" on="1"/>
        <pt x="303" y="-150" on="0"/>
        <pt x="303" y="-136" on="1"/>
        <pt x="303" y="-100" on="1"/>
        <pt x="303" y="-86" on="0"/>
        <pt x="317" y="-86" on="1"/>
        <pt x="340" y="-86" on="1"/>
        <pt x="388" y="-86" on="0"/>
        <pt x="432" y="-40" on="0"/>
        <pt x="432" y="9" on="1"/>
        <pt x="432" y="13" on="1"/>
        <pt x="402" y="64" on="0"/>
        <pt x="198" y="428" on="0"/>
        <pt x="159" y="493" on="1"/>
        <pt x="155" y="493" on="1"/>
        <pt x="155" y="14" on="1"/>
        <pt x="155" y="0" on="0"/>
        <pt x="141" y="0" on="1"/>
        <pt x="96" y="0" on="1"/>
        <pt x="83" y="0" on="0"/>
        <pt x="83" y="14" on="1"/>
        <pt x="83" y="629" on="1"/>
        <pt x="83" y="643" on="0"/>
        <pt x="96" y="643" on="1"/>
        <pt x="138" y="643" on="1"/>
        <pt x="150" y="643" on="0"/>
        <pt x="154" y="635" on="1"/>
        <pt x="429" y="150" on="1"/>
        <pt x="433" y="150" on="1"/>
        <pt x="433" y="629" on="1"/>
        <pt x="433" y="643" on="0"/>
        <pt x="447" y="643" on="1"/>
        <pt x="492" y="643" on="1"/>
        <pt x="506" y="643" on="0"/>
        <pt x="506" y="629" on="1"/>
        <pt x="506" y="-2" on="1"/>
        <pt x="506" y="-71" on="0"/>
        <pt x="426" y="-150" on="0"/>
      </contour>
    </TTGlyph>
    <TTGlyph name="Eogonek" xMin="79" yMin="-111" xMax="421" yMax="643">
      <contour>
        <pt x="407" y="579" on="1"/>
        <pt x="162" y="579" on="1"/>
        <pt x="152" y="579" on="0"/>
        <pt x="152" y="570" on="1"/>
        <pt x="152" y="368" on="1"/>
        <pt x="152" y="359" on="0"/>
        <pt x="162" y="359" on="1"/>
        <pt x="376" y="359" on="1"/>
        <pt x="390" y="359" on="0"/>
        <pt x="390" y="345" on="1"/>
        <pt x="390" y="309" on="1"/>
        <pt x="390" y="295" on="0"/>
        <pt x="376" y="295" on="1"/>
        <pt x="162" y="295" on="1"/>
        <pt x="152" y="295" on="0"/>
        <pt x="152" y="286" on="1"/>
        <pt x="152" y="73" on="1"/>
        <pt x="152" y="64" on="0"/>
        <pt x="162" y="64" on="1"/>
        <pt x="407" y="64" on="1"/>
        <pt x="421" y="64" on="0"/>
        <pt x="421" y="50" on="1"/>
        <pt x="421" y="14" on="1"/>
        <pt x="421" y="0" on="0"/>
        <pt x="407" y="0" on="1"/>
        <pt x="359" y="0" on="1"/>
        <pt x="310" y="-67" on="1"/>
        <pt x="350" y="-67" on="1"/>
        <pt x="366" y="-67" on="0"/>
        <pt x="376" y="-73" on="0"/>
        <pt x="376" y="-81" on="1"/>
        <pt x="376" y="-94" on="0"/>
        <pt x="325" y="-111" on="0"/>
        <pt x="270" y="-111" on="0"/>
        <pt x="256" y="-83" on="0"/>
        <pt x="269" y="-67" on="1"/>
        <pt x="317" y="0" on="1"/>
        <pt x="93" y="0" on="1"/>
        <pt x="79" y="0" on="0"/>
        <pt x="79" y="14" on="1"/>
        <pt x="79" y="629" on="1"/>
        <pt x="79" y="643" on="0"/>
        <pt x="93" y="643" on="1"/>
        <pt x="407" y="643" on="1"/>
        <pt x="421" y="643" on="0"/>
        <pt x="421" y="629" on="1"/>
        <pt x="421" y="593" on="1"/>
        <pt x="421" y="579" on="0"/>
      </contour>
    </TTGlyph>
    <TTGlyph name="Eth" xMin="24" yMin="0" xMax="493" yMax="643">
      <contour>
        <pt x="168" y="64" on="1"/>
        <pt x="336" y="64" on="1"/>
        <pt x="420" y="64" on="0"/>
        <pt x="420" y="151" on="1"/>
        <pt x="420" y="492" on="1"/>
        <pt x="420" y="579" on="0"/>
        <pt x="336" y="579" on="1"/>
        <pt x="168" y="579" on="1"/>
        <pt x="158" y="579" on="0"/>
        <pt x="158" y="570" on="1"/>
        <pt x="158" y="362" on="1"/>
        <pt x="158" y="353" on="0"/>
        <pt x="168" y="353" on="1"/>
        <pt x="294" y="353" on="1"/>
        <pt x="308" y="353" on="0"/>
        <pt x="308" y="339" on="1"/>
        <pt x="308" y="309" on="1"/>
        <pt x="308" y="296" on="0"/>
        <pt x="294" y="296" on="1"/>
        <pt x="168" y="296" on="1"/>
        <pt x="158" y="296" on="0"/>
        <pt x="158" y="286" on="1"/>
        <pt x="158" y="73" on="1"/>
        <pt x="158" y="64" on="0"/>
      </contour>
      <contour>
        <pt x="345" y="0" on="1"/>
        <pt x="99" y="0" on="1"/>
        <pt x="85" y="0" on="0"/>
        <pt x="85" y="14" on="1"/>
        <pt x="85" y="286" on="1"/>
        <pt x="85" y="296" on="0"/>
        <pt x="75" y="296" on="1"/>
        <pt x="38" y="296" on="1"/>
        <pt x="24" y="296" on="0"/>
        <pt x="24" y="309" on="1"/>
        <pt x="24" y="339" on="1"/>
        <pt x="24" y="353" on="0"/>
        <pt x="38" y="353" on="1"/>
        <pt x="75" y="353" on="1"/>
        <pt x="85" y="353" on="0"/>
        <pt x="85" y="362" on="1"/>
        <pt x="85" y="629" on="1"/>
        <pt x="85" y="643" on="0"/>
        <pt x="99" y="643" on="1"/>
        <pt x="345" y="643" on="1"/>
        <pt x="414" y="643" on="0"/>
        <pt x="493" y="565" on="0"/>
        <pt x="493" y="495" on="1"/>
        <pt x="493" y="148" on="1"/>
        <pt x="493" y="78" on="0"/>
        <pt x="414" y="0" on="0"/>
      </contour>
    </TTGlyph>
    <TTGlyph name="Euro" xMin="33" yMin="0" xMax="464" yMax="643">
      <contour>
        <pt x="316" y="0" on="1"/>
        <pt x="251" y="0" on="1"/>
        <pt x="182" y="0" on="0"/>
        <pt x="103" y="77" on="0"/>
        <pt x="103" y="146" on="1"/>
        <pt x="103" y="231" on="1"/>
        <pt x="48" y="231" on="1"/>
        <pt x="33" y="231" on="0"/>
        <pt x="33" y="246" on="1"/>
        <pt x="33" y="269" on="1"/>
        <pt x="33" y="284" on="0"/>
        <pt x="48" y="284" on="1"/>
        <pt x="103" y="284" on="1"/>
        <pt x="103" y="355" on="1"/>
        <pt x="48" y="355" on="1"/>
        <pt x="33" y="355" on="0"/>
        <pt x="33" y="370" on="1"/>
        <pt x="33" y="393" on="1"/>
        <pt x="33" y="408" on="0"/>
        <pt x="48" y="408" on="1"/>
        <pt x="103" y="408" on="1"/>
        <pt x="103" y="497" on="1"/>
        <pt x="103" y="566" on="0"/>
        <pt x="182" y="643" on="0"/>
        <pt x="251" y="643" on="1"/>
        <pt x="316" y="643" on="1"/>
        <pt x="385" y="643" on="0"/>
        <pt x="464" y="566" on="0"/>
        <pt x="464" y="497" on="1"/>
        <pt x="464" y="472" on="1"/>
        <pt x="464" y="458" on="0"/>
        <pt x="450" y="458" on="1"/>
        <pt x="405" y="458" on="1"/>
        <pt x="391" y="458" on="0"/>
        <pt x="391" y="472" on="1"/>
        <pt x="391" y="496" on="1"/>
        <pt x="391" y="581" on="0"/>
        <pt x="307" y="581" on="1"/>
        <pt x="260" y="581" on="1"/>
        <pt x="175" y="581" on="0"/>
        <pt x="175" y="496" on="1"/>
        <pt x="175" y="408" on="1"/>
        <pt x="314" y="408" on="1"/>
        <pt x="329" y="408" on="0"/>
        <pt x="329" y="393" on="1"/>
        <pt x="329" y="370" on="1"/>
        <pt x="329" y="355" on="0"/>
        <pt x="314" y="355" on="1"/>
        <pt x="175" y="355" on="1"/>
        <pt x="175" y="284" on="1"/>
        <pt x="314" y="284" on="1"/>
        <pt x="329" y="284" on="0"/>
        <pt x="329" y="269" on="1"/>
        <pt x="329" y="246" on="1"/>
        <pt x="329" y="231" on="0"/>
        <pt x="314" y="231" on="1"/>
        <pt x="175" y="231" on="1"/>
        <pt x="175" y="147" on="1"/>
        <pt x="175" y="62" on="0"/>
        <pt x="260" y="62" on="1"/>
        <pt x="307" y="62" on="1"/>
        <pt x="391" y="62" on="0"/>
        <pt x="391" y="147" on="1"/>
        <pt x="391" y="171" on="1"/>
        <pt x="391" y="185" on="0"/>
        <pt x="405" y="185" on="1"/>
        <pt x="450" y="185" on="1"/>
        <pt x="464" y="185" on="0"/>
        <pt x="464" y="171" on="1"/>
        <pt x="464" y="146" on="1"/>
        <pt x="464" y="77" on="0"/>
        <pt x="385" y="0" on="0"/>
      </contour>
    </TTGlyph>
    <TTGlyph name="F" xMin="79" yMin="0" xMax="418" yMax="643">
      <contour>
        <pt x="138" y="0" on="1"/>
        <pt x="93" y="0" on="1"/>
        <pt x="79" y="0" on="0"/>
        <pt x="79" y="14" on="1"/>
        <pt x="79" y="629" on="1"/>
        <pt x="79" y="643" on="0"/>
        <pt x="93" y="643" on="1"/>
        <pt x="404" y="643" on="1"/>
        <pt x="418" y="643" on="0"/>
        <pt x="418" y="629" on="1"/>
        <pt x="418" y="593" on="1"/>
        <pt x="418" y="579" on="0"/>
        <pt x="404" y="579" on="1"/>
        <pt x="162" y="579" on="1"/>
        <pt x="152" y="579" on="0"/>
        <pt x="152" y="570" on="1"/>
        <pt x="152" y="352" on="1"/>
        <pt x="152" y="343" on="0"/>
        <pt x="162" y="343" on="1"/>
        <pt x="376" y="343" on="1"/>
        <pt x="390" y="343" on="0"/>
        <pt x="390" y="329" on="1"/>
        <pt x="390" y="293" on="1"/>
        <pt x="390" y="279" on="0"/>
        <pt x="376" y="279" on="1"/>
        <pt x="162" y="279" on="1"/>
        <pt x="152" y="279" on="0"/>
        <pt x="152" y="269" on="1"/>
        <pt x="152" y="14" on="1"/>
        <pt x="152" y="0" on="0"/>
      </contour>
    </TTGlyph>
    <TTGlyph name="G" xMin="69" yMin="0" xMax="472" yMax="643">
      <contour>
        <pt x="325" y="0" on="1"/>
        <pt x="217" y="0" on="1"/>
        <pt x="148" y="0" on="0"/>
        <pt x="69" y="78" on="0"/>
        <pt x="69" y="148" on="1"/>
        <pt x="69" y="495" on="1"/>
        <pt x="69" y="565" on="0"/>
        <pt x="148" y="643" on="0"/>
        <pt x="217" y="643" on="1"/>
        <pt x="325" y="643" on="1"/>
        <pt x="394" y="643" on="0"/>
        <pt x="472" y="564" on="0"/>
        <pt x="472" y="495" on="1"/>
        <pt x="472" y="454" on="1"/>
        <pt x="472" y="439" on="0"/>
        <pt x="458" y="439" on="1"/>
        <pt x="413" y="439" on="1"/>
        <pt x="399" y="439" on="0"/>
        <pt x="399" y="454" on="1"/>
        <pt x="399" y="492" on="1"/>
        <pt x="399" y="579" on="0"/>
        <pt x="316" y="579" on="1"/>
        <pt x="225" y="579" on="1"/>
        <pt x="142" y="579" on="0"/>
        <pt x="142" y="492" on="1"/>
        <pt x="142" y="151" on="1"/>
        <pt x="142" y="64" on="0"/>
        <pt x="225" y="64" on="1"/>
        <pt x="316" y="64" on="1"/>
        <pt x="399" y="64" on="0"/>
        <pt x="399" y="151" on="1"/>
        <pt x="399" y="263" on="1"/>
        <pt x="399" y="273" on="0"/>
        <pt x="390" y="273" on="1"/>
        <pt x="291" y="273" on="1"/>
        <pt x="277" y="273" on="0"/>
        <pt x="277" y="286" on="1"/>
        <pt x="277" y="323" on="1"/>
        <pt x="277" y="337" on="0"/>
        <pt x="291" y="337" on="1"/>
        <pt x="452" y="337" on="1"/>
        <pt x="472" y="337" on="0"/>
        <pt x="472" y="316" on="1"/>
        <pt x="472" y="148" on="1"/>
        <pt x="472" y="78" on="0"/>
        <pt x="394" y="0" on="0"/>
      </contour>
    </TTGlyph>
    <TTGlyph name="Gbreve" xMin="69" yMin="0" xMax="472" yMax="836">
      <contour>
        <pt x="167" y="825" on="1"/>
        <pt x="167" y="836" on="0"/>
        <pt x="177" y="836" on="1"/>
        <pt x="205" y="836" on="1"/>
        <pt x="215" y="836" on="0"/>
        <pt x="215" y="825" on="1"/>
        <pt x="215" y="815" on="1"/>
        <pt x="215" y="778" on="0"/>
        <pt x="239" y="747" on="0"/>
        <pt x="268" y="747" on="1"/>
        <pt x="274" y="747" on="1"/>
        <pt x="303" y="747" on="0"/>
        <pt x="328" y="778" on="0"/>
        <pt x="328" y="815" on="1"/>
        <pt x="328" y="825" on="1"/>
        <pt x="328" y="835" on="0"/>
        <pt x="338" y="835" on="1"/>
        <pt x="364" y="835" on="1"/>
        <pt x="375" y="835" on="0"/>
        <pt x="375" y="825" on="1"/>
        <pt x="375" y="813" on="1"/>
        <pt x="375" y="707" on="0"/>
        <pt x="279" y="707" on="1"/>
        <pt x="262" y="707" on="1"/>
        <pt x="167" y="707" on="0"/>
        <pt x="167" y="813" on="1"/>
      </contour>
      <contour>
        <pt x="325" y="0" on="1"/>
        <pt x="217" y="0" on="1"/>
        <pt x="148" y="0" on="0"/>
        <pt x="69" y="78" on="0"/>
        <pt x="69" y="148" on="1"/>
        <pt x="69" y="495" on="1"/>
        <pt x="69" y="565" on="0"/>
        <pt x="148" y="643" on="0"/>
        <pt x="217" y="643" on="1"/>
        <pt x="325" y="643" on="1"/>
        <pt x="394" y="643" on="0"/>
        <pt x="472" y="564" on="0"/>
        <pt x="472" y="495" on="1"/>
        <pt x="472" y="454" on="1"/>
        <pt x="472" y="439" on="0"/>
        <pt x="458" y="439" on="1"/>
        <pt x="413" y="439" on="1"/>
        <pt x="399" y="439" on="0"/>
        <pt x="399" y="454" on="1"/>
        <pt x="399" y="492" on="1"/>
        <pt x="399" y="579" on="0"/>
        <pt x="316" y="579" on="1"/>
        <pt x="225" y="579" on="1"/>
        <pt x="142" y="579" on="0"/>
        <pt x="142" y="492" on="1"/>
        <pt x="142" y="151" on="1"/>
        <pt x="142" y="64" on="0"/>
        <pt x="225" y="64" on="1"/>
        <pt x="316" y="64" on="1"/>
        <pt x="399" y="64" on="0"/>
        <pt x="399" y="151" on="1"/>
        <pt x="399" y="263" on="1"/>
        <pt x="399" y="273" on="0"/>
        <pt x="390" y="273" on="1"/>
        <pt x="291" y="273" on="1"/>
        <pt x="277" y="273" on="0"/>
        <pt x="277" y="286" on="1"/>
        <pt x="277" y="323" on="1"/>
        <pt x="277" y="337" on="0"/>
        <pt x="291" y="337" on="1"/>
        <pt x="452" y="337" on="1"/>
        <pt x="472" y="337" on="0"/>
        <pt x="472" y="316" on="1"/>
        <pt x="472" y="148" on="1"/>
        <pt x="472" y="78" on="0"/>
        <pt x="394" y="0" on="0"/>
      </contour>
    </TTGlyph>
    <TTGlyph name="Gcircumflex" xMin="69" yMin="0" xMax="472" yMax="836">
      <contour>
        <pt x="367" y="707" on="1"/>
        <pt x="333" y="707" on="1"/>
        <pt x="323" y="707" on="0"/>
        <pt x="319" y="715" on="1"/>
        <pt x="272" y="803" on="1"/>
        <pt x="224" y="715" on="1"/>
        <pt x="221" y="707" on="0"/>
        <pt x="210" y="707" on="1"/>
        <pt x="177" y="707" on="1"/>
        <pt x="164" y="707" on="0"/>
        <pt x="171" y="719" on="1"/>
        <pt x="234" y="826" on="1"/>
        <pt x="241" y="836" on="0"/>
        <pt x="254" y="836" on="1"/>
        <pt x="289" y="836" on="1"/>
        <pt x="302" y="836" on="0"/>
        <pt x="309" y="826" on="1"/>
        <pt x="372" y="719" on="1"/>
        <pt x="379" y="707" on="0"/>
      </contour>
      <contour>
        <pt x="325" y="0" on="1"/>
        <pt x="217" y="0" on="1"/>
        <pt x="148" y="0" on="0"/>
        <pt x="69" y="78" on="0"/>
        <pt x="69" y="148" on="1"/>
        <pt x="69" y="495" on="1"/>
        <pt x="69" y="565" on="0"/>
        <pt x="148" y="643" on="0"/>
        <pt x="217" y="643" on="1"/>
        <pt x="325" y="643" on="1"/>
        <pt x="394" y="643" on="0"/>
        <pt x="472" y="564" on="0"/>
        <pt x="472" y="495" on="1"/>
        <pt x="472" y="454" on="1"/>
        <pt x="472" y="439" on="0"/>
        <pt x="458" y="439" on="1"/>
        <pt x="413" y="439" on="1"/>
        <pt x="399" y="439" on="0"/>
        <pt x="399" y="454" on="1"/>
        <pt x="399" y="492" on="1"/>
        <pt x="399" y="579" on="0"/>
        <pt x="316" y="579" on="1"/>
        <pt x="225" y="579" on="1"/>
        <pt x="142" y="579" on="0"/>
        <pt x="142" y="492" on="1"/>
        <pt x="142" y="151" on="1"/>
        <pt x="142" y="64" on="0"/>
        <pt x="225" y="64" on="1"/>
        <pt x="316" y="64" on="1"/>
        <pt x="399" y="64" on="0"/>
        <pt x="399" y="151" on="1"/>
        <pt x="399" y="263" on="1"/>
        <pt x="399" y="273" on="0"/>
        <pt x="390" y="273" on="1"/>
        <pt x="291" y="273" on="1"/>
        <pt x="277" y="273" on="0"/>
        <pt x="277" y="286" on="1"/>
        <pt x="277" y="323" on="1"/>
        <pt x="277" y="337" on="0"/>
        <pt x="291" y="337" on="1"/>
        <pt x="452" y="337" on="1"/>
        <pt x="472" y="337" on="0"/>
        <pt x="472" y="316" on="1"/>
        <pt x="472" y="148" on="1"/>
        <pt x="472" y="78" on="0"/>
        <pt x="394" y="0" on="0"/>
      </contour>
    </TTGlyph>
    <TTGlyph name="Gdotaccent" xMin="69" yMin="0" xMax="472" yMax="836">
      <contour>
        <pt x="234" y="725" on="1"/>
        <pt x="234" y="822" on="1"/>
        <pt x="234" y="836" on="0"/>
        <pt x="247" y="836" on="1"/>
        <pt x="293" y="836" on="1"/>
        <pt x="306" y="836" on="0"/>
        <pt x="306" y="822" on="1"/>
        <pt x="306" y="725" on="1"/>
        <pt x="306" y="711" on="0"/>
        <pt x="293" y="711" on="1"/>
        <pt x="247" y="711" on="1"/>
        <pt x="234" y="711" on="0"/>
      </contour>
      <contour>
        <pt x="325" y="0" on="1"/>
        <pt x="217" y="0" on="1"/>
        <pt x="148" y="0" on="0"/>
        <pt x="69" y="78" on="0"/>
        <pt x="69" y="148" on="1"/>
        <pt x="69" y="495" on="1"/>
        <pt x="69" y="565" on="0"/>
        <pt x="148" y="643" on="0"/>
        <pt x="217" y="643" on="1"/>
        <pt x="325" y="643" on="1"/>
        <pt x="394" y="643" on="0"/>
        <pt x="472" y="564" on="0"/>
        <pt x="472" y="495" on="1"/>
        <pt x="472" y="454" on="1"/>
        <pt x="472" y="439" on="0"/>
        <pt x="458" y="439" on="1"/>
        <pt x="413" y="439" on="1"/>
        <pt x="399" y="439" on="0"/>
        <pt x="399" y="454" on="1"/>
        <pt x="399" y="492" on="1"/>
        <pt x="399" y="579" on="0"/>
        <pt x="316" y="579" on="1"/>
        <pt x="225" y="579" on="1"/>
        <pt x="142" y="579" on="0"/>
        <pt x="142" y="492" on="1"/>
        <pt x="142" y="151" on="1"/>
        <pt x="142" y="64" on="0"/>
        <pt x="225" y="64" on="1"/>
        <pt x="316" y="64" on="1"/>
        <pt x="399" y="64" on="0"/>
        <pt x="399" y="151" on="1"/>
        <pt x="399" y="263" on="1"/>
        <pt x="399" y="273" on="0"/>
        <pt x="390" y="273" on="1"/>
        <pt x="291" y="273" on="1"/>
        <pt x="277" y="273" on="0"/>
        <pt x="277" y="286" on="1"/>
        <pt x="277" y="323" on="1"/>
        <pt x="277" y="337" on="0"/>
        <pt x="291" y="337" on="1"/>
        <pt x="452" y="337" on="1"/>
        <pt x="472" y="337" on="0"/>
        <pt x="472" y="316" on="1"/>
        <pt x="472" y="148" on="1"/>
        <pt x="472" y="78" on="0"/>
        <pt x="394" y="0" on="0"/>
      </contour>
    </TTGlyph>
    <TTGlyph name="H" xMin="79" yMin="0" xMax="493" yMax="643">
      <contour>
        <pt x="138" y="0" on="1"/>
        <pt x="93" y="0" on="1"/>
        <pt x="79" y="0" on="0"/>
        <pt x="79" y="14" on="1"/>
        <pt x="79" y="629" on="1"/>
        <pt x="79" y="643" on="0"/>
        <pt x="93" y="643" on="1"/>
        <pt x="138" y="643" on="1"/>
        <pt x="152" y="643" on="0"/>
        <pt x="152" y="629" on="1"/>
        <pt x="152" y="366" on="1"/>
        <pt x="152" y="357" on="0"/>
        <pt x="162" y="357" on="1"/>
        <pt x="410" y="357" on="1"/>
        <pt x="420" y="357" on="0"/>
        <pt x="420" y="366" on="1"/>
        <pt x="420" y="629" on="1"/>
        <pt x="420" y="643" on="0"/>
        <pt x="434" y="643" on="1"/>
        <pt x="479" y="643" on="1"/>
        <pt x="493" y="643" on="0"/>
        <pt x="493" y="629" on="1"/>
        <pt x="493" y="14" on="1"/>
        <pt x="493" y="0" on="0"/>
        <pt x="479" y="0" on="1"/>
        <pt x="434" y="0" on="1"/>
        <pt x="420" y="0" on="0"/>
        <pt x="420" y="14" on="1"/>
        <pt x="420" y="284" on="1"/>
        <pt x="420" y="293" on="0"/>
        <pt x="410" y="293" on="1"/>
        <pt x="162" y="293" on="1"/>
        <pt x="152" y="293" on="0"/>
        <pt x="152" y="284" on="1"/>
        <pt x="152" y="14" on="1"/>
        <pt x="152" y="0" on="0"/>
      </contour>
    </TTGlyph>
    <TTGlyph name="Hbar" xMin="24" yMin="0" xMax="568" yMax="643">
      <contour>
        <pt x="148" y="0" on="1"/>
        <pt x="103" y="0" on="1"/>
        <pt x="89" y="0" on="0"/>
        <pt x="89" y="14" on="1"/>
        <pt x="89" y="448" on="1"/>
        <pt x="89" y="457" on="0"/>
        <pt x="79" y="457" on="1"/>
        <pt x="38" y="457" on="1"/>
        <pt x="24" y="457" on="0"/>
        <pt x="24" y="471" on="1"/>
        <pt x="24" y="500" on="1"/>
        <pt x="24" y="514" on="0"/>
        <pt x="38" y="514" on="1"/>
        <pt x="79" y="514" on="1"/>
        <pt x="89" y="514" on="0"/>
        <pt x="89" y="524" on="1"/>
        <pt x="89" y="629" on="1"/>
        <pt x="89" y="643" on="0"/>
        <pt x="103" y="643" on="1"/>
        <pt x="148" y="643" on="1"/>
        <pt x="162" y="643" on="0"/>
        <pt x="162" y="629" on="1"/>
        <pt x="162" y="524" on="1"/>
        <pt x="162" y="514" on="0"/>
        <pt x="172" y="514" on="1"/>
        <pt x="420" y="514" on="1"/>
        <pt x="430" y="514" on="0"/>
        <pt x="430" y="523" on="1"/>
        <pt x="430" y="629" on="1"/>
        <pt x="430" y="643" on="0"/>
        <pt x="444" y="643" on="1"/>
        <pt x="488" y="643" on="1"/>
        <pt x="503" y="643" on="0"/>
        <pt x="503" y="629" on="1"/>
        <pt x="503" y="524" on="1"/>
        <pt x="503" y="514" on="0"/>
        <pt x="513" y="514" on="1"/>
        <pt x="554" y="514" on="1"/>
        <pt x="568" y="514" on="0"/>
        <pt x="568" y="500" on="1"/>
        <pt x="568" y="471" on="1"/>
        <pt x="568" y="457" on="0"/>
        <pt x="554" y="457" on="1"/>
        <pt x="513" y="457" on="1"/>
        <pt x="503" y="457" on="0"/>
        <pt x="503" y="448" on="1"/>
        <pt x="503" y="14" on="1"/>
        <pt x="503" y="0" on="0"/>
        <pt x="488" y="0" on="1"/>
        <pt x="444" y="0" on="1"/>
        <pt x="430" y="0" on="0"/>
        <pt x="430" y="14" on="1"/>
        <pt x="430" y="276" on="1"/>
        <pt x="430" y="285" on="0"/>
        <pt x="420" y="285" on="1"/>
        <pt x="172" y="285" on="1"/>
        <pt x="162" y="285" on="0"/>
        <pt x="162" y="276" on="1"/>
        <pt x="162" y="14" on="1"/>
        <pt x="162" y="0" on="0"/>
      </contour>
      <contour>
        <pt x="172" y="349" on="1"/>
        <pt x="420" y="349" on="1"/>
        <pt x="430" y="349" on="0"/>
        <pt x="430" y="359" on="1"/>
        <pt x="430" y="448" on="1"/>
        <pt x="430" y="457" on="0"/>
        <pt x="420" y="457" on="1"/>
        <pt x="172" y="457" on="1"/>
        <pt x="162" y="457" on="0"/>
        <pt x="162" y="448" on="1"/>
        <pt x="162" y="359" on="1"/>
        <pt x="162" y="349" on="0"/>
      </contour>
    </TTGlyph>
    <TTGlyph name="I" xMin="84" yMin="0" xMax="157" yMax="643">
      <contour>
        <pt x="157" y="629" on="1"/>
        <pt x="157" y="14" on="1"/>
        <pt x="157" y="0" on="0"/>
        <pt x="143" y="0" on="1"/>
        <pt x="98" y="0" on="1"/>
        <pt x="84" y="0" on="0"/>
        <pt x="84" y="14" on="1"/>
        <pt x="84" y="629" on="1"/>
        <pt x="84" y="643" on="0"/>
        <pt x="98" y="643" on="1"/>
        <pt x="143" y="643" on="1"/>
        <pt x="157" y="643" on="0"/>
      </contour>
    </TTGlyph>
    <TTGlyph name="IJ" xMin="86" yMin="0" xMax="658" yMax="643">
      <contour>
        <pt x="599" y="643" on="1"/>
        <pt x="644" y="643" on="1"/>
        <pt x="658" y="643" on="0"/>
        <pt x="658" y="630" on="1"/>
        <pt x="658" y="148" on="1"/>
        <pt x="658" y="79" on="0"/>
        <pt x="579" y="0" on="0"/>
        <pt x="510" y="0" on="1"/>
        <pt x="410" y="0" on="1"/>
        <pt x="342" y="0" on="0"/>
        <pt x="263" y="78" on="0"/>
        <pt x="263" y="148" on="1"/>
        <pt x="263" y="234" on="1"/>
        <pt x="263" y="248" on="0"/>
        <pt x="276" y="248" on="1"/>
        <pt x="322" y="248" on="1"/>
        <pt x="335" y="248" on="0"/>
        <pt x="335" y="234" on="1"/>
        <pt x="335" y="151" on="1"/>
        <pt x="335" y="64" on="0"/>
        <pt x="419" y="64" on="1"/>
        <pt x="501" y="64" on="1"/>
        <pt x="585" y="64" on="0"/>
        <pt x="585" y="151" on="1"/>
        <pt x="585" y="629" on="1"/>
        <pt x="585" y="643" on="0"/>
      </contour>
      <contour>
        <pt x="158" y="629" on="1"/>
        <pt x="158" y="14" on="1"/>
        <pt x="158" y="0" on="0"/>
        <pt x="145" y="0" on="1"/>
        <pt x="99" y="0" on="1"/>
        <pt x="86" y="0" on="0"/>
        <pt x="86" y="14" on="1"/>
        <pt x="86" y="629" on="1"/>
        <pt x="86" y="643" on="0"/>
        <pt x="99" y="643" on="1"/>
        <pt x="145" y="643" on="1"/>
        <pt x="158" y="643" on="0"/>
      </contour>
    </TTGlyph>
    <TTGlyph name="Iacute" xMin="84" yMin="0" xMax="246" yMax="836">
      <contour>
        <pt x="176" y="836" on="1"/>
        <pt x="237" y="836" on="1"/>
        <pt x="244" y="836" on="0"/>
        <pt x="248" y="828" on="0"/>
        <pt x="243" y="822" on="1"/>
        <pt x="156" y="717" on="1"/>
        <pt x="148" y="707" on="0"/>
        <pt x="136" y="707" on="1"/>
        <pt x="103" y="707" on="1"/>
        <pt x="91" y="707" on="0"/>
        <pt x="97" y="721" on="1"/>
        <pt x="155" y="823" on="1"/>
        <pt x="162" y="836" on="0"/>
      </contour>
      <contour>
        <pt x="157" y="629" on="1"/>
        <pt x="157" y="14" on="1"/>
        <pt x="157" y="0" on="0"/>
        <pt x="143" y="0" on="1"/>
        <pt x="98" y="0" on="1"/>
        <pt x="84" y="0" on="0"/>
        <pt x="84" y="14" on="1"/>
        <pt x="84" y="629" on="1"/>
        <pt x="84" y="643" on="0"/>
        <pt x="98" y="643" on="1"/>
        <pt x="143" y="643" on="1"/>
        <pt x="157" y="643" on="0"/>
      </contour>
    </TTGlyph>
    <TTGlyph name="Ibreve" xMin="16" yMin="0" xMax="225" yMax="836">
      <contour>
        <pt x="16" y="825" on="1"/>
        <pt x="16" y="836" on="0"/>
        <pt x="27" y="836" on="1"/>
        <pt x="55" y="836" on="1"/>
        <pt x="65" y="836" on="0"/>
        <pt x="65" y="825" on="1"/>
        <pt x="65" y="815" on="1"/>
        <pt x="65" y="778" on="0"/>
        <pt x="89" y="747" on="0"/>
        <pt x="118" y="747" on="1"/>
        <pt x="123" y="747" on="1"/>
        <pt x="153" y="747" on="0"/>
        <pt x="178" y="778" on="0"/>
        <pt x="178" y="815" on="1"/>
        <pt x="178" y="825" on="1"/>
        <pt x="178" y="835" on="0"/>
        <pt x="188" y="835" on="1"/>
        <pt x="214" y="835" on="1"/>
        <pt x="225" y="835" on="0"/>
        <pt x="225" y="825" on="1"/>
        <pt x="225" y="813" on="1"/>
        <pt x="225" y="707" on="0"/>
        <pt x="129" y="707" on="1"/>
        <pt x="112" y="707" on="1"/>
        <pt x="16" y="707" on="0"/>
        <pt x="16" y="813" on="1"/>
      </contour>
      <contour>
        <pt x="157" y="629" on="1"/>
        <pt x="157" y="14" on="1"/>
        <pt x="157" y="0" on="0"/>
        <pt x="143" y="0" on="1"/>
        <pt x="98" y="0" on="1"/>
        <pt x="84" y="0" on="0"/>
        <pt x="84" y="14" on="1"/>
        <pt x="84" y="629" on="1"/>
        <pt x="84" y="643" on="0"/>
        <pt x="98" y="643" on="1"/>
        <pt x="143" y="643" on="1"/>
        <pt x="157" y="643" on="0"/>
      </contour>
    </TTGlyph>
    <TTGlyph name="Icircumflex" xMin="19" yMin="0" xMax="220" yMax="836">
      <contour>
        <pt x="215" y="707" on="1"/>
        <pt x="181" y="707" on="1"/>
        <pt x="171" y="707" on="0"/>
        <pt x="167" y="715" on="1"/>
        <pt x="120" y="803" on="1"/>
        <pt x="73" y="715" on="1"/>
        <pt x="69" y="707" on="0"/>
        <pt x="58" y="707" on="1"/>
        <pt x="25" y="707" on="1"/>
        <pt x="12" y="707" on="0"/>
        <pt x="19" y="719" on="1"/>
        <pt x="82" y="826" on="1"/>
        <pt x="89" y="836" on="0"/>
        <pt x="103" y="836" on="1"/>
        <pt x="137" y="836" on="1"/>
        <pt x="150" y="836" on="0"/>
        <pt x="157" y="826" on="1"/>
        <pt x="220" y="719" on="1"/>
        <pt x="227" y="707" on="0"/>
      </contour>
      <contour>
        <pt x="157" y="629" on="1"/>
        <pt x="157" y="14" on="1"/>
        <pt x="157" y="0" on="0"/>
        <pt x="143" y="0" on="1"/>
        <pt x="98" y="0" on="1"/>
        <pt x="84" y="0" on="0"/>
        <pt x="84" y="14" on="1"/>
        <pt x="84" y="629" on="1"/>
        <pt x="84" y="643" on="0"/>
        <pt x="98" y="643" on="1"/>
        <pt x="143" y="643" on="1"/>
        <pt x="157" y="643" on="0"/>
      </contour>
    </TTGlyph>
    <TTGlyph name="Idieresis" xMin="0" yMin="0" xMax="240" yMax="836">
      <contour>
        <pt x="0" y="721" on="1"/>
        <pt x="0" y="822" on="1"/>
        <pt x="0" y="836" on="0"/>
        <pt x="13" y="836" on="1"/>
        <pt x="56" y="836" on="1"/>
        <pt x="69" y="836" on="0"/>
        <pt x="69" y="823" on="1"/>
        <pt x="69" y="721" on="1"/>
        <pt x="69" y="707" on="0"/>
        <pt x="56" y="707" on="1"/>
        <pt x="13" y="707" on="1"/>
        <pt x="0" y="707" on="0"/>
      </contour>
      <contour>
        <pt x="171" y="721" on="1"/>
        <pt x="171" y="822" on="1"/>
        <pt x="171" y="836" on="0"/>
        <pt x="184" y="836" on="1"/>
        <pt x="227" y="836" on="1"/>
        <pt x="240" y="836" on="0"/>
        <pt x="240" y="823" on="1"/>
        <pt x="240" y="721" on="1"/>
        <pt x="240" y="707" on="0"/>
        <pt x="227" y="707" on="1"/>
        <pt x="184" y="707" on="1"/>
        <pt x="171" y="707" on="0"/>
      </contour>
      <contour>
        <pt x="157" y="629" on="1"/>
        <pt x="157" y="14" on="1"/>
        <pt x="157" y="0" on="0"/>
        <pt x="143" y="0" on="1"/>
        <pt x="98" y="0" on="1"/>
        <pt x="84" y="0" on="0"/>
        <pt x="84" y="14" on="1"/>
        <pt x="84" y="629" on="1"/>
        <pt x="84" y="643" on="0"/>
        <pt x="98" y="643" on="1"/>
        <pt x="143" y="643" on="1"/>
        <pt x="157" y="643" on="0"/>
      </contour>
    </TTGlyph>
    <TTGlyph name="Idotaccent" xMin="84" yMin="0" xMax="157" yMax="813">
      <contour>
        <pt x="157" y="629" on="1"/>
        <pt x="157" y="14" on="1"/>
        <pt x="157" y="0" on="0"/>
        <pt x="143" y="0" on="1"/>
        <pt x="98" y="0" on="1"/>
        <pt x="84" y="0" on="0"/>
        <pt x="84" y="14" on="1"/>
        <pt x="84" y="629" on="1"/>
        <pt x="84" y="643" on="0"/>
        <pt x="98" y="643" on="1"/>
        <pt x="143" y="643" on="1"/>
        <pt x="157" y="643" on="0"/>
      </contour>
      <contour>
        <pt x="84" y="706" on="1"/>
        <pt x="84" y="799" on="1"/>
        <pt x="84" y="813" on="0"/>
        <pt x="97" y="813" on="1"/>
        <pt x="143" y="813" on="1"/>
        <pt x="157" y="813" on="0"/>
        <pt x="157" y="800" on="1"/>
        <pt x="157" y="706" on="1"/>
        <pt x="157" y="692" on="0"/>
        <pt x="143" y="692" on="1"/>
        <pt x="97" y="692" on="1"/>
        <pt x="84" y="692" on="0"/>
      </contour>
    </TTGlyph>
    <TTGlyph name="Igrave" xMin="-4" yMin="0" xMax="157" yMax="836">
      <contour>
        <pt x="137" y="707" on="1"/>
        <pt x="104" y="707" on="1"/>
        <pt x="93" y="707" on="0"/>
        <pt x="85" y="717" on="1"/>
        <pt x="-2" y="822" on="1"/>
        <pt x="-6" y="828" on="0"/>
        <pt x="-2" y="836" on="0"/>
        <pt x="4" y="836" on="1"/>
        <pt x="64" y="836" on="1"/>
        <pt x="79" y="836" on="0"/>
        <pt x="86" y="823" on="1"/>
        <pt x="144" y="721" on="1"/>
        <pt x="152" y="707" on="0"/>
      </contour>
      <contour>
        <pt x="157" y="629" on="1"/>
        <pt x="157" y="14" on="1"/>
        <pt x="157" y="0" on="0"/>
        <pt x="143" y="0" on="1"/>
        <pt x="98" y="0" on="1"/>
        <pt x="84" y="0" on="0"/>
        <pt x="84" y="14" on="1"/>
        <pt x="84" y="629" on="1"/>
        <pt x="84" y="643" on="0"/>
        <pt x="98" y="643" on="1"/>
        <pt x="143" y="643" on="1"/>
        <pt x="157" y="643" on="0"/>
      </contour>
    </TTGlyph>
    <TTGlyph name="Imacron" xMin="6" yMin="0" xMax="235" yMax="800">
      <contour>
        <pt x="221" y="746" on="1"/>
        <pt x="20" y="746" on="1"/>
        <pt x="6" y="746" on="0"/>
        <pt x="6" y="760" on="1"/>
        <pt x="6" y="786" on="1"/>
        <pt x="6" y="800" on="0"/>
        <pt x="20" y="800" on="1"/>
        <pt x="221" y="800" on="1"/>
        <pt x="235" y="800" on="0"/>
        <pt x="235" y="786" on="1"/>
        <pt x="235" y="760" on="1"/>
        <pt x="235" y="746" on="0"/>
      </contour>
      <contour>
        <pt x="157" y="629" on="1"/>
        <pt x="157" y="14" on="1"/>
        <pt x="157" y="0" on="0"/>
        <pt x="143" y="0" on="1"/>
        <pt x="98" y="0" on="1"/>
        <pt x="84" y="0" on="0"/>
        <pt x="84" y="14" on="1"/>
        <pt x="84" y="629" on="1"/>
        <pt x="84" y="643" on="0"/>
        <pt x="98" y="643" on="1"/>
        <pt x="143" y="643" on="1"/>
        <pt x="157" y="643" on="0"/>
      </contour>
    </TTGlyph>
    <TTGlyph name="Iogonek" xMin="40" yMin="-111" xMax="157" yMax="643">
      <contour>
        <pt x="98" y="643" on="1"/>
        <pt x="143" y="643" on="1"/>
        <pt x="157" y="643" on="0"/>
        <pt x="157" y="629" on="1"/>
        <pt x="157" y="14" on="1"/>
        <pt x="157" y="0" on="0"/>
        <pt x="143" y="0" on="1"/>
        <pt x="137" y="0" on="1"/>
        <pt x="88" y="-67" on="1"/>
        <pt x="128" y="-67" on="1"/>
        <pt x="143" y="-67" on="0"/>
        <pt x="153" y="-73" on="0"/>
        <pt x="153" y="-81" on="1"/>
        <pt x="153" y="-94" on="0"/>
        <pt x="103" y="-111" on="0"/>
        <pt x="48" y="-111" on="0"/>
        <pt x="33" y="-83" on="0"/>
        <pt x="46" y="-67" on="1"/>
        <pt x="94" y="0" on="1"/>
        <pt x="84" y="2" on="0"/>
        <pt x="84" y="14" on="1"/>
        <pt x="84" y="629" on="1"/>
        <pt x="84" y="643" on="0"/>
      </contour>
    </TTGlyph>
    <TTGlyph name="Itilde" xMin="10" yMin="0" xMax="231" yMax="832">
      <contour>
        <pt x="121" y="722" on="0"/>
        <pt x="94" y="702" on="0"/>
        <pt x="66" y="702" on="1"/>
        <pt x="10" y="702" on="0"/>
        <pt x="10" y="779" on="1"/>
        <pt x="10" y="818" on="1"/>
        <pt x="10" y="828" on="0"/>
        <pt x="19" y="828" on="1"/>
        <pt x="40" y="828" on="1"/>
        <pt x="49" y="828" on="0"/>
        <pt x="49" y="818" on="1"/>
        <pt x="49" y="792" on="1"/>
        <pt x="49" y="763" on="0"/>
        <pt x="59" y="743" on="0"/>
        <pt x="84" y="743" on="0"/>
        <pt x="97" y="759" on="0"/>
        <pt x="123" y="814" on="0"/>
        <pt x="147" y="832" on="0"/>
        <pt x="176" y="832" on="1"/>
        <pt x="231" y="832" on="0"/>
        <pt x="231" y="754" on="1"/>
        <pt x="231" y="715" on="1"/>
        <pt x="231" y="704" on="0"/>
        <pt x="222" y="704" on="1"/>
        <pt x="201" y="704" on="1"/>
        <pt x="191" y="704" on="0"/>
        <pt x="191" y="715" on="1"/>
        <pt x="191" y="742" on="1"/>
        <pt x="191" y="771" on="0"/>
        <pt x="181" y="790" on="0"/>
        <pt x="155" y="790" on="0"/>
        <pt x="146" y="778" on="0"/>
      </contour>
      <contour>
        <pt x="157" y="629" on="1"/>
        <pt x="157" y="14" on="1"/>
        <pt x="157" y="0" on="0"/>
        <pt x="143" y="0" on="1"/>
        <pt x="98" y="0" on="1"/>
        <pt x="84" y="0" on="0"/>
        <pt x="84" y="14" on="1"/>
        <pt x="84" y="629" on="1"/>
        <pt x="84" y="643" on="0"/>
        <pt x="98" y="643" on="1"/>
        <pt x="143" y="643" on="1"/>
        <pt x="157" y="643" on="0"/>
      </contour>
    </TTGlyph>
    <TTGlyph name="J" xMin="36" yMin="0" xMax="431" yMax="643">
      <contour>
        <pt x="373" y="643" on="1"/>
        <pt x="418" y="643" on="1"/>
        <pt x="431" y="643" on="0"/>
        <pt x="431" y="630" on="1"/>
        <pt x="431" y="148" on="1"/>
        <pt x="431" y="78" on="0"/>
        <pt x="352" y="0" on="0"/>
        <pt x="284" y="0" on="1"/>
        <pt x="184" y="0" on="1"/>
        <pt x="115" y="0" on="0"/>
        <pt x="36" y="79" on="0"/>
        <pt x="36" y="148" on="1"/>
        <pt x="36" y="234" on="1"/>
        <pt x="36" y="248" on="0"/>
        <pt x="50" y="248" on="1"/>
        <pt x="95" y="248" on="1"/>
        <pt x="109" y="248" on="0"/>
        <pt x="109" y="234" on="1"/>
        <pt x="109" y="151" on="1"/>
        <pt x="109" y="64" on="0"/>
        <pt x="193" y="64" on="1"/>
        <pt x="275" y="64" on="1"/>
        <pt x="359" y="64" on="0"/>
        <pt x="359" y="151" on="1"/>
        <pt x="359" y="629" on="1"/>
        <pt x="359" y="643" on="0"/>
      </contour>
    </TTGlyph>
    <TTGlyph name="Jcircumflex" xMin="36" yMin="0" xMax="493" yMax="836">
      <contour>
        <pt x="373" y="643" on="1"/>
        <pt x="418" y="643" on="1"/>
        <pt x="431" y="643" on="0"/>
        <pt x="431" y="630" on="1"/>
        <pt x="431" y="148" on="1"/>
        <pt x="431" y="78" on="0"/>
        <pt x="352" y="0" on="0"/>
        <pt x="284" y="0" on="1"/>
        <pt x="184" y="0" on="1"/>
        <pt x="115" y="0" on="0"/>
        <pt x="36" y="79" on="0"/>
        <pt x="36" y="148" on="1"/>
        <pt x="36" y="234" on="1"/>
        <pt x="36" y="248" on="0"/>
        <pt x="50" y="248" on="1"/>
        <pt x="95" y="248" on="1"/>
        <pt x="109" y="248" on="0"/>
        <pt x="109" y="234" on="1"/>
        <pt x="109" y="151" on="1"/>
        <pt x="109" y="64" on="0"/>
        <pt x="193" y="64" on="1"/>
        <pt x="275" y="64" on="1"/>
        <pt x="359" y="64" on="0"/>
        <pt x="359" y="151" on="1"/>
        <pt x="359" y="629" on="1"/>
        <pt x="359" y="643" on="0"/>
      </contour>
      <contour>
        <pt x="488" y="707" on="1"/>
        <pt x="454" y="707" on="1"/>
        <pt x="444" y="707" on="0"/>
        <pt x="440" y="715" on="1"/>
        <pt x="393" y="803" on="1"/>
        <pt x="345" y="715" on="1"/>
        <pt x="342" y="707" on="0"/>
        <pt x="331" y="707" on="1"/>
        <pt x="298" y="707" on="1"/>
        <pt x="285" y="707" on="0"/>
        <pt x="292" y="719" on="1"/>
        <pt x="355" y="826" on="1"/>
        <pt x="362" y="836" on="0"/>
        <pt x="376" y="836" on="1"/>
        <pt x="410" y="836" on="1"/>
        <pt x="423" y="836" on="0"/>
        <pt x="430" y="826" on="1"/>
        <pt x="493" y="719" on="1"/>
        <pt x="500" y="707" on="0"/>
      </contour>
    </TTGlyph>
    <TTGlyph name="K" xMin="79" yMin="0" xMax="514" yMax="643">
      <contour>
        <pt x="138" y="0" on="1"/>
        <pt x="93" y="0" on="1"/>
        <pt x="79" y="0" on="0"/>
        <pt x="79" y="14" on="1"/>
        <pt x="79" y="629" on="1"/>
        <pt x="79" y="643" on="0"/>
        <pt x="93" y="643" on="1"/>
        <pt x="138" y="643" on="1"/>
        <pt x="152" y="643" on="0"/>
        <pt x="152" y="629" on="1"/>
        <pt x="152" y="284" on="1"/>
        <pt x="155" y="284" on="1"/>
        <pt x="162" y="305" on="0"/>
        <pt x="177" y="325" on="1"/>
        <pt x="401" y="629" on="1"/>
        <pt x="410" y="643" on="0"/>
        <pt x="427" y="643" on="1"/>
        <pt x="481" y="643" on="1"/>
        <pt x="498" y="643" on="0"/>
        <pt x="486" y="628" on="1"/>
        <pt x="288" y="360" on="1"/>
        <pt x="514" y="16" on="1"/>
        <pt x="525" y="0" on="0"/>
        <pt x="505" y="0" on="1"/>
        <pt x="464" y="0" on="1"/>
        <pt x="443" y="0" on="0"/>
        <pt x="435" y="14" on="1"/>
        <pt x="243" y="307" on="1"/>
        <pt x="152" y="198" on="1"/>
        <pt x="152" y="14" on="1"/>
        <pt x="152" y="0" on="0"/>
      </contour>
    </TTGlyph>
    <TTGlyph name="L" xMin="79" yMin="0" xMax="428" yMax="643">
      <contour>
        <pt x="414" y="0" on="1"/>
        <pt x="93" y="0" on="1"/>
        <pt x="79" y="0" on="0"/>
        <pt x="79" y="14" on="1"/>
        <pt x="79" y="629" on="1"/>
        <pt x="79" y="643" on="0"/>
        <pt x="93" y="643" on="1"/>
        <pt x="138" y="643" on="1"/>
        <pt x="152" y="643" on="0"/>
        <pt x="152" y="629" on="1"/>
        <pt x="152" y="75" on="1"/>
        <pt x="152" y="66" on="0"/>
        <pt x="162" y="66" on="1"/>
        <pt x="414" y="66" on="1"/>
        <pt x="428" y="66" on="0"/>
        <pt x="428" y="51" on="1"/>
        <pt x="428" y="14" on="1"/>
        <pt x="428" y="0" on="0"/>
      </contour>
    </TTGlyph>
    <TTGlyph name="Lacute" xMin="79" yMin="0" xMax="428" yMax="836">
      <contour>
        <pt x="172" y="836" on="1"/>
        <pt x="232" y="836" on="1"/>
        <pt x="239" y="836" on="0"/>
        <pt x="243" y="828" on="0"/>
        <pt x="239" y="822" on="1"/>
        <pt x="151" y="717" on="1"/>
        <pt x="143" y="707" on="0"/>
        <pt x="132" y="707" on="1"/>
        <pt x="99" y="707" on="1"/>
        <pt x="84" y="707" on="0"/>
        <pt x="92" y="721" on="1"/>
        <pt x="150" y="823" on="1"/>
        <pt x="157" y="836" on="0"/>
      </contour>
      <contour>
        <pt x="414" y="0" on="1"/>
        <pt x="93" y="0" on="1"/>
        <pt x="79" y="0" on="0"/>
        <pt x="79" y="14" on="1"/>
        <pt x="79" y="629" on="1"/>
        <pt x="79" y="643" on="0"/>
        <pt x="93" y="643" on="1"/>
        <pt x="138" y="643" on="1"/>
        <pt x="152" y="643" on="0"/>
        <pt x="152" y="629" on="1"/>
        <pt x="152" y="75" on="1"/>
        <pt x="152" y="66" on="0"/>
        <pt x="162" y="66" on="1"/>
        <pt x="414" y="66" on="1"/>
        <pt x="428" y="66" on="0"/>
        <pt x="428" y="51" on="1"/>
        <pt x="428" y="14" on="1"/>
        <pt x="428" y="0" on="0"/>
      </contour>
    </TTGlyph>
    <TTGlyph name="Lcaron" xMin="79" yMin="0" xMax="428" yMax="643">
      <contour>
        <pt x="371" y="630" on="1"/>
        <pt x="371" y="572" on="1"/>
        <pt x="371" y="549" on="0"/>
        <pt x="357" y="507" on="1"/>
        <pt x="323" y="412" on="1"/>
        <pt x="320" y="405" on="0"/>
        <pt x="312" y="405" on="1"/>
        <pt x="301" y="405" on="0"/>
        <pt x="301" y="417" on="1"/>
        <pt x="301" y="629" on="1"/>
        <pt x="301" y="643" on="0"/>
        <pt x="314" y="643" on="1"/>
        <pt x="358" y="643" on="1"/>
        <pt x="371" y="643" on="0"/>
      </contour>
      <contour>
        <pt x="414" y="0" on="1"/>
        <pt x="93" y="0" on="1"/>
        <pt x="79" y="0" on="0"/>
        <pt x="79" y="14" on="1"/>
        <pt x="79" y="629" on="1"/>
        <pt x="79" y="643" on="0"/>
        <pt x="93" y="643" on="1"/>
        <pt x="138" y="643" on="1"/>
        <pt x="152" y="643" on="0"/>
        <pt x="152" y="629" on="1"/>
        <pt x="152" y="75" on="1"/>
        <pt x="152" y="66" on="0"/>
        <pt x="162" y="66" on="1"/>
        <pt x="414" y="66" on="1"/>
        <pt x="428" y="66" on="0"/>
        <pt x="428" y="51" on="1"/>
        <pt x="428" y="14" on="1"/>
        <pt x="428" y="0" on="0"/>
      </contour>
    </TTGlyph>
    <TTGlyph name="Ldot" xMin="83" yMin="0" xMax="431" yMax="643">
      <contour>
        <pt x="417" y="0" on="1"/>
        <pt x="96" y="0" on="1"/>
        <pt x="83" y="0" on="0"/>
        <pt x="83" y="14" on="1"/>
        <pt x="83" y="629" on="1"/>
        <pt x="83" y="643" on="0"/>
        <pt x="96" y="643" on="1"/>
        <pt x="141" y="643" on="1"/>
        <pt x="155" y="643" on="0"/>
        <pt x="155" y="629" on="1"/>
        <pt x="155" y="75" on="1"/>
        <pt x="155" y="66" on="0"/>
        <pt x="166" y="66" on="1"/>
        <pt x="417" y="66" on="1"/>
        <pt x="431" y="66" on="0"/>
        <pt x="431" y="51" on="1"/>
        <pt x="431" y="14" on="1"/>
        <pt x="431" y="0" on="0"/>
      </contour>
      <contour>
        <pt x="357" y="374" on="1"/>
        <pt x="357" y="264" on="1"/>
        <pt x="357" y="250" on="0"/>
        <pt x="344" y="250" on="1"/>
        <pt x="293" y="250" on="1"/>
        <pt x="280" y="250" on="0"/>
        <pt x="280" y="265" on="1"/>
        <pt x="280" y="373" on="1"/>
        <pt x="280" y="387" on="0"/>
        <pt x="293" y="387" on="1"/>
        <pt x="344" y="387" on="1"/>
        <pt x="357" y="387" on="0"/>
      </contour>
    </TTGlyph>
    <TTGlyph name="Lslash" xMin="11" yMin="0" xMax="444" yMax="643">
      <contour>
        <pt x="430" y="0" on="1"/>
        <pt x="109" y="0" on="1"/>
        <pt x="95" y="0" on="0"/>
        <pt x="95" y="14" on="1"/>
        <pt x="95" y="350" on="1"/>
        <pt x="25" y="310" on="1"/>
        <pt x="11" y="302" on="0"/>
        <pt x="11" y="318" on="1"/>
        <pt x="11" y="355" on="1"/>
        <pt x="11" y="368" on="0"/>
        <pt x="25" y="375" on="1"/>
        <pt x="95" y="415" on="1"/>
        <pt x="95" y="629" on="1"/>
        <pt x="95" y="643" on="0"/>
        <pt x="109" y="643" on="1"/>
        <pt x="154" y="643" on="1"/>
        <pt x="168" y="643" on="0"/>
        <pt x="168" y="629" on="1"/>
        <pt x="168" y="457" on="1"/>
        <pt x="263" y="510" on="1"/>
        <pt x="277" y="518" on="0"/>
        <pt x="277" y="502" on="1"/>
        <pt x="277" y="464" on="1"/>
        <pt x="277" y="451" on="0"/>
        <pt x="263" y="444" on="1"/>
        <pt x="168" y="390" on="1"/>
        <pt x="168" y="75" on="1"/>
        <pt x="168" y="66" on="0"/>
        <pt x="178" y="66" on="1"/>
        <pt x="430" y="66" on="1"/>
        <pt x="444" y="66" on="0"/>
        <pt x="444" y="51" on="1"/>
        <pt x="444" y="14" on="1"/>
        <pt x="444" y="0" on="0"/>
      </contour>
    </TTGlyph>
    <TTGlyph name="M" xMin="79" yMin="0" xMax="626" yMax="643">
      <contour>
        <pt x="531" y="643" on="1"/>
        <pt x="612" y="643" on="1"/>
        <pt x="626" y="643" on="0"/>
        <pt x="626" y="629" on="1"/>
        <pt x="626" y="14" on="1"/>
        <pt x="626" y="0" on="0"/>
        <pt x="612" y="0" on="1"/>
        <pt x="568" y="0" on="1"/>
        <pt x="554" y="0" on="0"/>
        <pt x="554" y="14" on="1"/>
        <pt x="554" y="545" on="1"/>
        <pt x="550" y="545" on="1"/>
        <pt x="395" y="153" on="1"/>
        <pt x="389" y="140" on="0"/>
        <pt x="377" y="140" on="1"/>
        <pt x="329" y="140" on="1"/>
        <pt x="316" y="140" on="0"/>
        <pt x="312" y="153" on="1"/>
        <pt x="154" y="546" on="1"/>
        <pt x="150" y="546" on="1"/>
        <pt x="150" y="14" on="1"/>
        <pt x="150" y="0" on="0"/>
        <pt x="137" y="0" on="1"/>
        <pt x="93" y="0" on="1"/>
        <pt x="79" y="0" on="0"/>
        <pt x="79" y="14" on="1"/>
        <pt x="79" y="629" on="1"/>
        <pt x="79" y="643" on="0"/>
        <pt x="93" y="643" on="1"/>
        <pt x="174" y="643" on="1"/>
        <pt x="183" y="643" on="0"/>
        <pt x="186" y="635" on="1"/>
        <pt x="350" y="221" on="1"/>
        <pt x="355" y="221" on="1"/>
        <pt x="519" y="635" on="1"/>
        <pt x="521" y="643" on="0"/>
      </contour>
    </TTGlyph>
    <TTGlyph name="Mu" xMin="80" yMin="-133" xMax="459" yMax="510">
      <contour>
        <pt x="152" y="-119" on="1"/>
        <pt x="152" y="-133" on="0"/>
        <pt x="139" y="-133" on="1"/>
        <pt x="93" y="-133" on="1"/>
        <pt x="80" y="-133" on="0"/>
        <pt x="80" y="-119" on="1"/>
        <pt x="80" y="496" on="1"/>
        <pt x="80" y="510" on="0"/>
        <pt x="93" y="510" on="1"/>
        <pt x="139" y="510" on="1"/>
        <pt x="152" y="510" on="0"/>
        <pt x="152" y="496" on="1"/>
        <pt x="152" y="151" on="1"/>
        <pt x="152" y="64" on="0"/>
        <pt x="236" y="64" on="1"/>
        <pt x="293" y="64" on="1"/>
        <pt x="338" y="64" on="0"/>
        <pt x="386" y="112" on="0"/>
        <pt x="386" y="156" on="1"/>
        <pt x="386" y="496" on="1"/>
        <pt x="386" y="510" on="0"/>
        <pt x="400" y="510" on="1"/>
        <pt x="444" y="510" on="1"/>
        <pt x="459" y="510" on="0"/>
        <pt x="459" y="496" on="1"/>
        <pt x="459" y="14" on="1"/>
        <pt x="459" y="0" on="0"/>
        <pt x="444" y="0" on="1"/>
        <pt x="400" y="0" on="1"/>
        <pt x="386" y="0" on="0"/>
        <pt x="386" y="14" on="1"/>
        <pt x="386" y="53" on="1"/>
        <pt x="382" y="53" on="1"/>
        <pt x="357" y="0" on="0"/>
        <pt x="279" y="0" on="1"/>
        <pt x="275" y="0" on="0"/>
        <pt x="239" y="-1" on="0"/>
        <pt x="225" y="0" on="0"/>
        <pt x="196" y="3" on="0"/>
        <pt x="188" y="6" on="1"/>
        <pt x="166" y="12" on="0"/>
        <pt x="152" y="28" on="1"/>
      </contour>
    </TTGlyph>
    <TTGlyph name="N" xMin="79" yMin="0" xMax="502" yMax="643">
      <contour>
        <pt x="137" y="0" on="1"/>
        <pt x="93" y="0" on="1"/>
        <pt x="79" y="0" on="0"/>
        <pt x="79" y="14" on="1"/>
        <pt x="79" y="629" on="1"/>
        <pt x="79" y="643" on="0"/>
        <pt x="93" y="643" on="1"/>
        <pt x="134" y="643" on="1"/>
        <pt x="146" y="643" on="0"/>
        <pt x="150" y="635" on="1"/>
        <pt x="426" y="150" on="1"/>
        <pt x="430" y="150" on="1"/>
        <pt x="430" y="629" on="1"/>
        <pt x="430" y="643" on="0"/>
        <pt x="444" y="643" on="1"/>
        <pt x="488" y="643" on="1"/>
        <pt x="502" y="643" on="0"/>
        <pt x="502" y="629" on="1"/>
        <pt x="502" y="14" on="1"/>
        <pt x="502" y="0" on="0"/>
        <pt x="488" y="0" on="1"/>
        <pt x="451" y="0" on="1"/>
        <pt x="440" y="0" on="0"/>
        <pt x="430" y="13" on="1"/>
        <pt x="155" y="493" on="1"/>
        <pt x="151" y="493" on="1"/>
        <pt x="151" y="14" on="1"/>
        <pt x="151" y="0" on="0"/>
      </contour>
    </TTGlyph>
    <TTGlyph name="Nacute" xMin="79" yMin="0" xMax="502" yMax="836">
      <contour>
        <pt x="350" y="836" on="1"/>
        <pt x="410" y="836" on="1"/>
        <pt x="417" y="836" on="0"/>
        <pt x="421" y="828" on="0"/>
        <pt x="417" y="822" on="1"/>
        <pt x="330" y="717" on="1"/>
        <pt x="322" y="707" on="0"/>
        <pt x="310" y="707" on="1"/>
        <pt x="277" y="707" on="1"/>
        <pt x="263" y="707" on="0"/>
        <pt x="271" y="721" on="1"/>
        <pt x="329" y="823" on="1"/>
        <pt x="336" y="836" on="0"/>
      </contour>
      <contour>
        <pt x="137" y="0" on="1"/>
        <pt x="93" y="0" on="1"/>
        <pt x="79" y="0" on="0"/>
        <pt x="79" y="14" on="1"/>
        <pt x="79" y="629" on="1"/>
        <pt x="79" y="643" on="0"/>
        <pt x="93" y="643" on="1"/>
        <pt x="134" y="643" on="1"/>
        <pt x="146" y="643" on="0"/>
        <pt x="150" y="635" on="1"/>
        <pt x="426" y="150" on="1"/>
        <pt x="430" y="150" on="1"/>
        <pt x="430" y="629" on="1"/>
        <pt x="430" y="643" on="0"/>
        <pt x="444" y="643" on="1"/>
        <pt x="488" y="643" on="1"/>
        <pt x="502" y="643" on="0"/>
        <pt x="502" y="629" on="1"/>
        <pt x="502" y="14" on="1"/>
        <pt x="502" y="0" on="0"/>
        <pt x="488" y="0" on="1"/>
        <pt x="451" y="0" on="1"/>
        <pt x="440" y="0" on="0"/>
        <pt x="430" y="13" on="1"/>
        <pt x="155" y="493" on="1"/>
        <pt x="151" y="493" on="1"/>
        <pt x="151" y="14" on="1"/>
        <pt x="151" y="0" on="0"/>
      </contour>
    </TTGlyph>
    <TTGlyph name="Ncaron" xMin="79" yMin="0" xMax="502" yMax="836">
      <contour>
        <pt x="137" y="0" on="1"/>
        <pt x="93" y="0" on="1"/>
        <pt x="79" y="0" on="0"/>
        <pt x="79" y="14" on="1"/>
        <pt x="79" y="629" on="1"/>
        <pt x="79" y="643" on="0"/>
        <pt x="93" y="643" on="1"/>
        <pt x="134" y="643" on="1"/>
        <pt x="146" y="643" on="0"/>
        <pt x="150" y="635" on="1"/>
        <pt x="426" y="150" on="1"/>
        <pt x="430" y="150" on="1"/>
        <pt x="430" y="629" on="1"/>
        <pt x="430" y="643" on="0"/>
        <pt x="444" y="643" on="1"/>
        <pt x="488" y="643" on="1"/>
        <pt x="502" y="643" on="0"/>
        <pt x="502" y="629" on="1"/>
        <pt x="502" y="14" on="1"/>
        <pt x="502" y="0" on="0"/>
        <pt x="488" y="0" on="1"/>
        <pt x="451" y="0" on="1"/>
        <pt x="440" y="0" on="0"/>
        <pt x="430" y="13" on="1"/>
        <pt x="155" y="493" on="1"/>
        <pt x="151" y="493" on="1"/>
        <pt x="151" y="14" on="1"/>
        <pt x="151" y="0" on="0"/>
      </contour>
      <contour>
        <pt x="277" y="707" on="1"/>
        <pt x="264" y="707" on="0"/>
        <pt x="257" y="717" on="1"/>
        <pt x="194" y="824" on="1"/>
        <pt x="187" y="836" on="0"/>
        <pt x="199" y="836" on="1"/>
        <pt x="233" y="836" on="1"/>
        <pt x="243" y="836" on="0"/>
        <pt x="247" y="828" on="1"/>
        <pt x="294" y="740" on="1"/>
        <pt x="342" y="828" on="1"/>
        <pt x="345" y="836" on="0"/>
        <pt x="355" y="836" on="1"/>
        <pt x="390" y="836" on="1"/>
        <pt x="402" y="836" on="0"/>
        <pt x="395" y="824" on="1"/>
        <pt x="332" y="717" on="1"/>
        <pt x="325" y="707" on="0"/>
        <pt x="312" y="707" on="1"/>
      </contour>
    </TTGlyph>
    <TTGlyph name="Ntilde" xMin="79" yMin="0" xMax="502" yMax="832">
      <contour>
        <pt x="236" y="702" on="1"/>
        <pt x="181" y="702" on="0"/>
        <pt x="181" y="779" on="1"/>
        <pt x="181" y="818" on="1"/>
        <pt x="181" y="828" on="0"/>
        <pt x="190" y="828" on="1"/>
        <pt x="211" y="828" on="1"/>
        <pt x="220" y="828" on="0"/>
        <pt x="220" y="818" on="1"/>
        <pt x="220" y="792" on="1"/>
        <pt x="220" y="763" on="0"/>
        <pt x="230" y="743" on="0"/>
        <pt x="255" y="743" on="0"/>
        <pt x="268" y="759" on="0"/>
        <pt x="293" y="814" on="0"/>
        <pt x="318" y="832" on="0"/>
        <pt x="346" y="832" on="1"/>
        <pt x="402" y="832" on="0"/>
        <pt x="402" y="754" on="1"/>
        <pt x="402" y="715" on="1"/>
        <pt x="402" y="704" on="0"/>
        <pt x="392" y="704" on="1"/>
        <pt x="371" y="704" on="1"/>
        <pt x="362" y="704" on="0"/>
        <pt x="362" y="715" on="1"/>
        <pt x="362" y="742" on="1"/>
        <pt x="362" y="771" on="0"/>
        <pt x="352" y="790" on="0"/>
        <pt x="326" y="790" on="0"/>
        <pt x="316" y="778" on="0"/>
        <pt x="310" y="766" on="1"/>
        <pt x="290" y="721" on="0"/>
        <pt x="264" y="702" on="0"/>
      </contour>
      <contour>
        <pt x="137" y="0" on="1"/>
        <pt x="93" y="0" on="1"/>
        <pt x="79" y="0" on="0"/>
        <pt x="79" y="14" on="1"/>
        <pt x="79" y="629" on="1"/>
        <pt x="79" y="643" on="0"/>
        <pt x="93" y="643" on="1"/>
        <pt x="134" y="643" on="1"/>
        <pt x="146" y="643" on="0"/>
        <pt x="150" y="635" on="1"/>
        <pt x="426" y="150" on="1"/>
        <pt x="430" y="150" on="1"/>
        <pt x="430" y="629" on="1"/>
        <pt x="430" y="643" on="0"/>
        <pt x="444" y="643" on="1"/>
        <pt x="488" y="643" on="1"/>
        <pt x="502" y="643" on="0"/>
        <pt x="502" y="629" on="1"/>
        <pt x="502" y="14" on="1"/>
        <pt x="502" y="0" on="0"/>
        <pt x="488" y="0" on="1"/>
        <pt x="451" y="0" on="1"/>
        <pt x="440" y="0" on="0"/>
        <pt x="430" y="13" on="1"/>
        <pt x="155" y="493" on="1"/>
        <pt x="151" y="493" on="1"/>
        <pt x="151" y="14" on="1"/>
        <pt x="151" y="0" on="0"/>
      </contour>
    </TTGlyph>
    <TTGlyph name="O" xMin="69" yMin="0" xMax="484" yMax="643">
      <contour>
        <pt x="225" y="64" on="1"/>
        <pt x="327" y="64" on="1"/>
        <pt x="411" y="64" on="0"/>
        <pt x="411" y="151" on="1"/>
        <pt x="411" y="492" on="1"/>
        <pt x="411" y="579" on="0"/>
        <pt x="327" y="579" on="1"/>
        <pt x="225" y="579" on="1"/>
        <pt x="142" y="579" on="0"/>
        <pt x="142" y="492" on="1"/>
        <pt x="142" y="151" on="1"/>
        <pt x="142" y="64" on="0"/>
      </contour>
      <contour>
        <pt x="336" y="0" on="1"/>
        <pt x="217" y="0" on="1"/>
        <pt x="148" y="0" on="0"/>
        <pt x="69" y="78" on="0"/>
        <pt x="69" y="148" on="1"/>
        <pt x="69" y="495" on="1"/>
        <pt x="69" y="565" on="0"/>
        <pt x="148" y="643" on="0"/>
        <pt x="217" y="643" on="1"/>
        <pt x="336" y="643" on="1"/>
        <pt x="405" y="643" on="0"/>
        <pt x="484" y="564" on="0"/>
        <pt x="484" y="495" on="1"/>
        <pt x="484" y="148" on="1"/>
        <pt x="484" y="79" on="0"/>
        <pt x="405" y="0" on="0"/>
      </contour>
    </TTGlyph>
    <TTGlyph name="OE" xMin="73" yMin="0" xMax="708" yMax="643">
      <contour>
        <pt x="73" y="148" on="1"/>
        <pt x="73" y="495" on="1"/>
        <pt x="73" y="564" on="0"/>
        <pt x="152" y="643" on="0"/>
        <pt x="220" y="643" on="1"/>
        <pt x="693" y="643" on="1"/>
        <pt x="708" y="643" on="0"/>
        <pt x="708" y="629" on="1"/>
        <pt x="708" y="593" on="1"/>
        <pt x="708" y="579" on="0"/>
        <pt x="693" y="579" on="1"/>
        <pt x="452" y="579" on="1"/>
        <pt x="442" y="579" on="0"/>
        <pt x="442" y="570" on="1"/>
        <pt x="442" y="368" on="1"/>
        <pt x="442" y="359" on="0"/>
        <pt x="452" y="359" on="1"/>
        <pt x="662" y="359" on="1"/>
        <pt x="676" y="359" on="0"/>
        <pt x="676" y="345" on="1"/>
        <pt x="676" y="309" on="1"/>
        <pt x="676" y="295" on="0"/>
        <pt x="662" y="295" on="1"/>
        <pt x="452" y="295" on="1"/>
        <pt x="442" y="295" on="0"/>
        <pt x="442" y="286" on="1"/>
        <pt x="442" y="73" on="1"/>
        <pt x="442" y="64" on="0"/>
        <pt x="452" y="64" on="1"/>
        <pt x="693" y="64" on="1"/>
        <pt x="708" y="64" on="0"/>
        <pt x="708" y="50" on="1"/>
        <pt x="708" y="14" on="1"/>
        <pt x="708" y="0" on="0"/>
        <pt x="693" y="0" on="1"/>
        <pt x="220" y="0" on="1"/>
        <pt x="152" y="0" on="0"/>
        <pt x="73" y="78" on="0"/>
      </contour>
      <contour>
        <pt x="229" y="64" on="1"/>
        <pt x="359" y="64" on="1"/>
        <pt x="370" y="64" on="0"/>
        <pt x="370" y="73" on="1"/>
        <pt x="370" y="570" on="1"/>
        <pt x="370" y="579" on="0"/>
        <pt x="359" y="579" on="1"/>
        <pt x="229" y="579" on="1"/>
        <pt x="146" y="579" on="0"/>
        <pt x="146" y="492" on="1"/>
        <pt x="146" y="151" on="1"/>
        <pt x="146" y="64" on="0"/>
      </contour>
    </TTGlyph>
    <TTGlyph name="Oacute" xMin="69" yMin="0" xMax="484" yMax="836">
      <contour>
        <pt x="324" y="836" on="1"/>
        <pt x="385" y="836" on="1"/>
        <pt x="391" y="836" on="0"/>
        <pt x="395" y="828" on="0"/>
        <pt x="391" y="822" on="1"/>
        <pt x="304" y="717" on="1"/>
        <pt x="296" y="707" on="0"/>
        <pt x="284" y="707" on="1"/>
        <pt x="251" y="707" on="1"/>
        <pt x="237" y="707" on="0"/>
        <pt x="245" y="721" on="1"/>
        <pt x="303" y="823" on="1"/>
        <pt x="309" y="836" on="0"/>
      </contour>
      <contour>
        <pt x="225" y="64" on="1"/>
        <pt x="327" y="64" on="1"/>
        <pt x="411" y="64" on="0"/>
        <pt x="411" y="151" on="1"/>
        <pt x="411" y="492" on="1"/>
        <pt x="411" y="579" on="0"/>
        <pt x="327" y="579" on="1"/>
        <pt x="225" y="579" on="1"/>
        <pt x="142" y="579" on="0"/>
        <pt x="142" y="492" on="1"/>
        <pt x="142" y="151" on="1"/>
        <pt x="142" y="64" on="0"/>
      </contour>
      <contour>
        <pt x="336" y="0" on="1"/>
        <pt x="217" y="0" on="1"/>
        <pt x="148" y="0" on="0"/>
        <pt x="69" y="78" on="0"/>
        <pt x="69" y="148" on="1"/>
        <pt x="69" y="495" on="1"/>
        <pt x="69" y="565" on="0"/>
        <pt x="148" y="643" on="0"/>
        <pt x="217" y="643" on="1"/>
        <pt x="336" y="643" on="1"/>
        <pt x="405" y="643" on="0"/>
        <pt x="484" y="564" on="0"/>
        <pt x="484" y="495" on="1"/>
        <pt x="484" y="148" on="1"/>
        <pt x="484" y="79" on="0"/>
        <pt x="405" y="0" on="0"/>
      </contour>
    </TTGlyph>
    <TTGlyph name="Obreve" xMin="69" yMin="0" xMax="484" yMax="836">
      <contour>
        <pt x="172" y="825" on="1"/>
        <pt x="172" y="836" on="0"/>
        <pt x="183" y="836" on="1"/>
        <pt x="210" y="836" on="1"/>
        <pt x="221" y="836" on="0"/>
        <pt x="221" y="825" on="1"/>
        <pt x="221" y="815" on="1"/>
        <pt x="221" y="778" on="0"/>
        <pt x="245" y="747" on="0"/>
        <pt x="274" y="747" on="1"/>
        <pt x="279" y="747" on="1"/>
        <pt x="309" y="747" on="0"/>
        <pt x="333" y="778" on="0"/>
        <pt x="333" y="815" on="1"/>
        <pt x="333" y="825" on="1"/>
        <pt x="333" y="835" on="0"/>
        <pt x="344" y="835" on="1"/>
        <pt x="370" y="835" on="1"/>
        <pt x="381" y="835" on="0"/>
        <pt x="381" y="825" on="1"/>
        <pt x="381" y="813" on="1"/>
        <pt x="381" y="707" on="0"/>
        <pt x="285" y="707" on="1"/>
        <pt x="267" y="707" on="1"/>
        <pt x="172" y="707" on="0"/>
        <pt x="172" y="813" on="1"/>
      </contour>
      <contour>
        <pt x="225" y="64" on="1"/>
        <pt x="327" y="64" on="1"/>
        <pt x="411" y="64" on="0"/>
        <pt x="411" y="151" on="1"/>
        <pt x="411" y="492" on="1"/>
        <pt x="411" y="579" on="0"/>
        <pt x="327" y="579" on="1"/>
        <pt x="225" y="579" on="1"/>
        <pt x="142" y="579" on="0"/>
        <pt x="142" y="492" on="1"/>
        <pt x="142" y="151" on="1"/>
        <pt x="142" y="64" on="0"/>
      </contour>
      <contour>
        <pt x="336" y="0" on="1"/>
        <pt x="217" y="0" on="1"/>
        <pt x="148" y="0" on="0"/>
        <pt x="69" y="78" on="0"/>
        <pt x="69" y="148" on="1"/>
        <pt x="69" y="495" on="1"/>
        <pt x="69" y="565" on="0"/>
        <pt x="148" y="643" on="0"/>
        <pt x="217" y="643" on="1"/>
        <pt x="336" y="643" on="1"/>
        <pt x="405" y="643" on="0"/>
        <pt x="484" y="564" on="0"/>
        <pt x="484" y="495" on="1"/>
        <pt x="484" y="148" on="1"/>
        <pt x="484" y="79" on="0"/>
        <pt x="405" y="0" on="0"/>
      </contour>
    </TTGlyph>
    <TTGlyph name="Ocircumflex" xMin="69" yMin="0" xMax="484" yMax="836">
      <contour>
        <pt x="373" y="707" on="1"/>
        <pt x="339" y="707" on="1"/>
        <pt x="328" y="707" on="0"/>
        <pt x="325" y="715" on="1"/>
        <pt x="277" y="803" on="1"/>
        <pt x="230" y="715" on="1"/>
        <pt x="226" y="707" on="0"/>
        <pt x="216" y="707" on="1"/>
        <pt x="182" y="707" on="1"/>
        <pt x="170" y="707" on="0"/>
        <pt x="177" y="719" on="1"/>
        <pt x="240" y="826" on="1"/>
        <pt x="247" y="836" on="0"/>
        <pt x="260" y="836" on="1"/>
        <pt x="295" y="836" on="1"/>
        <pt x="308" y="836" on="0"/>
        <pt x="315" y="826" on="1"/>
        <pt x="378" y="719" on="1"/>
        <pt x="385" y="707" on="0"/>
      </contour>
      <contour>
        <pt x="225" y="64" on="1"/>
        <pt x="327" y="64" on="1"/>
        <pt x="411" y="64" on="0"/>
        <pt x="411" y="151" on="1"/>
        <pt x="411" y="492" on="1"/>
        <pt x="411" y="579" on="0"/>
        <pt x="327" y="579" on="1"/>
        <pt x="225" y="579" on="1"/>
        <pt x="142" y="579" on="0"/>
        <pt x="142" y="492" on="1"/>
        <pt x="142" y="151" on="1"/>
        <pt x="142" y="64" on="0"/>
      </contour>
      <contour>
        <pt x="336" y="0" on="1"/>
        <pt x="217" y="0" on="1"/>
        <pt x="148" y="0" on="0"/>
        <pt x="69" y="78" on="0"/>
        <pt x="69" y="148" on="1"/>
        <pt x="69" y="495" on="1"/>
        <pt x="69" y="565" on="0"/>
        <pt x="148" y="643" on="0"/>
        <pt x="217" y="643" on="1"/>
        <pt x="336" y="643" on="1"/>
        <pt x="405" y="643" on="0"/>
        <pt x="484" y="564" on="0"/>
        <pt x="484" y="495" on="1"/>
        <pt x="484" y="148" on="1"/>
        <pt x="484" y="79" on="0"/>
        <pt x="405" y="0" on="0"/>
      </contour>
    </TTGlyph>
    <TTGlyph name="Odieresis" xMin="69" yMin="0" xMax="484" yMax="836">
      <contour>
        <pt x="156" y="721" on="1"/>
        <pt x="156" y="822" on="1"/>
        <pt x="156" y="836" on="0"/>
        <pt x="169" y="836" on="1"/>
        <pt x="212" y="836" on="1"/>
        <pt x="225" y="836" on="0"/>
        <pt x="225" y="823" on="1"/>
        <pt x="225" y="721" on="1"/>
        <pt x="225" y="707" on="0"/>
        <pt x="212" y="707" on="1"/>
        <pt x="169" y="707" on="1"/>
        <pt x="156" y="707" on="0"/>
      </contour>
      <contour>
        <pt x="327" y="721" on="1"/>
        <pt x="327" y="822" on="1"/>
        <pt x="327" y="836" on="0"/>
        <pt x="340" y="836" on="1"/>
        <pt x="383" y="836" on="1"/>
        <pt x="396" y="836" on="0"/>
        <pt x="396" y="823" on="1"/>
        <pt x="396" y="721" on="1"/>
        <pt x="396" y="707" on="0"/>
        <pt x="383" y="707" on="1"/>
        <pt x="340" y="707" on="1"/>
        <pt x="327" y="707" on="0"/>
      </contour>
      <contour>
        <pt x="225" y="64" on="1"/>
        <pt x="327" y="64" on="1"/>
        <pt x="411" y="64" on="0"/>
        <pt x="411" y="151" on="1"/>
        <pt x="411" y="492" on="1"/>
        <pt x="411" y="579" on="0"/>
        <pt x="327" y="579" on="1"/>
        <pt x="225" y="579" on="1"/>
        <pt x="142" y="579" on="0"/>
        <pt x="142" y="492" on="1"/>
        <pt x="142" y="151" on="1"/>
        <pt x="142" y="64" on="0"/>
      </contour>
      <contour>
        <pt x="336" y="0" on="1"/>
        <pt x="217" y="0" on="1"/>
        <pt x="148" y="0" on="0"/>
        <pt x="69" y="78" on="0"/>
        <pt x="69" y="148" on="1"/>
        <pt x="69" y="495" on="1"/>
        <pt x="69" y="565" on="0"/>
        <pt x="148" y="643" on="0"/>
        <pt x="217" y="643" on="1"/>
        <pt x="336" y="643" on="1"/>
        <pt x="405" y="643" on="0"/>
        <pt x="484" y="564" on="0"/>
        <pt x="484" y="495" on="1"/>
        <pt x="484" y="148" on="1"/>
        <pt x="484" y="79" on="0"/>
        <pt x="405" y="0" on="0"/>
      </contour>
    </TTGlyph>
    <TTGlyph name="Ograve" xMin="69" yMin="0" xMax="484" yMax="836">
      <contour>
        <pt x="296" y="707" on="1"/>
        <pt x="262" y="707" on="1"/>
        <pt x="251" y="707" on="0"/>
        <pt x="243" y="717" on="1"/>
        <pt x="156" y="822" on="1"/>
        <pt x="146" y="836" on="0"/>
        <pt x="162" y="836" on="1"/>
        <pt x="222" y="836" on="1"/>
        <pt x="237" y="836" on="0"/>
        <pt x="244" y="823" on="1"/>
        <pt x="302" y="721" on="1"/>
        <pt x="310" y="707" on="0"/>
      </contour>
      <contour>
        <pt x="225" y="64" on="1"/>
        <pt x="327" y="64" on="1"/>
        <pt x="411" y="64" on="0"/>
        <pt x="411" y="151" on="1"/>
        <pt x="411" y="492" on="1"/>
        <pt x="411" y="579" on="0"/>
        <pt x="327" y="579" on="1"/>
        <pt x="225" y="579" on="1"/>
        <pt x="142" y="579" on="0"/>
        <pt x="142" y="492" on="1"/>
        <pt x="142" y="151" on="1"/>
        <pt x="142" y="64" on="0"/>
      </contour>
      <contour>
        <pt x="336" y="0" on="1"/>
        <pt x="217" y="0" on="1"/>
        <pt x="148" y="0" on="0"/>
        <pt x="69" y="78" on="0"/>
        <pt x="69" y="148" on="1"/>
        <pt x="69" y="495" on="1"/>
        <pt x="69" y="565" on="0"/>
        <pt x="148" y="643" on="0"/>
        <pt x="217" y="643" on="1"/>
        <pt x="336" y="643" on="1"/>
        <pt x="405" y="643" on="0"/>
        <pt x="484" y="564" on="0"/>
        <pt x="484" y="495" on="1"/>
        <pt x="484" y="148" on="1"/>
        <pt x="484" y="79" on="0"/>
        <pt x="405" y="0" on="0"/>
      </contour>
    </TTGlyph>
    <TTGlyph name="Ohungarumlaut" xMin="69" yMin="0" xMax="484" yMax="836">
      <contour>
        <pt x="265" y="836" on="1"/>
        <pt x="305" y="836" on="1"/>
        <pt x="321" y="836" on="0"/>
        <pt x="312" y="822" on="1"/>
        <pt x="235" y="717" on="1"/>
        <pt x="227" y="707" on="0"/>
        <pt x="216" y="707" on="1"/>
        <pt x="193" y="707" on="1"/>
        <pt x="179" y="707" on="0"/>
        <pt x="187" y="721" on="1"/>
        <pt x="243" y="823" on="1"/>
        <pt x="251" y="836" on="0"/>
      </contour>
      <contour>
        <pt x="397" y="836" on="1"/>
        <pt x="437" y="836" on="1"/>
        <pt x="454" y="836" on="0"/>
        <pt x="444" y="822" on="1"/>
        <pt x="367" y="717" on="1"/>
        <pt x="357" y="707" on="0"/>
        <pt x="348" y="707" on="1"/>
        <pt x="325" y="707" on="1"/>
        <pt x="311" y="707" on="0"/>
        <pt x="319" y="721" on="1"/>
        <pt x="375" y="823" on="1"/>
        <pt x="383" y="836" on="0"/>
      </contour>
      <contour>
        <pt x="225" y="64" on="1"/>
        <pt x="327" y="64" on="1"/>
        <pt x="411" y="64" on="0"/>
        <pt x="411" y="151" on="1"/>
        <pt x="411" y="492" on="1"/>
        <pt x="411" y="579" on="0"/>
        <pt x="327" y="579" on="1"/>
        <pt x="225" y="579" on="1"/>
        <pt x="142" y="579" on="0"/>
        <pt x="142" y="492" on="1"/>
        <pt x="142" y="151" on="1"/>
        <pt x="142" y="64" on="0"/>
      </contour>
      <contour>
        <pt x="336" y="0" on="1"/>
        <pt x="217" y="0" on="1"/>
        <pt x="148" y="0" on="0"/>
        <pt x="69" y="78" on="0"/>
        <pt x="69" y="148" on="1"/>
        <pt x="69" y="495" on="1"/>
        <pt x="69" y="565" on="0"/>
        <pt x="148" y="643" on="0"/>
        <pt x="217" y="643" on="1"/>
        <pt x="336" y="643" on="1"/>
        <pt x="405" y="643" on="0"/>
        <pt x="484" y="564" on="0"/>
        <pt x="484" y="495" on="1"/>
        <pt x="484" y="148" on="1"/>
        <pt x="484" y="79" on="0"/>
        <pt x="405" y="0" on="0"/>
      </contour>
    </TTGlyph>
    <TTGlyph name="Omacron" xMin="69" yMin="0" xMax="484" yMax="800">
      <contour>
        <pt x="377" y="746" on="1"/>
        <pt x="175" y="746" on="1"/>
        <pt x="161" y="746" on="0"/>
        <pt x="161" y="760" on="1"/>
        <pt x="161" y="786" on="1"/>
        <pt x="161" y="800" on="0"/>
        <pt x="175" y="800" on="1"/>
        <pt x="377" y="800" on="1"/>
        <pt x="391" y="800" on="0"/>
        <pt x="391" y="786" on="1"/>
        <pt x="391" y="760" on="1"/>
        <pt x="391" y="746" on="0"/>
      </contour>
      <contour>
        <pt x="225" y="64" on="1"/>
        <pt x="327" y="64" on="1"/>
        <pt x="411" y="64" on="0"/>
        <pt x="411" y="151" on="1"/>
        <pt x="411" y="492" on="1"/>
        <pt x="411" y="579" on="0"/>
        <pt x="327" y="579" on="1"/>
        <pt x="225" y="579" on="1"/>
        <pt x="142" y="579" on="0"/>
        <pt x="142" y="492" on="1"/>
        <pt x="142" y="151" on="1"/>
        <pt x="142" y="64" on="0"/>
      </contour>
      <contour>
        <pt x="336" y="0" on="1"/>
        <pt x="217" y="0" on="1"/>
        <pt x="148" y="0" on="0"/>
        <pt x="69" y="78" on="0"/>
        <pt x="69" y="148" on="1"/>
        <pt x="69" y="495" on="1"/>
        <pt x="69" y="565" on="0"/>
        <pt x="148" y="643" on="0"/>
        <pt x="217" y="643" on="1"/>
        <pt x="336" y="643" on="1"/>
        <pt x="405" y="643" on="0"/>
        <pt x="484" y="564" on="0"/>
        <pt x="484" y="495" on="1"/>
        <pt x="484" y="148" on="1"/>
        <pt x="484" y="79" on="0"/>
        <pt x="405" y="0" on="0"/>
      </contour>
    </TTGlyph>
    <TTGlyph name="Oslash" xMin="50" yMin="0" xMax="515" yMax="643">
      <contour>
        <pt x="491" y="495" on="1"/>
        <pt x="491" y="148" on="1"/>
        <pt x="491" y="78" on="0"/>
        <pt x="412" y="0" on="0"/>
        <pt x="344" y="0" on="1"/>
        <pt x="221" y="0" on="1"/>
        <pt x="151" y="0" on="0"/>
        <pt x="110" y="41" on="1"/>
        <pt x="87" y="9" on="1"/>
        <pt x="78" y="-3" on="0"/>
        <pt x="66" y="5" on="1"/>
        <pt x="52" y="16" on="1"/>
        <pt x="41" y="24" on="0"/>
        <pt x="50" y="37" on="1"/>
        <pt x="84" y="84" on="1"/>
        <pt x="73" y="114" on="0"/>
        <pt x="73" y="148" on="1"/>
        <pt x="73" y="495" on="1"/>
        <pt x="73" y="565" on="0"/>
        <pt x="152" y="643" on="0"/>
        <pt x="221" y="643" on="1"/>
        <pt x="344" y="643" on="1"/>
        <pt x="415" y="643" on="0"/>
        <pt x="454" y="601" on="1"/>
        <pt x="477" y="633" on="1"/>
        <pt x="487" y="645" on="0"/>
        <pt x="498" y="637" on="1"/>
        <pt x="513" y="627" on="1"/>
        <pt x="524" y="620" on="0"/>
        <pt x="515" y="606" on="1"/>
        <pt x="481" y="558" on="1"/>
        <pt x="491" y="528" on="0"/>
      </contour>
      <contour>
        <pt x="146" y="492" on="1"/>
        <pt x="146" y="171" on="1"/>
        <pt x="410" y="539" on="1"/>
        <pt x="390" y="579" on="0"/>
        <pt x="335" y="579" on="1"/>
        <pt x="230" y="579" on="1"/>
        <pt x="146" y="579" on="0"/>
      </contour>
      <contour>
        <pt x="419" y="151" on="1"/>
        <pt x="419" y="472" on="1"/>
        <pt x="155" y="104" on="1"/>
        <pt x="173" y="64" on="0"/>
        <pt x="230" y="64" on="1"/>
        <pt x="335" y="64" on="1"/>
        <pt x="419" y="64" on="0"/>
      </contour>
    </TTGlyph>
    <TTGlyph name="Oslashacute" xMin="50" yMin="0" xMax="515" yMax="836">
      <contour>
        <pt x="491" y="495" on="1"/>
        <pt x="491" y="148" on="1"/>
        <pt x="491" y="78" on="0"/>
        <pt x="412" y="0" on="0"/>
        <pt x="344" y="0" on="1"/>
        <pt x="221" y="0" on="1"/>
        <pt x="151" y="0" on="0"/>
        <pt x="110" y="41" on="1"/>
        <pt x="87" y="9" on="1"/>
        <pt x="78" y="-3" on="0"/>
        <pt x="66" y="5" on="1"/>
        <pt x="52" y="16" on="1"/>
        <pt x="41" y="24" on="0"/>
        <pt x="50" y="37" on="1"/>
        <pt x="84" y="84" on="1"/>
        <pt x="73" y="114" on="0"/>
        <pt x="73" y="148" on="1"/>
        <pt x="73" y="495" on="1"/>
        <pt x="73" y="565" on="0"/>
        <pt x="152" y="643" on="0"/>
        <pt x="221" y="643" on="1"/>
        <pt x="344" y="643" on="1"/>
        <pt x="415" y="643" on="0"/>
        <pt x="454" y="601" on="1"/>
        <pt x="477" y="633" on="1"/>
        <pt x="487" y="645" on="0"/>
        <pt x="498" y="637" on="1"/>
        <pt x="513" y="627" on="1"/>
        <pt x="524" y="620" on="0"/>
        <pt x="515" y="606" on="1"/>
        <pt x="481" y="558" on="1"/>
        <pt x="491" y="528" on="0"/>
      </contour>
      <contour>
        <pt x="146" y="492" on="1"/>
        <pt x="146" y="171" on="1"/>
        <pt x="410" y="539" on="1"/>
        <pt x="390" y="579" on="0"/>
        <pt x="335" y="579" on="1"/>
        <pt x="230" y="579" on="1"/>
        <pt x="146" y="579" on="0"/>
      </contour>
      <contour>
        <pt x="419" y="151" on="1"/>
        <pt x="419" y="472" on="1"/>
        <pt x="155" y="104" on="1"/>
        <pt x="173" y="64" on="0"/>
        <pt x="230" y="64" on="1"/>
        <pt x="335" y="64" on="1"/>
        <pt x="419" y="64" on="0"/>
      </contour>
      <contour>
        <pt x="289" y="707" on="1"/>
        <pt x="256" y="707" on="1"/>
        <pt x="242" y="707" on="0"/>
        <pt x="250" y="721" on="1"/>
        <pt x="308" y="823" on="1"/>
        <pt x="315" y="836" on="0"/>
        <pt x="329" y="836" on="1"/>
        <pt x="390" y="836" on="1"/>
        <pt x="396" y="836" on="0"/>
        <pt x="401" y="828" on="0"/>
        <pt x="396" y="822" on="1"/>
        <pt x="309" y="717" on="1"/>
        <pt x="301" y="707" on="0"/>
      </contour>
    </TTGlyph>
    <TTGlyph name="Otilde" xMin="69" yMin="0" xMax="484" yMax="832">
      <contour>
        <pt x="277" y="722" on="0"/>
        <pt x="250" y="702" on="0"/>
        <pt x="222" y="702" on="1"/>
        <pt x="166" y="702" on="0"/>
        <pt x="166" y="779" on="1"/>
        <pt x="166" y="818" on="1"/>
        <pt x="166" y="828" on="0"/>
        <pt x="175" y="828" on="1"/>
        <pt x="196" y="828" on="1"/>
        <pt x="205" y="828" on="0"/>
        <pt x="205" y="818" on="1"/>
        <pt x="205" y="792" on="1"/>
        <pt x="205" y="763" on="0"/>
        <pt x="215" y="743" on="0"/>
        <pt x="240" y="743" on="0"/>
        <pt x="253" y="759" on="0"/>
        <pt x="278" y="814" on="0"/>
        <pt x="303" y="832" on="0"/>
        <pt x="331" y="832" on="1"/>
        <pt x="386" y="832" on="0"/>
        <pt x="386" y="754" on="1"/>
        <pt x="386" y="715" on="1"/>
        <pt x="386" y="704" on="0"/>
        <pt x="378" y="704" on="1"/>
        <pt x="357" y="704" on="1"/>
        <pt x="347" y="704" on="0"/>
        <pt x="347" y="715" on="1"/>
        <pt x="347" y="742" on="1"/>
        <pt x="347" y="771" on="0"/>
        <pt x="337" y="790" on="0"/>
        <pt x="311" y="790" on="0"/>
        <pt x="301" y="778" on="0"/>
        <pt x="290" y="754" on="0"/>
        <pt x="289" y="753" on="1"/>
      </contour>
      <contour>
        <pt x="225" y="64" on="1"/>
        <pt x="327" y="64" on="1"/>
        <pt x="411" y="64" on="0"/>
        <pt x="411" y="151" on="1"/>
        <pt x="411" y="492" on="1"/>
        <pt x="411" y="579" on="0"/>
        <pt x="327" y="579" on="1"/>
        <pt x="225" y="579" on="1"/>
        <pt x="142" y="579" on="0"/>
        <pt x="142" y="492" on="1"/>
        <pt x="142" y="151" on="1"/>
        <pt x="142" y="64" on="0"/>
      </contour>
      <contour>
        <pt x="336" y="0" on="1"/>
        <pt x="217" y="0" on="1"/>
        <pt x="148" y="0" on="0"/>
        <pt x="69" y="78" on="0"/>
        <pt x="69" y="148" on="1"/>
        <pt x="69" y="495" on="1"/>
        <pt x="69" y="565" on="0"/>
        <pt x="148" y="643" on="0"/>
        <pt x="217" y="643" on="1"/>
        <pt x="336" y="643" on="1"/>
        <pt x="405" y="643" on="0"/>
        <pt x="484" y="564" on="0"/>
        <pt x="484" y="495" on="1"/>
        <pt x="484" y="148" on="1"/>
        <pt x="484" y="79" on="0"/>
        <pt x="405" y="0" on="0"/>
      </contour>
    </TTGlyph>
    <TTGlyph name="P" xMin="79" yMin="0" xMax="474" yMax="643">
      <contour>
        <pt x="138" y="0" on="1"/>
        <pt x="93" y="0" on="1"/>
        <pt x="79" y="0" on="0"/>
        <pt x="79" y="14" on="1"/>
        <pt x="79" y="629" on="1"/>
        <pt x="79" y="643" on="0"/>
        <pt x="93" y="643" on="1"/>
        <pt x="327" y="643" on="1"/>
        <pt x="396" y="643" on="0"/>
        <pt x="474" y="564" on="0"/>
        <pt x="474" y="495" on="1"/>
        <pt x="474" y="384" on="1"/>
        <pt x="474" y="314" on="0"/>
        <pt x="396" y="236" on="0"/>
        <pt x="327" y="236" on="1"/>
        <pt x="162" y="236" on="1"/>
        <pt x="152" y="236" on="0"/>
        <pt x="152" y="227" on="1"/>
        <pt x="152" y="14" on="1"/>
        <pt x="152" y="0" on="0"/>
      </contour>
      <contour>
        <pt x="162" y="301" on="1"/>
        <pt x="317" y="301" on="1"/>
        <pt x="401" y="301" on="0"/>
        <pt x="401" y="387" on="1"/>
        <pt x="401" y="492" on="1"/>
        <pt x="401" y="579" on="0"/>
        <pt x="317" y="579" on="1"/>
        <pt x="162" y="579" on="1"/>
        <pt x="152" y="579" on="0"/>
        <pt x="152" y="570" on="1"/>
        <pt x="152" y="310" on="1"/>
        <pt x="152" y="301" on="0"/>
      </contour>
    </TTGlyph>
    <TTGlyph name="Pi" xMin="36" yMin="0" xMax="586" yMax="643">
      <contour>
        <pt x="202" y="0" on="1"/>
        <pt x="157" y="0" on="1"/>
        <pt x="143" y="0" on="0"/>
        <pt x="143" y="14" on="1"/>
        <pt x="143" y="569" on="1"/>
        <pt x="143" y="577" on="0"/>
        <pt x="133" y="577" on="1"/>
        <pt x="51" y="577" on="1"/>
        <pt x="36" y="577" on="0"/>
        <pt x="36" y="592" on="1"/>
        <pt x="36" y="629" on="1"/>
        <pt x="36" y="643" on="0"/>
        <pt x="51" y="643" on="1"/>
        <pt x="572" y="643" on="1"/>
        <pt x="586" y="643" on="0"/>
        <pt x="586" y="629" on="1"/>
        <pt x="586" y="592" on="1"/>
        <pt x="586" y="577" on="0"/>
        <pt x="572" y="577" on="1"/>
        <pt x="489" y="577" on="1"/>
        <pt x="479" y="577" on="0"/>
        <pt x="479" y="568" on="1"/>
        <pt x="479" y="14" on="1"/>
        <pt x="479" y="0" on="0"/>
        <pt x="465" y="0" on="1"/>
        <pt x="420" y="0" on="1"/>
        <pt x="406" y="0" on="0"/>
        <pt x="406" y="14" on="1"/>
        <pt x="406" y="568" on="1"/>
        <pt x="406" y="577" on="0"/>
        <pt x="397" y="577" on="1"/>
        <pt x="226" y="577" on="1"/>
        <pt x="216" y="577" on="0"/>
        <pt x="216" y="568" on="1"/>
        <pt x="216" y="14" on="1"/>
        <pt x="216" y="0" on="0"/>
      </contour>
    </TTGlyph>
    <TTGlyph name="Q" xMin="73" yMin="-133" xMax="487" yMax="643">
      <contour>
        <pt x="229" y="64" on="1"/>
        <pt x="331" y="64" on="1"/>
        <pt x="415" y="64" on="0"/>
        <pt x="415" y="151" on="1"/>
        <pt x="415" y="492" on="1"/>
        <pt x="415" y="579" on="0"/>
        <pt x="331" y="579" on="1"/>
        <pt x="229" y="579" on="1"/>
        <pt x="146" y="579" on="0"/>
        <pt x="146" y="492" on="1"/>
        <pt x="146" y="151" on="1"/>
        <pt x="146" y="64" on="0"/>
      </contour>
      <contour>
        <pt x="421" y="-133" on="1"/>
        <pt x="380" y="-133" on="1"/>
        <pt x="362" y="-133" on="0"/>
        <pt x="354" y="-119" on="1"/>
        <pt x="282" y="0" on="1"/>
        <pt x="220" y="0" on="1"/>
        <pt x="152" y="0" on="0"/>
        <pt x="73" y="78" on="0"/>
        <pt x="73" y="148" on="1"/>
        <pt x="73" y="495" on="1"/>
        <pt x="73" y="564" on="0"/>
        <pt x="152" y="643" on="0"/>
        <pt x="220" y="643" on="1"/>
        <pt x="339" y="643" on="1"/>
        <pt x="408" y="643" on="0"/>
        <pt x="487" y="565" on="0"/>
        <pt x="487" y="495" on="1"/>
        <pt x="487" y="148" on="1"/>
        <pt x="487" y="84" on="0"/>
        <pt x="419" y="7" on="0"/>
        <pt x="359" y="2" on="1"/>
        <pt x="430" y="-117" on="1"/>
        <pt x="434" y="-124" on="0"/>
        <pt x="428" y="-133" on="0"/>
      </contour>
    </TTGlyph>
    <TTGlyph name="R" xMin="79" yMin="0" xMax="486" yMax="643">
      <contour>
        <pt x="138" y="0" on="1"/>
        <pt x="93" y="0" on="1"/>
        <pt x="79" y="0" on="0"/>
        <pt x="79" y="14" on="1"/>
        <pt x="79" y="629" on="1"/>
        <pt x="79" y="643" on="0"/>
        <pt x="93" y="643" on="1"/>
        <pt x="323" y="643" on="1"/>
        <pt x="392" y="643" on="0"/>
        <pt x="472" y="564" on="0"/>
        <pt x="472" y="495" on="1"/>
        <pt x="472" y="404" on="1"/>
        <pt x="472" y="348" on="0"/>
        <pt x="418" y="275" on="0"/>
        <pt x="370" y="263" on="1"/>
        <pt x="370" y="259" on="1"/>
        <pt x="486" y="16" on="1"/>
        <pt x="495" y="0" on="0"/>
        <pt x="476" y="0" on="1"/>
        <pt x="431" y="0" on="1"/>
        <pt x="414" y="0" on="0"/>
        <pt x="406" y="14" on="1"/>
        <pt x="294" y="256" on="1"/>
        <pt x="162" y="256" on="1"/>
        <pt x="152" y="256" on="0"/>
        <pt x="152" y="247" on="1"/>
        <pt x="152" y="14" on="1"/>
        <pt x="152" y="0" on="0"/>
      </contour>
      <contour>
        <pt x="162" y="317" on="1"/>
        <pt x="313" y="317" on="1"/>
        <pt x="399" y="317" on="0"/>
        <pt x="399" y="403" on="1"/>
        <pt x="399" y="492" on="1"/>
        <pt x="399" y="579" on="0"/>
        <pt x="313" y="579" on="1"/>
        <pt x="162" y="579" on="1"/>
        <pt x="152" y="579" on="0"/>
        <pt x="152" y="570" on="1"/>
        <pt x="152" y="326" on="1"/>
        <pt x="152" y="317" on="0"/>
      </contour>
    </TTGlyph>
    <TTGlyph name="Racute" xMin="79" yMin="0" xMax="486" yMax="836">
      <contour>
        <pt x="302" y="836" on="1"/>
        <pt x="363" y="836" on="1"/>
        <pt x="369" y="836" on="0"/>
        <pt x="373" y="828" on="0"/>
        <pt x="369" y="822" on="1"/>
        <pt x="282" y="717" on="1"/>
        <pt x="274" y="707" on="0"/>
        <pt x="262" y="707" on="1"/>
        <pt x="229" y="707" on="1"/>
        <pt x="215" y="707" on="0"/>
        <pt x="223" y="721" on="1"/>
        <pt x="281" y="823" on="1"/>
        <pt x="287" y="836" on="0"/>
      </contour>
      <contour>
        <pt x="138" y="0" on="1"/>
        <pt x="93" y="0" on="1"/>
        <pt x="79" y="0" on="0"/>
        <pt x="79" y="14" on="1"/>
        <pt x="79" y="629" on="1"/>
        <pt x="79" y="643" on="0"/>
        <pt x="93" y="643" on="1"/>
        <pt x="323" y="643" on="1"/>
        <pt x="392" y="643" on="0"/>
        <pt x="472" y="564" on="0"/>
        <pt x="472" y="495" on="1"/>
        <pt x="472" y="404" on="1"/>
        <pt x="472" y="348" on="0"/>
        <pt x="418" y="275" on="0"/>
        <pt x="370" y="263" on="1"/>
        <pt x="370" y="259" on="1"/>
        <pt x="486" y="16" on="1"/>
        <pt x="495" y="0" on="0"/>
        <pt x="476" y="0" on="1"/>
        <pt x="431" y="0" on="1"/>
        <pt x="414" y="0" on="0"/>
        <pt x="406" y="14" on="1"/>
        <pt x="294" y="256" on="1"/>
        <pt x="162" y="256" on="1"/>
        <pt x="152" y="256" on="0"/>
        <pt x="152" y="247" on="1"/>
        <pt x="152" y="14" on="1"/>
        <pt x="152" y="0" on="0"/>
      </contour>
      <contour>
        <pt x="162" y="317" on="1"/>
        <pt x="313" y="317" on="1"/>
        <pt x="399" y="317" on="0"/>
        <pt x="399" y="403" on="1"/>
        <pt x="399" y="492" on="1"/>
        <pt x="399" y="579" on="0"/>
        <pt x="313" y="579" on="1"/>
        <pt x="162" y="579" on="1"/>
        <pt x="152" y="579" on="0"/>
        <pt x="152" y="570" on="1"/>
        <pt x="152" y="326" on="1"/>
        <pt x="152" y="317" on="0"/>
      </contour>
    </TTGlyph>
    <TTGlyph name="Rcaron" xMin="79" yMin="0" xMax="486" yMax="836">
      <contour>
        <pt x="239" y="707" on="1"/>
        <pt x="226" y="707" on="0"/>
        <pt x="219" y="717" on="1"/>
        <pt x="155" y="824" on="1"/>
        <pt x="148" y="836" on="0"/>
        <pt x="161" y="836" on="1"/>
        <pt x="195" y="836" on="1"/>
        <pt x="205" y="836" on="0"/>
        <pt x="209" y="828" on="1"/>
        <pt x="256" y="740" on="1"/>
        <pt x="303" y="828" on="1"/>
        <pt x="307" y="836" on="0"/>
        <pt x="317" y="836" on="1"/>
        <pt x="352" y="836" on="1"/>
        <pt x="364" y="836" on="0"/>
        <pt x="357" y="824" on="1"/>
        <pt x="294" y="717" on="1"/>
        <pt x="287" y="707" on="0"/>
        <pt x="273" y="707" on="1"/>
      </contour>
      <contour>
        <pt x="138" y="0" on="1"/>
        <pt x="93" y="0" on="1"/>
        <pt x="79" y="0" on="0"/>
        <pt x="79" y="14" on="1"/>
        <pt x="79" y="629" on="1"/>
        <pt x="79" y="643" on="0"/>
        <pt x="93" y="643" on="1"/>
        <pt x="323" y="643" on="1"/>
        <pt x="392" y="643" on="0"/>
        <pt x="472" y="564" on="0"/>
        <pt x="472" y="495" on="1"/>
        <pt x="472" y="404" on="1"/>
        <pt x="472" y="348" on="0"/>
        <pt x="418" y="275" on="0"/>
        <pt x="370" y="263" on="1"/>
        <pt x="370" y="259" on="1"/>
        <pt x="486" y="16" on="1"/>
        <pt x="495" y="0" on="0"/>
        <pt x="476" y="0" on="1"/>
        <pt x="431" y="0" on="1"/>
        <pt x="414" y="0" on="0"/>
        <pt x="406" y="14" on="1"/>
        <pt x="294" y="256" on="1"/>
        <pt x="162" y="256" on="1"/>
        <pt x="152" y="256" on="0"/>
        <pt x="152" y="247" on="1"/>
        <pt x="152" y="14" on="1"/>
        <pt x="152" y="0" on="0"/>
      </contour>
      <contour>
        <pt x="162" y="317" on="1"/>
        <pt x="313" y="317" on="1"/>
        <pt x="399" y="317" on="0"/>
        <pt x="399" y="403" on="1"/>
        <pt x="399" y="492" on="1"/>
        <pt x="399" y="579" on="0"/>
        <pt x="313" y="579" on="1"/>
        <pt x="162" y="579" on="1"/>
        <pt x="152" y="579" on="0"/>
        <pt x="152" y="570" on="1"/>
        <pt x="152" y="326" on="1"/>
        <pt x="152" y="317" on="0"/>
      </contour>
    </TTGlyph>
    <TTGlyph name="S" xMin="72" yMin="0" xMax="483" yMax="643">
      <contour>
        <pt x="72" y="148" on="1"/>
        <pt x="72" y="180" on="1"/>
        <pt x="72" y="194" on="0"/>
        <pt x="86" y="194" on="1"/>
        <pt x="131" y="194" on="1"/>
        <pt x="145" y="194" on="0"/>
        <pt x="145" y="180" on="1"/>
        <pt x="145" y="154" on="1"/>
        <pt x="145" y="64" on="0"/>
        <pt x="234" y="64" on="1"/>
        <pt x="322" y="64" on="1"/>
        <pt x="411" y="64" on="0"/>
        <pt x="411" y="156" on="1"/>
        <pt x="411" y="190" on="1"/>
        <pt x="411" y="262" on="0"/>
        <pt x="292" y="284" on="1"/>
        <pt x="242" y="293" on="0"/>
        <pt x="142" y="317" on="0"/>
        <pt x="72" y="386" on="0"/>
        <pt x="72" y="446" on="1"/>
        <pt x="72" y="495" on="1"/>
        <pt x="72" y="564" on="0"/>
        <pt x="151" y="643" on="0"/>
        <pt x="220" y="643" on="1"/>
        <pt x="331" y="643" on="1"/>
        <pt x="399" y="643" on="0"/>
        <pt x="479" y="564" on="0"/>
        <pt x="479" y="495" on="1"/>
        <pt x="479" y="470" on="1"/>
        <pt x="479" y="455" on="0"/>
        <pt x="466" y="455" on="1"/>
        <pt x="420" y="455" on="1"/>
        <pt x="407" y="455" on="0"/>
        <pt x="407" y="470" on="1"/>
        <pt x="407" y="488" on="1"/>
        <pt x="407" y="579" on="0"/>
        <pt x="318" y="579" on="1"/>
        <pt x="233" y="579" on="1"/>
        <pt x="144" y="579" on="0"/>
        <pt x="144" y="484" on="1"/>
        <pt x="144" y="444" on="1"/>
        <pt x="144" y="393" on="0"/>
        <pt x="211" y="374" on="1"/>
        <pt x="241" y="366" on="0"/>
        <pt x="313" y="353" on="0"/>
        <pt x="386" y="332" on="0"/>
        <pt x="446" y="301" on="0"/>
        <pt x="483" y="238" on="0"/>
        <pt x="483" y="193" on="1"/>
        <pt x="483" y="148" on="1"/>
        <pt x="483" y="79" on="0"/>
        <pt x="403" y="0" on="0"/>
        <pt x="335" y="0" on="1"/>
        <pt x="220" y="0" on="1"/>
        <pt x="152" y="0" on="0"/>
        <pt x="72" y="79" on="0"/>
      </contour>
    </TTGlyph>
    <TTGlyph name="Sacute" xMin="72" yMin="0" xMax="483" yMax="836">
      <contour>
        <pt x="72" y="148" on="1"/>
        <pt x="72" y="180" on="1"/>
        <pt x="72" y="194" on="0"/>
        <pt x="86" y="194" on="1"/>
        <pt x="131" y="194" on="1"/>
        <pt x="145" y="194" on="0"/>
        <pt x="145" y="180" on="1"/>
        <pt x="145" y="154" on="1"/>
        <pt x="145" y="64" on="0"/>
        <pt x="234" y="64" on="1"/>
        <pt x="322" y="64" on="1"/>
        <pt x="411" y="64" on="0"/>
        <pt x="411" y="156" on="1"/>
        <pt x="411" y="190" on="1"/>
        <pt x="411" y="262" on="0"/>
        <pt x="292" y="284" on="1"/>
        <pt x="242" y="293" on="0"/>
        <pt x="142" y="317" on="0"/>
        <pt x="72" y="386" on="0"/>
        <pt x="72" y="446" on="1"/>
        <pt x="72" y="495" on="1"/>
        <pt x="72" y="564" on="0"/>
        <pt x="151" y="643" on="0"/>
        <pt x="220" y="643" on="1"/>
        <pt x="331" y="643" on="1"/>
        <pt x="399" y="643" on="0"/>
        <pt x="479" y="564" on="0"/>
        <pt x="479" y="495" on="1"/>
        <pt x="479" y="470" on="1"/>
        <pt x="479" y="455" on="0"/>
        <pt x="466" y="455" on="1"/>
        <pt x="420" y="455" on="1"/>
        <pt x="407" y="455" on="0"/>
        <pt x="407" y="470" on="1"/>
        <pt x="407" y="488" on="1"/>
        <pt x="407" y="579" on="0"/>
        <pt x="318" y="579" on="1"/>
        <pt x="233" y="579" on="1"/>
        <pt x="144" y="579" on="0"/>
        <pt x="144" y="484" on="1"/>
        <pt x="144" y="444" on="1"/>
        <pt x="144" y="393" on="0"/>
        <pt x="211" y="374" on="1"/>
        <pt x="241" y="366" on="0"/>
        <pt x="313" y="353" on="0"/>
        <pt x="386" y="332" on="0"/>
        <pt x="446" y="301" on="0"/>
        <pt x="483" y="238" on="0"/>
        <pt x="483" y="193" on="1"/>
        <pt x="483" y="148" on="1"/>
        <pt x="483" y="79" on="0"/>
        <pt x="403" y="0" on="0"/>
        <pt x="335" y="0" on="1"/>
        <pt x="220" y="0" on="1"/>
        <pt x="152" y="0" on="0"/>
        <pt x="72" y="79" on="0"/>
      </contour>
      <contour>
        <pt x="321" y="836" on="1"/>
        <pt x="381" y="836" on="1"/>
        <pt x="388" y="836" on="0"/>
        <pt x="392" y="828" on="0"/>
        <pt x="388" y="822" on="1"/>
        <pt x="300" y="717" on="1"/>
        <pt x="292" y="707" on="0"/>
        <pt x="281" y="707" on="1"/>
        <pt x="248" y="707" on="1"/>
        <pt x="233" y="707" on="0"/>
        <pt x="241" y="721" on="1"/>
        <pt x="299" y="823" on="1"/>
        <pt x="306" y="836" on="0"/>
      </contour>
    </TTGlyph>
    <TTGlyph name="Scaron" xMin="72" yMin="0" xMax="483" yMax="836">
      <contour>
        <pt x="72" y="148" on="1"/>
        <pt x="72" y="180" on="1"/>
        <pt x="72" y="194" on="0"/>
        <pt x="86" y="194" on="1"/>
        <pt x="131" y="194" on="1"/>
        <pt x="145" y="194" on="0"/>
        <pt x="145" y="180" on="1"/>
        <pt x="145" y="154" on="1"/>
        <pt x="145" y="64" on="0"/>
        <pt x="234" y="64" on="1"/>
        <pt x="322" y="64" on="1"/>
        <pt x="411" y="64" on="0"/>
        <pt x="411" y="156" on="1"/>
        <pt x="411" y="190" on="1"/>
        <pt x="411" y="262" on="0"/>
        <pt x="292" y="284" on="1"/>
        <pt x="242" y="293" on="0"/>
        <pt x="142" y="317" on="0"/>
        <pt x="72" y="386" on="0"/>
        <pt x="72" y="446" on="1"/>
        <pt x="72" y="495" on="1"/>
        <pt x="72" y="564" on="0"/>
        <pt x="151" y="643" on="0"/>
        <pt x="220" y="643" on="1"/>
        <pt x="331" y="643" on="1"/>
        <pt x="399" y="643" on="0"/>
        <pt x="479" y="564" on="0"/>
        <pt x="479" y="495" on="1"/>
        <pt x="479" y="470" on="1"/>
        <pt x="479" y="455" on="0"/>
        <pt x="466" y="455" on="1"/>
        <pt x="420" y="455" on="1"/>
        <pt x="407" y="455" on="0"/>
        <pt x="407" y="470" on="1"/>
        <pt x="407" y="488" on="1"/>
        <pt x="407" y="579" on="0"/>
        <pt x="318" y="579" on="1"/>
        <pt x="233" y="579" on="1"/>
        <pt x="144" y="579" on="0"/>
        <pt x="144" y="484" on="1"/>
        <pt x="144" y="444" on="1"/>
        <pt x="144" y="393" on="0"/>
        <pt x="211" y="374" on="1"/>
        <pt x="241" y="366" on="0"/>
        <pt x="313" y="353" on="0"/>
        <pt x="386" y="332" on="0"/>
        <pt x="446" y="301" on="0"/>
        <pt x="483" y="238" on="0"/>
        <pt x="483" y="193" on="1"/>
        <pt x="483" y="148" on="1"/>
        <pt x="483" y="79" on="0"/>
        <pt x="403" y="0" on="0"/>
        <pt x="335" y="0" on="1"/>
        <pt x="220" y="0" on="1"/>
        <pt x="152" y="0" on="0"/>
        <pt x="72" y="79" on="0"/>
      </contour>
      <contour>
        <pt x="292" y="707" on="1"/>
        <pt x="257" y="707" on="1"/>
        <pt x="244" y="707" on="0"/>
        <pt x="237" y="717" on="1"/>
        <pt x="174" y="824" on="1"/>
        <pt x="167" y="836" on="0"/>
        <pt x="179" y="836" on="1"/>
        <pt x="213" y="836" on="1"/>
        <pt x="223" y="836" on="0"/>
        <pt x="227" y="828" on="1"/>
        <pt x="274" y="740" on="1"/>
        <pt x="322" y="828" on="1"/>
        <pt x="325" y="836" on="0"/>
        <pt x="336" y="836" on="1"/>
        <pt x="370" y="836" on="1"/>
        <pt x="382" y="836" on="0"/>
        <pt x="375" y="824" on="1"/>
        <pt x="312" y="717" on="1"/>
        <pt x="305" y="707" on="0"/>
      </contour>
    </TTGlyph>
    <TTGlyph name="Scircumflex" xMin="72" yMin="0" xMax="483" yMax="836">
      <contour>
        <pt x="72" y="148" on="1"/>
        <pt x="72" y="180" on="1"/>
        <pt x="72" y="194" on="0"/>
        <pt x="86" y="194" on="1"/>
        <pt x="131" y="194" on="1"/>
        <pt x="145" y="194" on="0"/>
        <pt x="145" y="180" on="1"/>
        <pt x="145" y="154" on="1"/>
        <pt x="145" y="64" on="0"/>
        <pt x="234" y="64" on="1"/>
        <pt x="322" y="64" on="1"/>
        <pt x="411" y="64" on="0"/>
        <pt x="411" y="156" on="1"/>
        <pt x="411" y="190" on="1"/>
        <pt x="411" y="262" on="0"/>
        <pt x="292" y="284" on="1"/>
        <pt x="242" y="293" on="0"/>
        <pt x="142" y="317" on="0"/>
        <pt x="72" y="386" on="0"/>
        <pt x="72" y="446" on="1"/>
        <pt x="72" y="495" on="1"/>
        <pt x="72" y="564" on="0"/>
        <pt x="151" y="643" on="0"/>
        <pt x="220" y="643" on="1"/>
        <pt x="331" y="643" on="1"/>
        <pt x="399" y="643" on="0"/>
        <pt x="479" y="564" on="0"/>
        <pt x="479" y="495" on="1"/>
        <pt x="479" y="470" on="1"/>
        <pt x="479" y="455" on="0"/>
        <pt x="466" y="455" on="1"/>
        <pt x="420" y="455" on="1"/>
        <pt x="407" y="455" on="0"/>
        <pt x="407" y="470" on="1"/>
        <pt x="407" y="488" on="1"/>
        <pt x="407" y="579" on="0"/>
        <pt x="318" y="579" on="1"/>
        <pt x="233" y="579" on="1"/>
        <pt x="144" y="579" on="0"/>
        <pt x="144" y="484" on="1"/>
        <pt x="144" y="444" on="1"/>
        <pt x="144" y="393" on="0"/>
        <pt x="211" y="374" on="1"/>
        <pt x="241" y="366" on="0"/>
        <pt x="313" y="353" on="0"/>
        <pt x="386" y="332" on="0"/>
        <pt x="446" y="301" on="0"/>
        <pt x="483" y="238" on="0"/>
        <pt x="483" y="193" on="1"/>
        <pt x="483" y="148" on="1"/>
        <pt x="483" y="79" on="0"/>
        <pt x="403" y="0" on="0"/>
        <pt x="335" y="0" on="1"/>
        <pt x="220" y="0" on="1"/>
        <pt x="152" y="0" on="0"/>
        <pt x="72" y="79" on="0"/>
      </contour>
      <contour>
        <pt x="373" y="707" on="1"/>
        <pt x="339" y="707" on="1"/>
        <pt x="329" y="707" on="0"/>
        <pt x="325" y="715" on="1"/>
        <pt x="278" y="803" on="1"/>
        <pt x="230" y="715" on="1"/>
        <pt x="227" y="707" on="0"/>
        <pt x="217" y="707" on="1"/>
        <pt x="183" y="707" on="1"/>
        <pt x="170" y="707" on="0"/>
        <pt x="177" y="719" on="1"/>
        <pt x="240" y="826" on="1"/>
        <pt x="247" y="836" on="0"/>
        <pt x="261" y="836" on="1"/>
        <pt x="295" y="836" on="1"/>
        <pt x="308" y="836" on="0"/>
        <pt x="315" y="826" on="1"/>
        <pt x="379" y="719" on="1"/>
        <pt x="386" y="707" on="0"/>
      </contour>
    </TTGlyph>
    <TTGlyph name="Sigma" xMin="62" yMin="0" xMax="429" yMax="643">
      <contour>
        <pt x="62" y="594" on="1"/>
        <pt x="62" y="629" on="1"/>
        <pt x="62" y="643" on="0"/>
        <pt x="76" y="643" on="1"/>
        <pt x="414" y="643" on="1"/>
        <pt x="428" y="643" on="0"/>
        <pt x="428" y="629" on="1"/>
        <pt x="428" y="589" on="1"/>
        <pt x="428" y="574" on="0"/>
        <pt x="414" y="574" on="1"/>
        <pt x="147" y="574" on="1"/>
        <pt x="147" y="570" on="1"/>
        <pt x="300" y="337" on="1"/>
        <pt x="311" y="318" on="0"/>
        <pt x="300" y="300" on="1"/>
        <pt x="147" y="72" on="1"/>
        <pt x="147" y="68" on="1"/>
        <pt x="414" y="68" on="1"/>
        <pt x="429" y="68" on="0"/>
        <pt x="429" y="53" on="1"/>
        <pt x="429" y="13" on="1"/>
        <pt x="429" y="0" on="0"/>
        <pt x="414" y="0" on="1"/>
        <pt x="76" y="0" on="1"/>
        <pt x="62" y="0" on="0"/>
        <pt x="62" y="14" on="1"/>
        <pt x="62" y="48" on="1"/>
        <pt x="62" y="64" on="0"/>
        <pt x="70" y="78" on="1"/>
        <pt x="227" y="317" on="1"/>
        <pt x="227" y="321" on="1"/>
        <pt x="69" y="565" on="1"/>
        <pt x="62" y="576" on="0"/>
      </contour>
    </TTGlyph>
    <TTGlyph name="T" xMin="16" yMin="0" xMax="411" yMax="643">
      <contour>
        <pt x="236" y="0" on="1"/>
        <pt x="191" y="0" on="1"/>
        <pt x="177" y="0" on="0"/>
        <pt x="177" y="14" on="1"/>
        <pt x="177" y="570" on="1"/>
        <pt x="177" y="579" on="0"/>
        <pt x="167" y="579" on="1"/>
        <pt x="31" y="579" on="1"/>
        <pt x="16" y="579" on="0"/>
        <pt x="16" y="593" on="1"/>
        <pt x="16" y="629" on="1"/>
        <pt x="16" y="643" on="0"/>
        <pt x="31" y="643" on="1"/>
        <pt x="396" y="643" on="1"/>
        <pt x="411" y="643" on="0"/>
        <pt x="411" y="629" on="1"/>
        <pt x="411" y="593" on="1"/>
        <pt x="411" y="579" on="0"/>
        <pt x="396" y="579" on="1"/>
        <pt x="260" y="579" on="1"/>
        <pt x="250" y="579" on="0"/>
        <pt x="250" y="570" on="1"/>
        <pt x="250" y="14" on="1"/>
        <pt x="250" y="0" on="0"/>
      </contour>
    </TTGlyph>
    <TTGlyph name="Tbar" xMin="24" yMin="0" xMax="425" yMax="643">
      <contour>
        <pt x="247" y="0" on="1"/>
        <pt x="202" y="0" on="1"/>
        <pt x="188" y="0" on="0"/>
        <pt x="188" y="14" on="1"/>
        <pt x="188" y="303" on="1"/>
        <pt x="188" y="312" on="0"/>
        <pt x="178" y="312" on="1"/>
        <pt x="93" y="312" on="1"/>
        <pt x="79" y="312" on="0"/>
        <pt x="79" y="326" on="1"/>
        <pt x="79" y="355" on="1"/>
        <pt x="79" y="369" on="0"/>
        <pt x="93" y="369" on="1"/>
        <pt x="178" y="369" on="1"/>
        <pt x="188" y="369" on="0"/>
        <pt x="188" y="379" on="1"/>
        <pt x="188" y="570" on="1"/>
        <pt x="188" y="579" on="0"/>
        <pt x="178" y="579" on="1"/>
        <pt x="38" y="579" on="1"/>
        <pt x="24" y="579" on="0"/>
        <pt x="24" y="593" on="1"/>
        <pt x="24" y="629" on="1"/>
        <pt x="24" y="643" on="0"/>
        <pt x="38" y="643" on="1"/>
        <pt x="411" y="643" on="1"/>
        <pt x="425" y="643" on="0"/>
        <pt x="425" y="629" on="1"/>
        <pt x="425" y="593" on="1"/>
        <pt x="425" y="579" on="0"/>
        <pt x="411" y="579" on="1"/>
        <pt x="271" y="579" on="1"/>
        <pt x="261" y="579" on="0"/>
        <pt x="261" y="570" on="1"/>
        <pt x="261" y="379" on="1"/>
        <pt x="261" y="369" on="0"/>
        <pt x="271" y="369" on="1"/>
        <pt x="362" y="369" on="1"/>
        <pt x="376" y="369" on="0"/>
        <pt x="376" y="355" on="1"/>
        <pt x="376" y="326" on="1"/>
        <pt x="376" y="312" on="0"/>
        <pt x="362" y="312" on="1"/>
        <pt x="271" y="312" on="1"/>
        <pt x="261" y="312" on="0"/>
        <pt x="261" y="303" on="1"/>
        <pt x="261" y="14" on="1"/>
        <pt x="261" y="0" on="0"/>
      </contour>
    </TTGlyph>
    <TTGlyph name="Tcaron" xMin="16" yMin="0" xMax="411" yMax="836">
      <contour>
        <pt x="198" y="707" on="1"/>
        <pt x="184" y="707" on="0"/>
        <pt x="177" y="717" on="1"/>
        <pt x="114" y="824" on="1"/>
        <pt x="107" y="836" on="0"/>
        <pt x="120" y="836" on="1"/>
        <pt x="153" y="836" on="1"/>
        <pt x="164" y="836" on="0"/>
        <pt x="167" y="828" on="1"/>
        <pt x="215" y="740" on="1"/>
        <pt x="262" y="828" on="1"/>
        <pt x="266" y="836" on="0"/>
        <pt x="276" y="836" on="1"/>
        <pt x="310" y="836" on="1"/>
        <pt x="323" y="836" on="0"/>
        <pt x="316" y="824" on="1"/>
        <pt x="252" y="717" on="1"/>
        <pt x="245" y="707" on="0"/>
        <pt x="232" y="707" on="1"/>
      </contour>
      <contour>
        <pt x="236" y="0" on="1"/>
        <pt x="191" y="0" on="1"/>
        <pt x="177" y="0" on="0"/>
        <pt x="177" y="14" on="1"/>
        <pt x="177" y="570" on="1"/>
        <pt x="177" y="579" on="0"/>
        <pt x="167" y="579" on="1"/>
        <pt x="31" y="579" on="1"/>
        <pt x="16" y="579" on="0"/>
        <pt x="16" y="593" on="1"/>
        <pt x="16" y="629" on="1"/>
        <pt x="16" y="643" on="0"/>
        <pt x="31" y="643" on="1"/>
        <pt x="396" y="643" on="1"/>
        <pt x="411" y="643" on="0"/>
        <pt x="411" y="629" on="1"/>
        <pt x="411" y="593" on="1"/>
        <pt x="411" y="579" on="0"/>
        <pt x="396" y="579" on="1"/>
        <pt x="260" y="579" on="1"/>
        <pt x="250" y="579" on="0"/>
        <pt x="250" y="570" on="1"/>
        <pt x="250" y="14" on="1"/>
        <pt x="250" y="0" on="0"/>
      </contour>
    </TTGlyph>
    <TTGlyph name="Thorn" xMin="105" yMin="0" xMax="441" yMax="643">
      <contour>
        <pt x="187" y="197" on="1"/>
        <pt x="284" y="197" on="1"/>
        <pt x="368" y="197" on="0"/>
        <pt x="368" y="283" on="1"/>
        <pt x="368" y="359" on="1"/>
        <pt x="368" y="446" on="0"/>
        <pt x="284" y="446" on="1"/>
        <pt x="187" y="446" on="1"/>
        <pt x="177" y="446" on="0"/>
        <pt x="177" y="437" on="1"/>
        <pt x="177" y="206" on="1"/>
        <pt x="177" y="197" on="0"/>
      </contour>
      <contour>
        <pt x="164" y="0" on="1"/>
        <pt x="118" y="0" on="1"/>
        <pt x="105" y="0" on="0"/>
        <pt x="105" y="14" on="1"/>
        <pt x="105" y="629" on="1"/>
        <pt x="105" y="643" on="0"/>
        <pt x="118" y="643" on="1"/>
        <pt x="164" y="643" on="1"/>
        <pt x="177" y="643" on="0"/>
        <pt x="177" y="629" on="1"/>
        <pt x="177" y="519" on="1"/>
        <pt x="177" y="510" on="0"/>
        <pt x="188" y="510" on="1"/>
        <pt x="294" y="510" on="1"/>
        <pt x="362" y="510" on="0"/>
        <pt x="441" y="432" on="0"/>
        <pt x="441" y="362" on="1"/>
        <pt x="441" y="280" on="1"/>
        <pt x="441" y="210" on="0"/>
        <pt x="362" y="132" on="0"/>
        <pt x="294" y="132" on="1"/>
        <pt x="188" y="132" on="1"/>
        <pt x="177" y="132" on="0"/>
        <pt x="177" y="123" on="1"/>
        <pt x="177" y="14" on="1"/>
        <pt x="177" y="0" on="0"/>
      </contour>
    </TTGlyph>
    <TTGlyph name="U" xMin="74" yMin="0" xMax="480" yMax="643">
      <contour>
        <pt x="421" y="643" on="1"/>
        <pt x="466" y="643" on="1"/>
        <pt x="480" y="643" on="0"/>
        <pt x="480" y="630" on="1"/>
        <pt x="480" y="148" on="1"/>
        <pt x="480" y="78" on="0"/>
        <pt x="402" y="0" on="0"/>
        <pt x="333" y="0" on="1"/>
        <pt x="222" y="0" on="1"/>
        <pt x="153" y="0" on="0"/>
        <pt x="74" y="78" on="0"/>
        <pt x="74" y="148" on="1"/>
        <pt x="74" y="629" on="1"/>
        <pt x="74" y="643" on="0"/>
        <pt x="88" y="643" on="1"/>
        <pt x="133" y="643" on="1"/>
        <pt x="147" y="643" on="0"/>
        <pt x="147" y="629" on="1"/>
        <pt x="147" y="151" on="1"/>
        <pt x="147" y="64" on="0"/>
        <pt x="230" y="64" on="1"/>
        <pt x="324" y="64" on="1"/>
        <pt x="408" y="64" on="0"/>
        <pt x="408" y="151" on="1"/>
        <pt x="408" y="629" on="1"/>
        <pt x="408" y="643" on="0"/>
      </contour>
    </TTGlyph>
    <TTGlyph name="Uacute" xMin="74" yMin="0" xMax="480" yMax="836">
      <contour>
        <pt x="328" y="836" on="1"/>
        <pt x="388" y="836" on="1"/>
        <pt x="395" y="836" on="0"/>
        <pt x="399" y="828" on="0"/>
        <pt x="395" y="822" on="1"/>
        <pt x="307" y="717" on="1"/>
        <pt x="300" y="707" on="0"/>
        <pt x="288" y="707" on="1"/>
        <pt x="255" y="707" on="1"/>
        <pt x="241" y="707" on="0"/>
        <pt x="249" y="721" on="1"/>
        <pt x="306" y="823" on="1"/>
        <pt x="313" y="836" on="0"/>
      </contour>
      <contour>
        <pt x="421" y="643" on="1"/>
        <pt x="466" y="643" on="1"/>
        <pt x="480" y="643" on="0"/>
        <pt x="480" y="630" on="1"/>
        <pt x="480" y="148" on="1"/>
        <pt x="480" y="78" on="0"/>
        <pt x="402" y="0" on="0"/>
        <pt x="333" y="0" on="1"/>
        <pt x="222" y="0" on="1"/>
        <pt x="153" y="0" on="0"/>
        <pt x="74" y="78" on="0"/>
        <pt x="74" y="148" on="1"/>
        <pt x="74" y="629" on="1"/>
        <pt x="74" y="643" on="0"/>
        <pt x="88" y="643" on="1"/>
        <pt x="133" y="643" on="1"/>
        <pt x="147" y="643" on="0"/>
        <pt x="147" y="629" on="1"/>
        <pt x="147" y="151" on="1"/>
        <pt x="147" y="64" on="0"/>
        <pt x="230" y="64" on="1"/>
        <pt x="324" y="64" on="1"/>
        <pt x="408" y="64" on="0"/>
        <pt x="408" y="151" on="1"/>
        <pt x="408" y="629" on="1"/>
        <pt x="408" y="643" on="0"/>
      </contour>
    </TTGlyph>
    <TTGlyph name="Ubreve" xMin="74" yMin="0" xMax="480" yMax="836">
      <contour>
        <pt x="173" y="825" on="1"/>
        <pt x="173" y="836" on="0"/>
        <pt x="184" y="836" on="1"/>
        <pt x="212" y="836" on="1"/>
        <pt x="222" y="836" on="0"/>
        <pt x="222" y="825" on="1"/>
        <pt x="222" y="815" on="1"/>
        <pt x="222" y="778" on="0"/>
        <pt x="246" y="747" on="0"/>
        <pt x="275" y="747" on="1"/>
        <pt x="280" y="747" on="1"/>
        <pt x="310" y="747" on="0"/>
        <pt x="335" y="778" on="0"/>
        <pt x="335" y="815" on="1"/>
        <pt x="335" y="825" on="1"/>
        <pt x="335" y="835" on="0"/>
        <pt x="345" y="835" on="1"/>
        <pt x="371" y="835" on="1"/>
        <pt x="382" y="835" on="0"/>
        <pt x="382" y="825" on="1"/>
        <pt x="382" y="813" on="1"/>
        <pt x="382" y="707" on="0"/>
        <pt x="286" y="707" on="1"/>
        <pt x="269" y="707" on="1"/>
        <pt x="173" y="707" on="0"/>
        <pt x="173" y="813" on="1"/>
      </contour>
      <contour>
        <pt x="421" y="643" on="1"/>
        <pt x="466" y="643" on="1"/>
        <pt x="480" y="643" on="0"/>
        <pt x="480" y="630" on="1"/>
        <pt x="480" y="148" on="1"/>
        <pt x="480" y="78" on="0"/>
        <pt x="402" y="0" on="0"/>
        <pt x="333" y="0" on="1"/>
        <pt x="222" y="0" on="1"/>
        <pt x="153" y="0" on="0"/>
        <pt x="74" y="78" on="0"/>
        <pt x="74" y="148" on="1"/>
        <pt x="74" y="629" on="1"/>
        <pt x="74" y="643" on="0"/>
        <pt x="88" y="643" on="1"/>
        <pt x="133" y="643" on="1"/>
        <pt x="147" y="643" on="0"/>
        <pt x="147" y="629" on="1"/>
        <pt x="147" y="151" on="1"/>
        <pt x="147" y="64" on="0"/>
        <pt x="230" y="64" on="1"/>
        <pt x="324" y="64" on="1"/>
        <pt x="408" y="64" on="0"/>
        <pt x="408" y="151" on="1"/>
        <pt x="408" y="629" on="1"/>
        <pt x="408" y="643" on="0"/>
      </contour>
    </TTGlyph>
    <TTGlyph name="Ucircumflex" xMin="74" yMin="0" xMax="480" yMax="836">
      <contour>
        <pt x="374" y="707" on="1"/>
        <pt x="340" y="707" on="1"/>
        <pt x="330" y="707" on="0"/>
        <pt x="326" y="715" on="1"/>
        <pt x="278" y="803" on="1"/>
        <pt x="231" y="715" on="1"/>
        <pt x="227" y="707" on="0"/>
        <pt x="217" y="707" on="1"/>
        <pt x="184" y="707" on="1"/>
        <pt x="170" y="707" on="0"/>
        <pt x="177" y="719" on="1"/>
        <pt x="241" y="826" on="1"/>
        <pt x="248" y="836" on="0"/>
        <pt x="261" y="836" on="1"/>
        <pt x="295" y="836" on="1"/>
        <pt x="309" y="836" on="0"/>
        <pt x="316" y="826" on="1"/>
        <pt x="379" y="719" on="1"/>
        <pt x="386" y="707" on="0"/>
      </contour>
      <contour>
        <pt x="421" y="643" on="1"/>
        <pt x="466" y="643" on="1"/>
        <pt x="480" y="643" on="0"/>
        <pt x="480" y="630" on="1"/>
        <pt x="480" y="148" on="1"/>
        <pt x="480" y="78" on="0"/>
        <pt x="402" y="0" on="0"/>
        <pt x="333" y="0" on="1"/>
        <pt x="222" y="0" on="1"/>
        <pt x="153" y="0" on="0"/>
        <pt x="74" y="78" on="0"/>
        <pt x="74" y="148" on="1"/>
        <pt x="74" y="629" on="1"/>
        <pt x="74" y="643" on="0"/>
        <pt x="88" y="643" on="1"/>
        <pt x="133" y="643" on="1"/>
        <pt x="147" y="643" on="0"/>
        <pt x="147" y="629" on="1"/>
        <pt x="147" y="151" on="1"/>
        <pt x="147" y="64" on="0"/>
        <pt x="230" y="64" on="1"/>
        <pt x="324" y="64" on="1"/>
        <pt x="408" y="64" on="0"/>
        <pt x="408" y="151" on="1"/>
        <pt x="408" y="629" on="1"/>
        <pt x="408" y="643" on="0"/>
      </contour>
    </TTGlyph>
    <TTGlyph name="Udieresis" xMin="74" yMin="0" xMax="480" yMax="836">
      <contour>
        <pt x="157" y="721" on="1"/>
        <pt x="157" y="822" on="1"/>
        <pt x="157" y="836" on="0"/>
        <pt x="170" y="836" on="1"/>
        <pt x="213" y="836" on="1"/>
        <pt x="226" y="836" on="0"/>
        <pt x="226" y="823" on="1"/>
        <pt x="226" y="721" on="1"/>
        <pt x="226" y="707" on="0"/>
        <pt x="213" y="707" on="1"/>
        <pt x="170" y="707" on="1"/>
        <pt x="157" y="707" on="0"/>
      </contour>
      <contour>
        <pt x="328" y="721" on="1"/>
        <pt x="328" y="822" on="1"/>
        <pt x="328" y="836" on="0"/>
        <pt x="341" y="836" on="1"/>
        <pt x="384" y="836" on="1"/>
        <pt x="397" y="836" on="0"/>
        <pt x="397" y="823" on="1"/>
        <pt x="397" y="721" on="1"/>
        <pt x="397" y="707" on="0"/>
        <pt x="384" y="707" on="1"/>
        <pt x="341" y="707" on="1"/>
        <pt x="328" y="707" on="0"/>
      </contour>
      <contour>
        <pt x="421" y="643" on="1"/>
        <pt x="466" y="643" on="1"/>
        <pt x="480" y="643" on="0"/>
        <pt x="480" y="630" on="1"/>
        <pt x="480" y="148" on="1"/>
        <pt x="480" y="78" on="0"/>
        <pt x="402" y="0" on="0"/>
        <pt x="333" y="0" on="1"/>
        <pt x="222" y="0" on="1"/>
        <pt x="153" y="0" on="0"/>
        <pt x="74" y="78" on="0"/>
        <pt x="74" y="148" on="1"/>
        <pt x="74" y="629" on="1"/>
        <pt x="74" y="643" on="0"/>
        <pt x="88" y="643" on="1"/>
        <pt x="133" y="643" on="1"/>
        <pt x="147" y="643" on="0"/>
        <pt x="147" y="629" on="1"/>
        <pt x="147" y="151" on="1"/>
        <pt x="147" y="64" on="0"/>
        <pt x="230" y="64" on="1"/>
        <pt x="324" y="64" on="1"/>
        <pt x="408" y="64" on="0"/>
        <pt x="408" y="151" on="1"/>
        <pt x="408" y="629" on="1"/>
        <pt x="408" y="643" on="0"/>
      </contour>
    </TTGlyph>
    <TTGlyph name="Ugrave" xMin="74" yMin="0" xMax="480" yMax="836">
      <contour>
        <pt x="301" y="707" on="1"/>
        <pt x="268" y="707" on="1"/>
        <pt x="256" y="707" on="0"/>
        <pt x="248" y="717" on="1"/>
        <pt x="161" y="822" on="1"/>
        <pt x="157" y="828" on="0"/>
        <pt x="161" y="836" on="0"/>
        <pt x="167" y="836" on="1"/>
        <pt x="228" y="836" on="1"/>
        <pt x="242" y="836" on="0"/>
        <pt x="249" y="823" on="1"/>
        <pt x="307" y="721" on="1"/>
        <pt x="315" y="707" on="0"/>
      </contour>
      <contour>
        <pt x="421" y="643" on="1"/>
        <pt x="466" y="643" on="1"/>
        <pt x="480" y="643" on="0"/>
        <pt x="480" y="630" on="1"/>
        <pt x="480" y="148" on="1"/>
        <pt x="480" y="78" on="0"/>
        <pt x="402" y="0" on="0"/>
        <pt x="333" y="0" on="1"/>
        <pt x="222" y="0" on="1"/>
        <pt x="153" y="0" on="0"/>
        <pt x="74" y="78" on="0"/>
        <pt x="74" y="148" on="1"/>
        <pt x="74" y="629" on="1"/>
        <pt x="74" y="643" on="0"/>
        <pt x="88" y="643" on="1"/>
        <pt x="133" y="643" on="1"/>
        <pt x="147" y="643" on="0"/>
        <pt x="147" y="629" on="1"/>
        <pt x="147" y="151" on="1"/>
        <pt x="147" y="64" on="0"/>
        <pt x="230" y="64" on="1"/>
        <pt x="324" y="64" on="1"/>
        <pt x="408" y="64" on="0"/>
        <pt x="408" y="151" on="1"/>
        <pt x="408" y="629" on="1"/>
        <pt x="408" y="643" on="0"/>
      </contour>
    </TTGlyph>
    <TTGlyph name="Uhungarumlaut" xMin="74" yMin="0" xMax="480" yMax="836">
      <contour>
        <pt x="262" y="836" on="1"/>
        <pt x="303" y="836" on="1"/>
        <pt x="320" y="836" on="0"/>
        <pt x="309" y="822" on="1"/>
        <pt x="232" y="717" on="1"/>
        <pt x="224" y="707" on="0"/>
        <pt x="214" y="707" on="1"/>
        <pt x="190" y="707" on="1"/>
        <pt x="178" y="707" on="0"/>
        <pt x="184" y="721" on="1"/>
        <pt x="241" y="823" on="1"/>
        <pt x="248" y="836" on="0"/>
      </contour>
      <contour>
        <pt x="394" y="836" on="1"/>
        <pt x="435" y="836" on="1"/>
        <pt x="451" y="836" on="0"/>
        <pt x="442" y="822" on="1"/>
        <pt x="364" y="717" on="1"/>
        <pt x="356" y="707" on="0"/>
        <pt x="346" y="707" on="1"/>
        <pt x="323" y="707" on="1"/>
        <pt x="308" y="707" on="0"/>
        <pt x="316" y="721" on="1"/>
        <pt x="373" y="823" on="1"/>
        <pt x="380" y="836" on="0"/>
      </contour>
      <contour>
        <pt x="421" y="643" on="1"/>
        <pt x="466" y="643" on="1"/>
        <pt x="480" y="643" on="0"/>
        <pt x="480" y="630" on="1"/>
        <pt x="480" y="148" on="1"/>
        <pt x="480" y="78" on="0"/>
        <pt x="402" y="0" on="0"/>
        <pt x="333" y="0" on="1"/>
        <pt x="222" y="0" on="1"/>
        <pt x="153" y="0" on="0"/>
        <pt x="74" y="78" on="0"/>
        <pt x="74" y="148" on="1"/>
        <pt x="74" y="629" on="1"/>
        <pt x="74" y="643" on="0"/>
        <pt x="88" y="643" on="1"/>
        <pt x="133" y="643" on="1"/>
        <pt x="147" y="643" on="0"/>
        <pt x="147" y="629" on="1"/>
        <pt x="147" y="151" on="1"/>
        <pt x="147" y="64" on="0"/>
        <pt x="230" y="64" on="1"/>
        <pt x="324" y="64" on="1"/>
        <pt x="408" y="64" on="0"/>
        <pt x="408" y="151" on="1"/>
        <pt x="408" y="629" on="1"/>
        <pt x="408" y="643" on="0"/>
      </contour>
    </TTGlyph>
    <TTGlyph name="Umacron" xMin="74" yMin="0" xMax="480" yMax="800">
      <contour>
        <pt x="378" y="746" on="1"/>
        <pt x="177" y="746" on="1"/>
        <pt x="163" y="746" on="0"/>
        <pt x="163" y="760" on="1"/>
        <pt x="163" y="786" on="1"/>
        <pt x="163" y="800" on="0"/>
        <pt x="177" y="800" on="1"/>
        <pt x="378" y="800" on="1"/>
        <pt x="392" y="800" on="0"/>
        <pt x="392" y="786" on="1"/>
        <pt x="392" y="760" on="1"/>
        <pt x="392" y="746" on="0"/>
      </contour>
      <contour>
        <pt x="421" y="643" on="1"/>
        <pt x="466" y="643" on="1"/>
        <pt x="480" y="643" on="0"/>
        <pt x="480" y="630" on="1"/>
        <pt x="480" y="148" on="1"/>
        <pt x="480" y="78" on="0"/>
        <pt x="402" y="0" on="0"/>
        <pt x="333" y="0" on="1"/>
        <pt x="222" y="0" on="1"/>
        <pt x="153" y="0" on="0"/>
        <pt x="74" y="78" on="0"/>
        <pt x="74" y="148" on="1"/>
        <pt x="74" y="629" on="1"/>
        <pt x="74" y="643" on="0"/>
        <pt x="88" y="643" on="1"/>
        <pt x="133" y="643" on="1"/>
        <pt x="147" y="643" on="0"/>
        <pt x="147" y="629" on="1"/>
        <pt x="147" y="151" on="1"/>
        <pt x="147" y="64" on="0"/>
        <pt x="230" y="64" on="1"/>
        <pt x="324" y="64" on="1"/>
        <pt x="408" y="64" on="0"/>
        <pt x="408" y="151" on="1"/>
        <pt x="408" y="629" on="1"/>
        <pt x="408" y="643" on="0"/>
      </contour>
    </TTGlyph>
    <TTGlyph name="Uogonek" xMin="74" yMin="-111" xMax="480" yMax="643">
      <contour>
        <pt x="421" y="643" on="1"/>
        <pt x="466" y="643" on="1"/>
        <pt x="480" y="643" on="0"/>
        <pt x="480" y="630" on="1"/>
        <pt x="480" y="148" on="1"/>
        <pt x="480" y="78" on="0"/>
        <pt x="402" y="0" on="0"/>
        <pt x="333" y="0" on="1"/>
        <pt x="317" y="0" on="1"/>
        <pt x="268" y="-67" on="1"/>
        <pt x="308" y="-67" on="1"/>
        <pt x="324" y="-67" on="0"/>
        <pt x="334" y="-73" on="0"/>
        <pt x="334" y="-81" on="1"/>
        <pt x="334" y="-94" on="0"/>
        <pt x="283" y="-111" on="0"/>
        <pt x="228" y="-111" on="0"/>
        <pt x="214" y="-83" on="0"/>
        <pt x="227" y="-67" on="1"/>
        <pt x="274" y="0" on="1"/>
        <pt x="222" y="0" on="1"/>
        <pt x="153" y="0" on="0"/>
        <pt x="74" y="78" on="0"/>
        <pt x="74" y="148" on="1"/>
        <pt x="74" y="629" on="1"/>
        <pt x="74" y="643" on="0"/>
        <pt x="88" y="643" on="1"/>
        <pt x="133" y="643" on="1"/>
        <pt x="147" y="643" on="0"/>
        <pt x="147" y="629" on="1"/>
        <pt x="147" y="151" on="1"/>
        <pt x="147" y="64" on="0"/>
        <pt x="230" y="64" on="1"/>
        <pt x="324" y="64" on="1"/>
        <pt x="408" y="64" on="0"/>
        <pt x="408" y="151" on="1"/>
        <pt x="408" y="629" on="1"/>
        <pt x="408" y="643" on="0"/>
      </contour>
    </TTGlyph>
    <TTGlyph name="Uring" xMin="74" yMin="0" xMax="480" yMax="872">
      <contour>
        <pt x="292" y="697" on="1"/>
        <pt x="261" y="697" on="1"/>
        <pt x="230" y="697" on="0"/>
        <pt x="195" y="733" on="0"/>
        <pt x="195" y="765" on="1"/>
        <pt x="195" y="806" on="1"/>
        <pt x="195" y="838" on="0"/>
        <pt x="230" y="872" on="0"/>
        <pt x="261" y="872" on="1"/>
        <pt x="292" y="872" on="1"/>
        <pt x="324" y="872" on="0"/>
        <pt x="360" y="837" on="0"/>
        <pt x="360" y="806" on="1"/>
        <pt x="360" y="765" on="1"/>
        <pt x="360" y="733" on="0"/>
        <pt x="324" y="697" on="0"/>
      </contour>
      <contour>
        <pt x="270" y="730" on="1"/>
        <pt x="283" y="730" on="1"/>
        <pt x="322" y="730" on="0"/>
        <pt x="322" y="773" on="1"/>
        <pt x="322" y="796" on="1"/>
        <pt x="322" y="839" on="0"/>
        <pt x="283" y="839" on="1"/>
        <pt x="270" y="839" on="1"/>
        <pt x="231" y="839" on="0"/>
        <pt x="231" y="796" on="1"/>
        <pt x="231" y="773" on="1"/>
        <pt x="231" y="730" on="0"/>
      </contour>
      <contour>
        <pt x="421" y="643" on="1"/>
        <pt x="466" y="643" on="1"/>
        <pt x="480" y="643" on="0"/>
        <pt x="480" y="630" on="1"/>
        <pt x="480" y="148" on="1"/>
        <pt x="480" y="78" on="0"/>
        <pt x="402" y="0" on="0"/>
        <pt x="333" y="0" on="1"/>
        <pt x="222" y="0" on="1"/>
        <pt x="153" y="0" on="0"/>
        <pt x="74" y="78" on="0"/>
        <pt x="74" y="148" on="1"/>
        <pt x="74" y="629" on="1"/>
        <pt x="74" y="643" on="0"/>
        <pt x="88" y="643" on="1"/>
        <pt x="133" y="643" on="1"/>
        <pt x="147" y="643" on="0"/>
        <pt x="147" y="629" on="1"/>
        <pt x="147" y="151" on="1"/>
        <pt x="147" y="64" on="0"/>
        <pt x="230" y="64" on="1"/>
        <pt x="324" y="64" on="1"/>
        <pt x="408" y="64" on="0"/>
        <pt x="408" y="151" on="1"/>
        <pt x="408" y="629" on="1"/>
        <pt x="408" y="643" on="0"/>
      </contour>
    </TTGlyph>
    <TTGlyph name="Utilde" xMin="74" yMin="0" xMax="480" yMax="832">
      <contour>
        <pt x="278" y="722" on="0"/>
        <pt x="251" y="702" on="0"/>
        <pt x="222" y="702" on="1"/>
        <pt x="167" y="702" on="0"/>
        <pt x="167" y="779" on="1"/>
        <pt x="167" y="818" on="1"/>
        <pt x="167" y="828" on="0"/>
        <pt x="176" y="828" on="1"/>
        <pt x="197" y="828" on="1"/>
        <pt x="206" y="828" on="0"/>
        <pt x="206" y="818" on="1"/>
        <pt x="206" y="792" on="1"/>
        <pt x="206" y="764" on="0"/>
        <pt x="217" y="743" on="0"/>
        <pt x="241" y="743" on="0"/>
        <pt x="254" y="759" on="0"/>
        <pt x="280" y="814" on="0"/>
        <pt x="304" y="832" on="0"/>
        <pt x="332" y="832" on="1"/>
        <pt x="388" y="832" on="0"/>
        <pt x="388" y="754" on="1"/>
        <pt x="388" y="715" on="1"/>
        <pt x="388" y="704" on="0"/>
        <pt x="379" y="704" on="1"/>
        <pt x="358" y="704" on="1"/>
        <pt x="348" y="704" on="0"/>
        <pt x="348" y="715" on="1"/>
        <pt x="348" y="742" on="1"/>
        <pt x="348" y="771" on="0"/>
        <pt x="338" y="790" on="0"/>
        <pt x="312" y="790" on="0"/>
        <pt x="303" y="778" on="0"/>
      </contour>
      <contour>
        <pt x="421" y="643" on="1"/>
        <pt x="466" y="643" on="1"/>
        <pt x="480" y="643" on="0"/>
        <pt x="480" y="630" on="1"/>
        <pt x="480" y="148" on="1"/>
        <pt x="480" y="78" on="0"/>
        <pt x="402" y="0" on="0"/>
        <pt x="333" y="0" on="1"/>
        <pt x="222" y="0" on="1"/>
        <pt x="153" y="0" on="0"/>
        <pt x="74" y="78" on="0"/>
        <pt x="74" y="148" on="1"/>
        <pt x="74" y="629" on="1"/>
        <pt x="74" y="643" on="0"/>
        <pt x="88" y="643" on="1"/>
        <pt x="133" y="643" on="1"/>
        <pt x="147" y="643" on="0"/>
        <pt x="147" y="629" on="1"/>
        <pt x="147" y="151" on="1"/>
        <pt x="147" y="64" on="0"/>
        <pt x="230" y="64" on="1"/>
        <pt x="324" y="64" on="1"/>
        <pt x="408" y="64" on="0"/>
        <pt x="408" y="151" on="1"/>
        <pt x="408" y="629" on="1"/>
        <pt x="408" y="643" on="0"/>
      </contour>
    </TTGlyph>
    <TTGlyph name="V" xMin="24" yMin="0" xMax="482" yMax="643">
      <contour>
        <pt x="289" y="0" on="1"/>
        <pt x="218" y="0" on="1"/>
        <pt x="205" y="0" on="0"/>
        <pt x="201" y="14" on="1"/>
        <pt x="24" y="628" on="1"/>
        <pt x="21" y="643" on="0"/>
        <pt x="37" y="643" on="1"/>
        <pt x="86" y="643" on="1"/>
        <pt x="99" y="643" on="0"/>
        <pt x="102" y="629" on="1"/>
        <pt x="251" y="82" on="1"/>
        <pt x="255" y="82" on="1"/>
        <pt x="404" y="629" on="1"/>
        <pt x="407" y="643" on="0"/>
        <pt x="420" y="643" on="1"/>
        <pt x="470" y="643" on="1"/>
        <pt x="485" y="643" on="0"/>
        <pt x="482" y="628" on="1"/>
        <pt x="305" y="14" on="1"/>
        <pt x="301" y="0" on="0"/>
      </contour>
    </TTGlyph>
    <TTGlyph name="W" xMin="27" yMin="0" xMax="771" yMax="643">
      <contour>
        <pt x="249" y="0" on="1"/>
        <pt x="172" y="0" on="1"/>
        <pt x="158" y="0" on="0"/>
        <pt x="155" y="14" on="1"/>
        <pt x="27" y="629" on="1"/>
        <pt x="24" y="643" on="0"/>
        <pt x="40" y="643" on="1"/>
        <pt x="94" y="643" on="1"/>
        <pt x="109" y="643" on="0"/>
        <pt x="110" y="629" on="1"/>
        <pt x="211" y="78" on="1"/>
        <pt x="217" y="78" on="1"/>
        <pt x="352" y="630" on="1"/>
        <pt x="355" y="643" on="0"/>
        <pt x="368" y="643" on="1"/>
        <pt x="428" y="643" on="1"/>
        <pt x="441" y="643" on="0"/>
        <pt x="444" y="630" on="1"/>
        <pt x="581" y="78" on="1"/>
        <pt x="587" y="78" on="1"/>
        <pt x="687" y="628" on="1"/>
        <pt x="690" y="643" on="0"/>
        <pt x="704" y="643" on="1"/>
        <pt x="758" y="643" on="1"/>
        <pt x="774" y="643" on="0"/>
        <pt x="771" y="628" on="1"/>
        <pt x="642" y="14" on="1"/>
        <pt x="639" y="0" on="0"/>
        <pt x="626" y="0" on="1"/>
        <pt x="549" y="0" on="1"/>
        <pt x="535" y="0" on="0"/>
        <pt x="532" y="14" on="1"/>
        <pt x="401" y="551" on="1"/>
        <pt x="397" y="551" on="1"/>
        <pt x="265" y="14" on="1"/>
        <pt x="262" y="0" on="0"/>
      </contour>
    </TTGlyph>
    <TTGlyph name="Wacute" xMin="27" yMin="0" xMax="771" yMax="836">
      <contour>
        <pt x="459" y="836" on="1"/>
        <pt x="519" y="836" on="1"/>
        <pt x="526" y="836" on="0"/>
        <pt x="530" y="828" on="0"/>
        <pt x="525" y="822" on="1"/>
        <pt x="438" y="717" on="1"/>
        <pt x="430" y="707" on="0"/>
        <pt x="419" y="707" on="1"/>
        <pt x="386" y="707" on="1"/>
        <pt x="373" y="707" on="0"/>
        <pt x="379" y="721" on="1"/>
        <pt x="437" y="823" on="1"/>
        <pt x="444" y="836" on="0"/>
      </contour>
      <contour>
        <pt x="249" y="0" on="1"/>
        <pt x="172" y="0" on="1"/>
        <pt x="158" y="0" on="0"/>
        <pt x="155" y="14" on="1"/>
        <pt x="27" y="629" on="1"/>
        <pt x="24" y="643" on="0"/>
        <pt x="40" y="643" on="1"/>
        <pt x="94" y="643" on="1"/>
        <pt x="109" y="643" on="0"/>
        <pt x="110" y="629" on="1"/>
        <pt x="211" y="78" on="1"/>
        <pt x="217" y="78" on="1"/>
        <pt x="352" y="630" on="1"/>
        <pt x="355" y="643" on="0"/>
        <pt x="368" y="643" on="1"/>
        <pt x="428" y="643" on="1"/>
        <pt x="441" y="643" on="0"/>
        <pt x="444" y="630" on="1"/>
        <pt x="581" y="78" on="1"/>
        <pt x="587" y="78" on="1"/>
        <pt x="687" y="628" on="1"/>
        <pt x="690" y="643" on="0"/>
        <pt x="704" y="643" on="1"/>
        <pt x="758" y="643" on="1"/>
        <pt x="774" y="643" on="0"/>
        <pt x="771" y="628" on="1"/>
        <pt x="642" y="14" on="1"/>
        <pt x="639" y="0" on="0"/>
        <pt x="626" y="0" on="1"/>
        <pt x="549" y="0" on="1"/>
        <pt x="535" y="0" on="0"/>
        <pt x="532" y="14" on="1"/>
        <pt x="401" y="551" on="1"/>
        <pt x="397" y="551" on="1"/>
        <pt x="265" y="14" on="1"/>
        <pt x="262" y="0" on="0"/>
      </contour>
    </TTGlyph>
    <TTGlyph name="Wcircumflex" xMin="27" yMin="0" xMax="771" yMax="836">
      <contour>
        <pt x="496" y="707" on="1"/>
        <pt x="462" y="707" on="1"/>
        <pt x="452" y="707" on="0"/>
        <pt x="448" y="715" on="1"/>
        <pt x="401" y="803" on="1"/>
        <pt x="354" y="715" on="1"/>
        <pt x="350" y="707" on="0"/>
        <pt x="340" y="707" on="1"/>
        <pt x="306" y="707" on="1"/>
        <pt x="293" y="707" on="0"/>
        <pt x="300" y="719" on="1"/>
        <pt x="364" y="826" on="1"/>
        <pt x="371" y="836" on="0"/>
        <pt x="384" y="836" on="1"/>
        <pt x="418" y="836" on="1"/>
        <pt x="431" y="836" on="0"/>
        <pt x="438" y="826" on="1"/>
        <pt x="501" y="719" on="1"/>
        <pt x="508" y="707" on="0"/>
      </contour>
      <contour>
        <pt x="249" y="0" on="1"/>
        <pt x="172" y="0" on="1"/>
        <pt x="158" y="0" on="0"/>
        <pt x="155" y="14" on="1"/>
        <pt x="27" y="629" on="1"/>
        <pt x="24" y="643" on="0"/>
        <pt x="40" y="643" on="1"/>
        <pt x="94" y="643" on="1"/>
        <pt x="109" y="643" on="0"/>
        <pt x="110" y="629" on="1"/>
        <pt x="211" y="78" on="1"/>
        <pt x="217" y="78" on="1"/>
        <pt x="352" y="630" on="1"/>
        <pt x="355" y="643" on="0"/>
        <pt x="368" y="643" on="1"/>
        <pt x="428" y="643" on="1"/>
        <pt x="441" y="643" on="0"/>
        <pt x="444" y="630" on="1"/>
        <pt x="581" y="78" on="1"/>
        <pt x="587" y="78" on="1"/>
        <pt x="687" y="628" on="1"/>
        <pt x="690" y="643" on="0"/>
        <pt x="704" y="643" on="1"/>
        <pt x="758" y="643" on="1"/>
        <pt x="774" y="643" on="0"/>
        <pt x="771" y="628" on="1"/>
        <pt x="642" y="14" on="1"/>
        <pt x="639" y="0" on="0"/>
        <pt x="626" y="0" on="1"/>
        <pt x="549" y="0" on="1"/>
        <pt x="535" y="0" on="0"/>
        <pt x="532" y="14" on="1"/>
        <pt x="401" y="551" on="1"/>
        <pt x="397" y="551" on="1"/>
        <pt x="265" y="14" on="1"/>
        <pt x="262" y="0" on="0"/>
      </contour>
    </TTGlyph>
    <TTGlyph name="Wdieresis" xMin="27" yMin="0" xMax="771" yMax="836">
      <contour>
        <pt x="279" y="721" on="1"/>
        <pt x="279" y="822" on="1"/>
        <pt x="279" y="836" on="0"/>
        <pt x="292" y="836" on="1"/>
        <pt x="335" y="836" on="1"/>
        <pt x="348" y="836" on="0"/>
        <pt x="348" y="823" on="1"/>
        <pt x="348" y="721" on="1"/>
        <pt x="348" y="707" on="0"/>
        <pt x="335" y="707" on="1"/>
        <pt x="292" y="707" on="1"/>
        <pt x="279" y="707" on="0"/>
      </contour>
      <contour>
        <pt x="450" y="721" on="1"/>
        <pt x="450" y="822" on="1"/>
        <pt x="450" y="836" on="0"/>
        <pt x="463" y="836" on="1"/>
        <pt x="506" y="836" on="1"/>
        <pt x="519" y="836" on="0"/>
        <pt x="519" y="823" on="1"/>
        <pt x="519" y="721" on="1"/>
        <pt x="519" y="707" on="0"/>
        <pt x="506" y="707" on="1"/>
        <pt x="463" y="707" on="1"/>
        <pt x="450" y="707" on="0"/>
      </contour>
      <contour>
        <pt x="249" y="0" on="1"/>
        <pt x="172" y="0" on="1"/>
        <pt x="158" y="0" on="0"/>
        <pt x="155" y="14" on="1"/>
        <pt x="27" y="629" on="1"/>
        <pt x="24" y="643" on="0"/>
        <pt x="40" y="643" on="1"/>
        <pt x="94" y="643" on="1"/>
        <pt x="109" y="643" on="0"/>
        <pt x="110" y="629" on="1"/>
        <pt x="211" y="78" on="1"/>
        <pt x="217" y="78" on="1"/>
        <pt x="352" y="630" on="1"/>
        <pt x="355" y="643" on="0"/>
        <pt x="368" y="643" on="1"/>
        <pt x="428" y="643" on="1"/>
        <pt x="441" y="643" on="0"/>
        <pt x="444" y="630" on="1"/>
        <pt x="581" y="78" on="1"/>
        <pt x="587" y="78" on="1"/>
        <pt x="687" y="628" on="1"/>
        <pt x="690" y="643" on="0"/>
        <pt x="704" y="643" on="1"/>
        <pt x="758" y="643" on="1"/>
        <pt x="774" y="643" on="0"/>
        <pt x="771" y="628" on="1"/>
        <pt x="642" y="14" on="1"/>
        <pt x="639" y="0" on="0"/>
        <pt x="626" y="0" on="1"/>
        <pt x="549" y="0" on="1"/>
        <pt x="535" y="0" on="0"/>
        <pt x="532" y="14" on="1"/>
        <pt x="401" y="551" on="1"/>
        <pt x="397" y="551" on="1"/>
        <pt x="265" y="14" on="1"/>
        <pt x="262" y="0" on="0"/>
      </contour>
    </TTGlyph>
    <TTGlyph name="Wgrave" xMin="27" yMin="0" xMax="771" yMax="836">
      <contour>
        <pt x="414" y="707" on="1"/>
        <pt x="381" y="707" on="1"/>
        <pt x="369" y="707" on="0"/>
        <pt x="361" y="717" on="1"/>
        <pt x="274" y="822" on="1"/>
        <pt x="270" y="828" on="0"/>
        <pt x="274" y="836" on="0"/>
        <pt x="280" y="836" on="1"/>
        <pt x="341" y="836" on="1"/>
        <pt x="356" y="836" on="0"/>
        <pt x="362" y="823" on="1"/>
        <pt x="420" y="721" on="1"/>
        <pt x="428" y="707" on="0"/>
      </contour>
      <contour>
        <pt x="249" y="0" on="1"/>
        <pt x="172" y="0" on="1"/>
        <pt x="158" y="0" on="0"/>
        <pt x="155" y="14" on="1"/>
        <pt x="27" y="629" on="1"/>
        <pt x="24" y="643" on="0"/>
        <pt x="40" y="643" on="1"/>
        <pt x="94" y="643" on="1"/>
        <pt x="109" y="643" on="0"/>
        <pt x="110" y="629" on="1"/>
        <pt x="211" y="78" on="1"/>
        <pt x="217" y="78" on="1"/>
        <pt x="352" y="630" on="1"/>
        <pt x="355" y="643" on="0"/>
        <pt x="368" y="643" on="1"/>
        <pt x="428" y="643" on="1"/>
        <pt x="441" y="643" on="0"/>
        <pt x="444" y="630" on="1"/>
        <pt x="581" y="78" on="1"/>
        <pt x="587" y="78" on="1"/>
        <pt x="687" y="628" on="1"/>
        <pt x="690" y="643" on="0"/>
        <pt x="704" y="643" on="1"/>
        <pt x="758" y="643" on="1"/>
        <pt x="774" y="643" on="0"/>
        <pt x="771" y="628" on="1"/>
        <pt x="642" y="14" on="1"/>
        <pt x="639" y="0" on="0"/>
        <pt x="626" y="0" on="1"/>
        <pt x="549" y="0" on="1"/>
        <pt x="535" y="0" on="0"/>
        <pt x="532" y="14" on="1"/>
        <pt x="401" y="551" on="1"/>
        <pt x="397" y="551" on="1"/>
        <pt x="265" y="14" on="1"/>
        <pt x="262" y="0" on="0"/>
      </contour>
    </TTGlyph>
    <TTGlyph name="X" xMin="31" yMin="0" xMax="484" yMax="643">
      <contour>
        <pt x="93" y="0" on="1"/>
        <pt x="41" y="0" on="1"/>
        <pt x="34" y="0" on="0"/>
        <pt x="29" y="9" on="0"/>
        <pt x="32" y="15" on="1"/>
        <pt x="207" y="336" on="1"/>
        <pt x="41" y="628" on="1"/>
        <pt x="37" y="634" on="0"/>
        <pt x="43" y="643" on="0"/>
        <pt x="50" y="643" on="1"/>
        <pt x="100" y="643" on="1"/>
        <pt x="116" y="643" on="0"/>
        <pt x="122" y="629" on="1"/>
        <pt x="256" y="383" on="1"/>
        <pt x="260" y="383" on="1"/>
        <pt x="392" y="629" on="1"/>
        <pt x="400" y="643" on="0"/>
        <pt x="414" y="643" on="1"/>
        <pt x="466" y="643" on="1"/>
        <pt x="473" y="643" on="0"/>
        <pt x="478" y="634" on="0"/>
        <pt x="475" y="628" on="1"/>
        <pt x="308" y="337" on="1"/>
        <pt x="482" y="15" on="1"/>
        <pt x="486" y="9" on="0"/>
        <pt x="481" y="0" on="0"/>
        <pt x="474" y="0" on="1"/>
        <pt x="421" y="0" on="1"/>
        <pt x="407" y="0" on="0"/>
        <pt x="402" y="13" on="1"/>
        <pt x="259" y="281" on="1"/>
        <pt x="255" y="281" on="1"/>
        <pt x="113" y="13" on="1"/>
        <pt x="106" y="0" on="0"/>
      </contour>
    </TTGlyph>
    <TTGlyph name="Y" xMin="23" yMin="0" xMax="477" yMax="643">
      <contour>
        <pt x="272" y="0" on="1"/>
        <pt x="227" y="0" on="1"/>
        <pt x="213" y="0" on="0"/>
        <pt x="213" y="14" on="1"/>
        <pt x="213" y="241" on="1"/>
        <pt x="23" y="628" on="1"/>
        <pt x="20" y="635" on="0"/>
        <pt x="26" y="643" on="0"/>
        <pt x="32" y="643" on="1"/>
        <pt x="88" y="643" on="1"/>
        <pt x="99" y="643" on="0"/>
        <pt x="105" y="629" on="1"/>
        <pt x="248" y="326" on="1"/>
        <pt x="253" y="326" on="1"/>
        <pt x="395" y="629" on="1"/>
        <pt x="399" y="643" on="0"/>
        <pt x="411" y="643" on="1"/>
        <pt x="468" y="643" on="1"/>
        <pt x="485" y="643" on="0"/>
        <pt x="477" y="628" on="1"/>
        <pt x="286" y="241" on="1"/>
        <pt x="286" y="14" on="1"/>
        <pt x="286" y="0" on="0"/>
      </contour>
    </TTGlyph>
    <TTGlyph name="Yacute" xMin="23" yMin="0" xMax="477" yMax="836">
      <contour>
        <pt x="301" y="836" on="1"/>
        <pt x="362" y="836" on="1"/>
        <pt x="368" y="836" on="0"/>
        <pt x="373" y="828" on="0"/>
        <pt x="368" y="822" on="1"/>
        <pt x="281" y="717" on="1"/>
        <pt x="273" y="707" on="0"/>
        <pt x="261" y="707" on="1"/>
        <pt x="228" y="707" on="1"/>
        <pt x="214" y="707" on="0"/>
        <pt x="222" y="721" on="1"/>
        <pt x="280" y="823" on="1"/>
        <pt x="287" y="836" on="0"/>
      </contour>
      <contour>
        <pt x="272" y="0" on="1"/>
        <pt x="227" y="0" on="1"/>
        <pt x="213" y="0" on="0"/>
        <pt x="213" y="14" on="1"/>
        <pt x="213" y="241" on="1"/>
        <pt x="23" y="628" on="1"/>
        <pt x="20" y="635" on="0"/>
        <pt x="26" y="643" on="0"/>
        <pt x="32" y="643" on="1"/>
        <pt x="88" y="643" on="1"/>
        <pt x="99" y="643" on="0"/>
        <pt x="105" y="629" on="1"/>
        <pt x="248" y="326" on="1"/>
        <pt x="253" y="326" on="1"/>
        <pt x="395" y="629" on="1"/>
        <pt x="399" y="643" on="0"/>
        <pt x="411" y="643" on="1"/>
        <pt x="468" y="643" on="1"/>
        <pt x="485" y="643" on="0"/>
        <pt x="477" y="628" on="1"/>
        <pt x="286" y="241" on="1"/>
        <pt x="286" y="14" on="1"/>
        <pt x="286" y="0" on="0"/>
      </contour>
    </TTGlyph>
</ttFont>
